M48
; DRILL file {KiCad (5.1.7-0-10_14)} date Sunday, November 01, 2020 at 03:15:37 PM
; FORMAT={-:-/ absolute / inch / decimal}
; #@! TF.CreationDate,2020-11-01T15:15:37-08:00
; #@! TF.GenerationSoftware,Kicad,Pcbnew,(5.1.7-0-10_14)
; #@! TF.FileFunction,Plated,1,2,PTH
FMAT,2
INCH
T1C0.0130
T2C0.0394
T3C0.0433
T4C0.0453
%
G90
G05
T1
X4.04Y-2.45
X4.04Y-2.65
X4.04Y-2.85
X4.04Y-3.05
X4.04Y-3.25
X4.04Y-3.45
X4.04Y-3.65
X4.04Y-3.85
X4.04Y-4.25
X4.04Y-4.45
X4.04Y-4.65
X4.04Y-4.85
X4.04Y-5.05
X4.04Y-5.25
X4.04Y-5.45
X4.04Y-5.65
X4.175Y-2.45
X4.175Y-2.55
X4.175Y-3.05
X4.175Y-3.25
X4.175Y-3.45
X4.175Y-3.65
X4.2Y-4.25
X4.2Y-4.45
X4.2Y-4.65
X4.2Y-4.85
X4.2Y-5.05
X4.2Y-5.25
X4.2Y-5.45
X4.2Y-5.65
X4.22Y-3.84
X4.35Y-2.08
X4.35Y-2.35
X4.35Y-5.92
X4.5Y-2.08
X4.5Y-2.35
X4.5Y-2.55
X4.5Y-2.75
X4.5Y-2.95
X4.5Y-3.15
X4.5Y-3.35
X4.5Y-3.55
X4.5Y-3.75
X4.5Y-3.875
X4.5Y-4.025
X4.5Y-4.25
X4.5Y-4.45
X4.5Y-4.65
X4.5Y-4.85
X4.5Y-5.05
X4.5Y-5.25
X4.5Y-5.45
X4.5Y-5.65
X4.5Y-5.92
X4.65Y-2.08
X4.65Y-5.92
X4.725Y-2.35
X4.725Y-2.55
X4.725Y-2.75
X4.725Y-2.95
X4.725Y-3.15
X4.725Y-3.35
X4.725Y-3.55
X4.725Y-3.75
X4.725Y-4.25
X4.725Y-4.45
X4.725Y-4.65
X4.725Y-4.85
X4.725Y-5.05
X4.725Y-5.25
X4.725Y-5.45
X4.725Y-5.65
X4.8Y-2.08
X4.8Y-5.92
X4.95Y-2.08
X4.95Y-2.35
X4.95Y-2.55
X4.95Y-2.75
X4.95Y-2.95
X4.95Y-3.15
X4.95Y-3.35
X4.95Y-3.55
X4.95Y-3.75
X4.95Y-3.875
X4.95Y-4.025
X4.95Y-4.25
X4.95Y-4.45
X4.95Y-4.65
X4.95Y-4.85
X4.95Y-5.05
X4.95Y-5.25
X4.95Y-5.45
X4.95Y-5.65
X4.95Y-5.92
X5.1Y-2.08
X5.1Y-5.92
X5.125Y-3.875
X5.25Y-2.08
X5.25Y-2.35
X5.25Y-2.55
X5.25Y-2.75
X5.25Y-2.95
X5.25Y-3.15
X5.25Y-3.35
X5.25Y-3.55
X5.25Y-3.75
X5.25Y-5.92
X5.275Y-4.25
X5.275Y-4.45
X5.275Y-4.65
X5.275Y-4.85
X5.275Y-5.45
X5.275Y-5.65
X5.4Y-2.08
X5.4Y-5.92
X5.5Y-2.35
X5.5Y-2.55
X5.5Y-3.15
X5.5Y-3.35
X5.5Y-3.55
X5.5Y-3.75
X5.5Y-4.25
X5.5Y-4.45
X5.5Y-4.65
X5.5Y-4.85
X5.5Y-5.05
X5.5Y-5.25
X5.5Y-5.45
X5.5Y-5.65
X5.55Y-2.08
X5.55Y-5.92
X5.6Y-4.125
X5.7Y-2.08
X5.7Y-5.92
X5.8Y-2.35
X5.8Y-2.55
X5.8Y-2.75
X5.8Y-2.95
X5.8Y-3.15
X5.8Y-3.35
X5.8Y-3.55
X5.8Y-3.75
X5.8Y-3.975
X5.8Y-4.125
X5.8Y-4.25
X5.8Y-4.45
X5.8Y-4.65
X5.8Y-4.85
X5.8Y-5.05
X5.8Y-5.25
X5.8Y-5.45
X5.8Y-5.65
X5.85Y-2.08
X5.85Y-5.92
X6.0Y-2.08
X6.0Y-5.92
X6.025Y-2.35
X6.025Y-2.55
X6.025Y-2.75
X6.025Y-2.95
X6.025Y-3.15
X6.025Y-3.35
X6.025Y-3.55
X6.025Y-3.75
X6.025Y-3.975
X6.025Y-4.125
X6.025Y-4.25
X6.025Y-4.45
X6.025Y-4.65
X6.025Y-4.85
X6.025Y-5.05
X6.025Y-5.25
X6.025Y-5.45
X6.025Y-5.65
X6.15Y-2.08
X6.15Y-5.92
X6.25Y-2.35
X6.25Y-2.55
X6.25Y-2.75
X6.25Y-2.95
X6.25Y-3.15
X6.25Y-3.35
X6.25Y-3.55
X6.25Y-3.75
X6.25Y-3.975
X6.25Y-4.125
X6.25Y-4.25
X6.25Y-4.45
X6.25Y-4.65
X6.25Y-4.85
X6.25Y-5.05
X6.25Y-5.25
X6.25Y-5.45
X6.25Y-5.65
X6.3Y-2.08
X6.3Y-5.92
X6.4Y-5.65
X6.45Y-2.08
X6.45Y-5.92
X6.47Y-4.125
X6.55Y-5.6
X6.575Y-2.35
X6.575Y-2.55
X6.575Y-2.75
X6.575Y-2.95
X6.575Y-3.15
X6.575Y-3.35
X6.575Y-3.55
X6.575Y-3.75
X6.575Y-4.25
X6.575Y-4.35
X6.575Y-4.55
X6.575Y-4.75
X6.575Y-4.95
X6.575Y-5.45
X6.71Y-2.45
X6.71Y-2.65
X6.71Y-2.85
X6.71Y-3.05
X6.71Y-3.25
X6.71Y-3.45
X6.71Y-3.65
X6.71Y-3.85
X6.71Y-4.25
X6.71Y-4.45
X6.71Y-4.65
X6.71Y-4.85
X6.71Y-5.05
X6.71Y-5.25
X6.71Y-5.45
X6.71Y-5.65
T2
X5.175Y-4.35
X5.175Y-4.45
X5.175Y-4.55
X5.175Y-4.65
X5.175Y-4.75
X5.175Y-4.85
X5.175Y-4.95
X5.175Y-5.05
X5.175Y-5.15
X5.175Y-5.25
X5.175Y-5.35
X5.175Y-5.45
X5.175Y-5.55
X5.175Y-5.65
X4.275Y-4.35
X4.275Y-4.45
X4.275Y-4.55
X4.275Y-4.65
X4.275Y-4.75
X4.275Y-4.85
X4.275Y-4.95
X4.275Y-5.05
X4.275Y-5.15
X4.275Y-5.25
X4.275Y-5.35
X4.275Y-5.45
X4.275Y-5.55
X4.275Y-5.65
X4.275Y-3.95
X4.275Y-4.05
X5.175Y-2.35
X5.175Y-2.45
X5.175Y-2.55
X5.175Y-2.65
X5.175Y-2.75
X5.175Y-2.85
X5.175Y-2.95
X5.175Y-3.05
X5.175Y-3.15
X5.175Y-3.25
X5.175Y-3.35
X5.175Y-3.45
X5.175Y-3.55
X5.175Y-3.65
X6.475Y-2.35
X6.475Y-2.45
X6.475Y-2.55
X6.475Y-2.65
X6.475Y-2.75
X6.475Y-2.85
X6.475Y-2.95
X6.475Y-3.05
X6.475Y-3.15
X6.475Y-3.25
X6.475Y-3.35
X6.475Y-3.45
X6.475Y-3.55
X6.475Y-3.65
X5.275Y-5.05
X5.275Y-5.15
X5.275Y-5.25
X5.275Y-5.35
X4.175Y-2.65
X4.175Y-2.75
X4.175Y-2.85
X4.175Y-2.95
X4.275Y-2.35
X4.275Y-2.45
X4.275Y-2.55
X4.275Y-2.65
X4.275Y-2.75
X4.275Y-2.85
X4.275Y-2.95
X4.275Y-3.05
X4.275Y-3.15
X4.275Y-3.25
X4.275Y-3.35
X4.275Y-3.45
X4.275Y-3.55
X4.275Y-3.65
X6.575Y-5.05
X6.575Y-5.15
X6.575Y-5.25
X6.575Y-5.35
X6.475Y-3.95
X6.475Y-4.05
X5.575Y-2.35
X5.575Y-2.45
X5.575Y-2.55
X5.575Y-2.65
X5.575Y-2.75
X5.575Y-2.85
X5.575Y-2.95
X5.575Y-3.05
X5.575Y-3.15
X5.575Y-3.25
X5.575Y-3.35
X5.575Y-3.45
X5.575Y-3.55
X5.575Y-3.65
X5.575Y-4.35
X5.575Y-4.45
X5.575Y-4.55
X5.575Y-4.65
X5.575Y-4.75
X5.575Y-4.85
X5.575Y-4.95
X5.575Y-5.05
X5.575Y-5.15
X5.575Y-5.25
X5.575Y-5.35
X5.575Y-5.45
X5.575Y-5.55
X5.575Y-5.65
X6.475Y-4.35
X6.475Y-4.45
X6.475Y-4.55
X6.475Y-4.65
X6.475Y-4.75
X6.475Y-4.85
X6.475Y-4.95
X6.475Y-5.05
X6.475Y-5.15
X6.475Y-5.25
X6.475Y-5.35
X6.475Y-5.45
X6.475Y-5.55
X6.475Y-5.65
X5.475Y-2.65
X5.475Y-2.75
X5.475Y-2.85
X5.475Y-2.95
T3
X4.425Y-2.35
X5.025Y-5.65
X5.725Y-2.35
X6.325Y-5.65
T4
X4.425Y-2.45
X4.425Y-2.55
X4.425Y-2.65
X4.425Y-2.75
X4.425Y-2.85
X4.425Y-2.95
X4.425Y-3.05
X4.425Y-3.15
X4.425Y-3.25
X4.425Y-3.35
X4.425Y-3.45
X4.425Y-3.55
X4.425Y-3.65
X4.525Y-3.65
X4.625Y-3.65
X4.725Y-3.65
X4.825Y-3.65
X4.925Y-3.65
X5.025Y-2.35
X5.025Y-2.45
X5.025Y-2.55
X5.025Y-2.65
X5.025Y-2.75
X5.025Y-2.85
X5.025Y-2.95
X5.025Y-3.05
X5.025Y-3.15
X5.025Y-3.25
X5.025Y-3.35
X5.025Y-3.45
X5.025Y-3.55
X5.025Y-3.65
X4.425Y-4.35
X4.425Y-4.45
X4.425Y-4.55
X4.425Y-4.65
X4.425Y-4.75
X4.425Y-4.85
X4.425Y-4.95
X4.425Y-5.05
X4.425Y-5.15
X4.425Y-5.25
X4.425Y-5.35
X4.425Y-5.45
X4.425Y-5.55
X4.425Y-5.65
X4.525Y-4.35
X4.625Y-4.35
X4.725Y-4.35
X4.825Y-4.35
X4.925Y-4.35
X5.025Y-4.35
X5.025Y-4.45
X5.025Y-4.55
X5.025Y-4.65
X5.025Y-4.75
X5.025Y-4.85
X5.025Y-4.95
X5.025Y-5.05
X5.025Y-5.15
X5.025Y-5.25
X5.025Y-5.35
X5.025Y-5.45
X5.025Y-5.55
X5.725Y-2.45
X5.725Y-2.55
X5.725Y-2.65
X5.725Y-2.75
X5.725Y-2.85
X5.725Y-2.95
X5.725Y-3.05
X5.725Y-3.15
X5.725Y-3.25
X5.725Y-3.35
X5.725Y-3.45
X5.725Y-3.55
X5.725Y-3.65
X5.825Y-3.65
X5.925Y-3.65
X6.025Y-3.65
X6.125Y-3.65
X6.225Y-3.65
X6.325Y-2.35
X6.325Y-2.45
X6.325Y-2.55
X6.325Y-2.65
X6.325Y-2.75
X6.325Y-2.85
X6.325Y-2.95
X6.325Y-3.05
X6.325Y-3.15
X6.325Y-3.25
X6.325Y-3.35
X6.325Y-3.45
X6.325Y-3.55
X6.325Y-3.65
X5.725Y-4.35
X5.725Y-4.45
X5.725Y-4.55
X5.725Y-4.65
X5.725Y-4.75
X5.725Y-4.85
X5.725Y-4.95
X5.725Y-5.05
X5.725Y-5.15
X5.725Y-5.25
X5.725Y-5.35
X5.725Y-5.45
X5.725Y-5.55
X5.725Y-5.65
X5.825Y-4.35
X5.925Y-4.35
X6.025Y-4.35
X6.125Y-4.35
X6.225Y-4.35
X6.325Y-4.35
X6.325Y-4.45
X6.325Y-4.55
X6.325Y-4.65
X6.325Y-4.75
X6.325Y-4.85
X6.325Y-4.95
X6.325Y-5.05
X6.325Y-5.15
X6.325Y-5.25
X6.325Y-5.35
X6.325Y-5.45
X6.325Y-5.55
T0
M30
