G04 #@! TF.GenerationSoftware,KiCad,Pcbnew,(5.1.7-0-10_14)*
G04 #@! TF.CreationDate,2020-11-01T15:18:42-08:00*
G04 #@! TF.ProjectId,TeensyPCB_oshpark,5465656e-7379-4504-9342-5f6f73687061,rev?*
G04 #@! TF.SameCoordinates,Original*
G04 #@! TF.FileFunction,Soldermask,Bot*
G04 #@! TF.FilePolarity,Negative*
%FSLAX46Y46*%
G04 Gerber Fmt 4.6, Leading zero omitted, Abs format (unit mm)*
G04 Created by KiCad (PCBNEW (5.1.7-0-10_14)) date 2020-11-01 15:18:42*
%MOMM*%
%LPD*%
G01*
G04 APERTURE LIST*
%ADD10C,0.010000*%
%ADD11C,1.801600*%
%ADD12C,3.101599*%
%ADD13O,1.801600X1.801600*%
G04 APERTURE END LIST*
D10*
G36*
X136520906Y-96164448D02*
G01*
X136654130Y-96164459D01*
X136775255Y-96164484D01*
X136884882Y-96164528D01*
X136983612Y-96164600D01*
X137072046Y-96164705D01*
X137150784Y-96164850D01*
X137220428Y-96165043D01*
X137281578Y-96165289D01*
X137334835Y-96165595D01*
X137380801Y-96165969D01*
X137420076Y-96166416D01*
X137453261Y-96166944D01*
X137480957Y-96167559D01*
X137503765Y-96168268D01*
X137522286Y-96169077D01*
X137537121Y-96169994D01*
X137548870Y-96171025D01*
X137558135Y-96172177D01*
X137565517Y-96173456D01*
X137571616Y-96174869D01*
X137576402Y-96176230D01*
X137634115Y-96200238D01*
X137685675Y-96234669D01*
X137729727Y-96278186D01*
X137764917Y-96329453D01*
X137789735Y-96386650D01*
X137793674Y-96399988D01*
X137796854Y-96414108D01*
X137799406Y-96430690D01*
X137801459Y-96451411D01*
X137803144Y-96477951D01*
X137804589Y-96511989D01*
X137805925Y-96555202D01*
X137807282Y-96609270D01*
X137807421Y-96615250D01*
X137808747Y-96669687D01*
X137809999Y-96713057D01*
X137811311Y-96746993D01*
X137812819Y-96773126D01*
X137814656Y-96793087D01*
X137816957Y-96808509D01*
X137819856Y-96821024D01*
X137823489Y-96832262D01*
X137825821Y-96838419D01*
X137847286Y-96882610D01*
X137874121Y-96917073D01*
X137908352Y-96943656D01*
X137952006Y-96964204D01*
X137971137Y-96970704D01*
X138092317Y-97010994D01*
X138220462Y-97058101D01*
X138352677Y-97110833D01*
X138486071Y-97167995D01*
X138617750Y-97228398D01*
X138731581Y-97284128D01*
X138770396Y-97303691D01*
X138799952Y-97318252D01*
X138822318Y-97328552D01*
X138839564Y-97335330D01*
X138853759Y-97339326D01*
X138866973Y-97341277D01*
X138881276Y-97341926D01*
X138893550Y-97342000D01*
X138926202Y-97340592D01*
X138950042Y-97335847D01*
X138963400Y-97330221D01*
X138973430Y-97322861D01*
X138991121Y-97307734D01*
X139015154Y-97286056D01*
X139044212Y-97259043D01*
X139076976Y-97227909D01*
X139112128Y-97193870D01*
X139125325Y-97180932D01*
X139165979Y-97141088D01*
X139199002Y-97109163D01*
X139225692Y-97084040D01*
X139247345Y-97064606D01*
X139265257Y-97049745D01*
X139280727Y-97038343D01*
X139295050Y-97029284D01*
X139309524Y-97021454D01*
X139312650Y-97019888D01*
X139373231Y-96996360D01*
X139434388Y-96985515D01*
X139496020Y-96987355D01*
X139558028Y-97001882D01*
X139592832Y-97015538D01*
X139599118Y-97018427D01*
X139605358Y-97021579D01*
X139611992Y-97025420D01*
X139619459Y-97030373D01*
X139628201Y-97036863D01*
X139638659Y-97045315D01*
X139651272Y-97056153D01*
X139666481Y-97069801D01*
X139684727Y-97086684D01*
X139706450Y-97107226D01*
X139732092Y-97131852D01*
X139762091Y-97160985D01*
X139796890Y-97195052D01*
X139836928Y-97234476D01*
X139882646Y-97279681D01*
X139934484Y-97331092D01*
X139992883Y-97389133D01*
X140058284Y-97454229D01*
X140131128Y-97526805D01*
X140211853Y-97607284D01*
X140300902Y-97696092D01*
X140350007Y-97745070D01*
X140453389Y-97848268D01*
X140549534Y-97944414D01*
X140638289Y-98033350D01*
X140719498Y-98114920D01*
X140793008Y-98188967D01*
X140858665Y-98255334D01*
X140916312Y-98313865D01*
X140965797Y-98364402D01*
X141006965Y-98406789D01*
X141039661Y-98440870D01*
X141063731Y-98466487D01*
X141079020Y-98483484D01*
X141084811Y-98490749D01*
X141108985Y-98531212D01*
X141124838Y-98568180D01*
X141133792Y-98606306D01*
X141137268Y-98650245D01*
X141137449Y-98663125D01*
X141136818Y-98698719D01*
X141134067Y-98730236D01*
X141128382Y-98759099D01*
X141118943Y-98786729D01*
X141104933Y-98814550D01*
X141085537Y-98843983D01*
X141059935Y-98876451D01*
X141027312Y-98913376D01*
X140986849Y-98956182D01*
X140943826Y-99000129D01*
X140901521Y-99043176D01*
X140867447Y-99078668D01*
X140840714Y-99107891D01*
X140820436Y-99132130D01*
X140805723Y-99152670D01*
X140795688Y-99170794D01*
X140789441Y-99187790D01*
X140786094Y-99204940D01*
X140784760Y-99223531D01*
X140784606Y-99230412D01*
X140784783Y-99247520D01*
X140786259Y-99263478D01*
X140789678Y-99280043D01*
X140795683Y-99298971D01*
X140804917Y-99322020D01*
X140818022Y-99350947D01*
X140835641Y-99387507D01*
X140858417Y-99433458D01*
X140860276Y-99437182D01*
X140943846Y-99612348D01*
X141018546Y-99785980D01*
X141086424Y-99963033D01*
X141131653Y-100093694D01*
X141148420Y-100143329D01*
X141162642Y-100182514D01*
X141175398Y-100212969D01*
X141187767Y-100236416D01*
X141200828Y-100254576D01*
X141215661Y-100269171D01*
X141233343Y-100281921D01*
X141254955Y-100294549D01*
X141258925Y-100296713D01*
X141290675Y-100313921D01*
X141493875Y-100317908D01*
X141553024Y-100319173D01*
X141600945Y-100320466D01*
X141639105Y-100321881D01*
X141668976Y-100323510D01*
X141692027Y-100325446D01*
X141709728Y-100327782D01*
X141723550Y-100330609D01*
X141731535Y-100332877D01*
X141791092Y-100358266D01*
X141843440Y-100393757D01*
X141887696Y-100438440D01*
X141922974Y-100491405D01*
X141948389Y-100551739D01*
X141950361Y-100558165D01*
X141951714Y-100563601D01*
X141952944Y-100570757D01*
X141954057Y-100580225D01*
X141955058Y-100592598D01*
X141955952Y-100608467D01*
X141956747Y-100628424D01*
X141957447Y-100653063D01*
X141958059Y-100682974D01*
X141958587Y-100718751D01*
X141959039Y-100760986D01*
X141959420Y-100810270D01*
X141959735Y-100867197D01*
X141959990Y-100932357D01*
X141960192Y-101006344D01*
X141960346Y-101089750D01*
X141960457Y-101183167D01*
X141960533Y-101287187D01*
X141960577Y-101402402D01*
X141960597Y-101529406D01*
X141960600Y-101603175D01*
X141960591Y-101736796D01*
X141960560Y-101858310D01*
X141960502Y-101968308D01*
X141960411Y-102067383D01*
X141960281Y-102156127D01*
X141960106Y-102235131D01*
X141959880Y-102304990D01*
X141959598Y-102366294D01*
X141959253Y-102419635D01*
X141958841Y-102465607D01*
X141958354Y-102504801D01*
X141957788Y-102537810D01*
X141957137Y-102565225D01*
X141956394Y-102587640D01*
X141955554Y-102605645D01*
X141954611Y-102619834D01*
X141953560Y-102630799D01*
X141952394Y-102639131D01*
X141951108Y-102645424D01*
X141950361Y-102648184D01*
X141925833Y-102710147D01*
X141891587Y-102763986D01*
X141847917Y-102809388D01*
X141795120Y-102846040D01*
X141739630Y-102871438D01*
X141728800Y-102875084D01*
X141717285Y-102878055D01*
X141703585Y-102880455D01*
X141686200Y-102882387D01*
X141663632Y-102883956D01*
X141634381Y-102885264D01*
X141596948Y-102886417D01*
X141549834Y-102887518D01*
X141491540Y-102888671D01*
X141490700Y-102888686D01*
X141431091Y-102889853D01*
X141382726Y-102891004D01*
X141344151Y-102892327D01*
X141313913Y-102894008D01*
X141290557Y-102896234D01*
X141272629Y-102899195D01*
X141258675Y-102903075D01*
X141247240Y-102908064D01*
X141236872Y-102914347D01*
X141226115Y-102922113D01*
X141225063Y-102922903D01*
X141210723Y-102934808D01*
X141198294Y-102948251D01*
X141186897Y-102964966D01*
X141175649Y-102986686D01*
X141163671Y-103015144D01*
X141150080Y-103052074D01*
X141133997Y-103099210D01*
X141131243Y-103107482D01*
X141069641Y-103283181D01*
X141003270Y-103452857D01*
X140930300Y-103620941D01*
X140848899Y-103791865D01*
X140846299Y-103797100D01*
X140784732Y-103920925D01*
X140787106Y-103968550D01*
X140790887Y-104003637D01*
X140797978Y-104032549D01*
X140801635Y-104041575D01*
X140809566Y-104053271D01*
X140825578Y-104072749D01*
X140848672Y-104098906D01*
X140877855Y-104130640D01*
X140912131Y-104166847D01*
X140950503Y-104206426D01*
X140950746Y-104206675D01*
X140994415Y-104251528D01*
X141029969Y-104288946D01*
X141058438Y-104320304D01*
X141080849Y-104346981D01*
X141098232Y-104370355D01*
X141111616Y-104391805D01*
X141122028Y-104412706D01*
X141130498Y-104434439D01*
X141137669Y-104457065D01*
X141144949Y-104494971D01*
X141147353Y-104538668D01*
X141144833Y-104582197D01*
X141138972Y-104613910D01*
X141136124Y-104624842D01*
X141133444Y-104634884D01*
X141130519Y-104644482D01*
X141126936Y-104654084D01*
X141122285Y-104664134D01*
X141116152Y-104675080D01*
X141108126Y-104687367D01*
X141097793Y-104701441D01*
X141084744Y-104717750D01*
X141068564Y-104736738D01*
X141048842Y-104758853D01*
X141025165Y-104784541D01*
X140997122Y-104814247D01*
X140964301Y-104848418D01*
X140926288Y-104887500D01*
X140882673Y-104931940D01*
X140833043Y-104982183D01*
X140776985Y-105038676D01*
X140714087Y-105101864D01*
X140643939Y-105172195D01*
X140566126Y-105250115D01*
X140480237Y-105336069D01*
X140385861Y-105430504D01*
X140370435Y-105445941D01*
X140275499Y-105540924D01*
X140189099Y-105627320D01*
X140110809Y-105705543D01*
X140040205Y-105776007D01*
X139976861Y-105839125D01*
X139920354Y-105895311D01*
X139870259Y-105944980D01*
X139826151Y-105988544D01*
X139787605Y-106026417D01*
X139754197Y-106059014D01*
X139725502Y-106086748D01*
X139701095Y-106110033D01*
X139680552Y-106129283D01*
X139663447Y-106144910D01*
X139649357Y-106157331D01*
X139637857Y-106166957D01*
X139628521Y-106174202D01*
X139620926Y-106179482D01*
X139614646Y-106183208D01*
X139612731Y-106184197D01*
X139551283Y-106208866D01*
X139491009Y-106221067D01*
X139431190Y-106220893D01*
X139386591Y-106212799D01*
X139361817Y-106205639D01*
X139338791Y-106196871D01*
X139316147Y-106185493D01*
X139292520Y-106170501D01*
X139266545Y-106150892D01*
X139236859Y-106125664D01*
X139202095Y-106093814D01*
X139160889Y-106054337D01*
X139130509Y-106024610D01*
X139087277Y-105982282D01*
X139051635Y-105948125D01*
X139022259Y-105921265D01*
X138997822Y-105900828D01*
X138977001Y-105885940D01*
X138958469Y-105875728D01*
X138940902Y-105869317D01*
X138922974Y-105865834D01*
X138903361Y-105864405D01*
X138887200Y-105864156D01*
X138839575Y-105864025D01*
X138674475Y-105944412D01*
X138592197Y-105984129D01*
X138518649Y-106018787D01*
X138451402Y-106049390D01*
X138388024Y-106076940D01*
X138326087Y-106102443D01*
X138263161Y-106126899D01*
X138196814Y-106151315D01*
X138124619Y-106176691D01*
X138052686Y-106201164D01*
X138011361Y-106215423D01*
X137972773Y-106229421D01*
X137939015Y-106242343D01*
X137912178Y-106253377D01*
X137894355Y-106261711D01*
X137889697Y-106264458D01*
X137873311Y-106280228D01*
X137855522Y-106304306D01*
X137838634Y-106332853D01*
X137824951Y-106362030D01*
X137817499Y-106384725D01*
X137816170Y-106395813D01*
X137814633Y-106417814D01*
X137812973Y-106448944D01*
X137811274Y-106487419D01*
X137809620Y-106531456D01*
X137808096Y-106579270D01*
X137807759Y-106591100D01*
X137805871Y-106652074D01*
X137803891Y-106701480D01*
X137801741Y-106740449D01*
X137799345Y-106770115D01*
X137796625Y-106791607D01*
X137793504Y-106806059D01*
X137793016Y-106807631D01*
X137768280Y-106866163D01*
X137734258Y-106917173D01*
X137709917Y-106944058D01*
X137682195Y-106969623D01*
X137654590Y-106989730D01*
X137623024Y-107006918D01*
X137583420Y-107023722D01*
X137579405Y-107025270D01*
X137544175Y-107038775D01*
X136547225Y-107039633D01*
X136434991Y-107039695D01*
X136325792Y-107039689D01*
X136220345Y-107039617D01*
X136119366Y-107039482D01*
X136023571Y-107039288D01*
X135933676Y-107039038D01*
X135850398Y-107038735D01*
X135774454Y-107038382D01*
X135706559Y-107037982D01*
X135647430Y-107037538D01*
X135597784Y-107037054D01*
X135558336Y-107036532D01*
X135529804Y-107035976D01*
X135512903Y-107035389D01*
X135509077Y-107035090D01*
X135460777Y-107023144D01*
X135411938Y-107001012D01*
X135365444Y-106970740D01*
X135324177Y-106934372D01*
X135291017Y-106893955D01*
X135277158Y-106870500D01*
X135267656Y-106851008D01*
X135259963Y-106832737D01*
X135253837Y-106814000D01*
X135249041Y-106793106D01*
X135245333Y-106768368D01*
X135242474Y-106738095D01*
X135240225Y-106700600D01*
X135238346Y-106654193D01*
X135236597Y-106597185D01*
X135236166Y-106581575D01*
X135234288Y-106519629D01*
X135232196Y-106468855D01*
X135229635Y-106427721D01*
X135226351Y-106394700D01*
X135222091Y-106368261D01*
X135216601Y-106346875D01*
X135209626Y-106329013D01*
X135200914Y-106313146D01*
X135190209Y-106297744D01*
X135188708Y-106295762D01*
X135178705Y-106283944D01*
X135167043Y-106273401D01*
X135152158Y-106263377D01*
X135132487Y-106253110D01*
X135106465Y-106241843D01*
X135072528Y-106228815D01*
X135029113Y-106213267D01*
X134992943Y-106200718D01*
X134911495Y-106172364D01*
X134838877Y-106146290D01*
X134772547Y-106121441D01*
X134709960Y-106096759D01*
X134648573Y-106071190D01*
X134585843Y-106043679D01*
X134519225Y-106013169D01*
X134446177Y-105978606D01*
X134375664Y-105944537D01*
X134327261Y-105921066D01*
X134288663Y-105902615D01*
X134258302Y-105888561D01*
X134234606Y-105878276D01*
X134216007Y-105871137D01*
X134200935Y-105866517D01*
X134187820Y-105863791D01*
X134175092Y-105862333D01*
X134168190Y-105861874D01*
X134147052Y-105861283D01*
X134128038Y-105862619D01*
X134109894Y-105866706D01*
X134091365Y-105874370D01*
X134071196Y-105886438D01*
X134048134Y-105903734D01*
X134020924Y-105927085D01*
X133988312Y-105957317D01*
X133949044Y-105995255D01*
X133915537Y-106028209D01*
X133870630Y-106072226D01*
X133833136Y-106108055D01*
X133801717Y-106136713D01*
X133775036Y-106159215D01*
X133751755Y-106176579D01*
X133730536Y-106189821D01*
X133710043Y-106199957D01*
X133688937Y-106208003D01*
X133672087Y-106213225D01*
X133638732Y-106219828D01*
X133599195Y-106223130D01*
X133558733Y-106223030D01*
X133522606Y-106219428D01*
X133508115Y-106216363D01*
X133488312Y-106209646D01*
X133462760Y-106199048D01*
X133436838Y-106186807D01*
X133435725Y-106186241D01*
X133429394Y-106182785D01*
X133422404Y-106178408D01*
X133414321Y-106172686D01*
X133404708Y-106165198D01*
X133393129Y-106155520D01*
X133379151Y-106143229D01*
X133362336Y-106127903D01*
X133342249Y-106109119D01*
X133318455Y-106086454D01*
X133290519Y-106059485D01*
X133258004Y-106027789D01*
X133220475Y-105990944D01*
X133177497Y-105948527D01*
X133128635Y-105900115D01*
X133073452Y-105845285D01*
X133011513Y-105783614D01*
X132942383Y-105714680D01*
X132865626Y-105638059D01*
X132780806Y-105553329D01*
X132687489Y-105460067D01*
X132679235Y-105451817D01*
X132583557Y-105356187D01*
X132496435Y-105269101D01*
X132417454Y-105190108D01*
X132346203Y-105118760D01*
X132282267Y-105054606D01*
X132225234Y-104997198D01*
X132174691Y-104946086D01*
X132130225Y-104900821D01*
X132091423Y-104860952D01*
X132057872Y-104826032D01*
X132033313Y-104800011D01*
X133883400Y-104800011D01*
X133888454Y-104807070D01*
X133902826Y-104820396D01*
X133925328Y-104839117D01*
X133954773Y-104862361D01*
X133989975Y-104889256D01*
X134029745Y-104918933D01*
X134072897Y-104950518D01*
X134118244Y-104983141D01*
X134164598Y-105015930D01*
X134210773Y-105048015D01*
X134255581Y-105078522D01*
X134297835Y-105106582D01*
X134324725Y-105123961D01*
X134521998Y-105242563D01*
X134723223Y-105349349D01*
X134928110Y-105444217D01*
X135136372Y-105527067D01*
X135347722Y-105597799D01*
X135561870Y-105656311D01*
X135778530Y-105702504D01*
X135997413Y-105736277D01*
X136115425Y-105749220D01*
X136152963Y-105752734D01*
X136185301Y-105755640D01*
X136214126Y-105757987D01*
X136241130Y-105759824D01*
X136268001Y-105761202D01*
X136296429Y-105762169D01*
X136328104Y-105762774D01*
X136364715Y-105763068D01*
X136407953Y-105763100D01*
X136459506Y-105762919D01*
X136521065Y-105762574D01*
X136563100Y-105762311D01*
X136631817Y-105761804D01*
X136689839Y-105761168D01*
X136739168Y-105760314D01*
X136781809Y-105759156D01*
X136819766Y-105757605D01*
X136855041Y-105755574D01*
X136889640Y-105752974D01*
X136925565Y-105749718D01*
X136964821Y-105745718D01*
X136980843Y-105744005D01*
X137204561Y-105714435D01*
X137421131Y-105674669D01*
X137631304Y-105624452D01*
X137835834Y-105563530D01*
X138035473Y-105491651D01*
X138230975Y-105408559D01*
X138423090Y-105314001D01*
X138612573Y-105207724D01*
X138664950Y-105176022D01*
X138726182Y-105137712D01*
X138784569Y-105099716D01*
X138841848Y-105060771D01*
X138899756Y-105019615D01*
X138960031Y-104974986D01*
X139024410Y-104925622D01*
X139094630Y-104870261D01*
X139172428Y-104807642D01*
X139175310Y-104805303D01*
X139175995Y-104804398D01*
X139175522Y-104803544D01*
X139173535Y-104802740D01*
X139169680Y-104801983D01*
X139163600Y-104801273D01*
X139154941Y-104800608D01*
X139143349Y-104799986D01*
X139128467Y-104799407D01*
X139109942Y-104798868D01*
X139087418Y-104798368D01*
X139060539Y-104797905D01*
X139028952Y-104797478D01*
X138992301Y-104797087D01*
X138950231Y-104796728D01*
X138902387Y-104796400D01*
X138848414Y-104796103D01*
X138787956Y-104795834D01*
X138720660Y-104795592D01*
X138646170Y-104795376D01*
X138564131Y-104795184D01*
X138474188Y-104795015D01*
X138375985Y-104794866D01*
X138269169Y-104794737D01*
X138153383Y-104794627D01*
X138028274Y-104794532D01*
X137893485Y-104794453D01*
X137748662Y-104794388D01*
X137593451Y-104794335D01*
X137427495Y-104794292D01*
X137250439Y-104794258D01*
X137061930Y-104794232D01*
X136861612Y-104794212D01*
X136649129Y-104794197D01*
X136536112Y-104794191D01*
X136313055Y-104794193D01*
X136098372Y-104794224D01*
X135892269Y-104794283D01*
X135694955Y-104794369D01*
X135506639Y-104794483D01*
X135327529Y-104794623D01*
X135157833Y-104794790D01*
X134997759Y-104794982D01*
X134847516Y-104795200D01*
X134707312Y-104795442D01*
X134577356Y-104795709D01*
X134457854Y-104796000D01*
X134349017Y-104796314D01*
X134251052Y-104796652D01*
X134164167Y-104797012D01*
X134088571Y-104797394D01*
X134024471Y-104797798D01*
X133972077Y-104798223D01*
X133931596Y-104798668D01*
X133903237Y-104799134D01*
X133887209Y-104799620D01*
X133883400Y-104800011D01*
X132033313Y-104800011D01*
X132029159Y-104795610D01*
X132004870Y-104769236D01*
X131984594Y-104746463D01*
X131967916Y-104726839D01*
X131954424Y-104709916D01*
X131943705Y-104695244D01*
X131935346Y-104682374D01*
X131928934Y-104670857D01*
X131924056Y-104660243D01*
X131920298Y-104650082D01*
X131917248Y-104639925D01*
X131914493Y-104629323D01*
X131911620Y-104617827D01*
X131911162Y-104616032D01*
X131904420Y-104573883D01*
X131903487Y-104526840D01*
X131908105Y-104480123D01*
X131918012Y-104438949D01*
X131920283Y-104432669D01*
X131929312Y-104411444D01*
X131940269Y-104390615D01*
X131950303Y-104374950D01*
X133450532Y-104374950D01*
X133469852Y-104398762D01*
X133481118Y-104411808D01*
X133499102Y-104431664D01*
X133521682Y-104456027D01*
X133546733Y-104482591D01*
X133557698Y-104494077D01*
X133626225Y-104565580D01*
X139449175Y-104565568D01*
X139515850Y-104497104D01*
X139541361Y-104470561D01*
X139565510Y-104444814D01*
X139586017Y-104422334D01*
X139600604Y-104405593D01*
X139603696Y-104401794D01*
X139624867Y-104374949D01*
X136537700Y-104374950D01*
X133450532Y-104374950D01*
X131950303Y-104374950D01*
X131954184Y-104368892D01*
X131972090Y-104344984D01*
X131995018Y-104317601D01*
X132023999Y-104285453D01*
X132060065Y-104247249D01*
X132104247Y-104201699D01*
X132107830Y-104198040D01*
X132145337Y-104159642D01*
X132174939Y-104128980D01*
X132197691Y-104104788D01*
X132214646Y-104085800D01*
X132226859Y-104070751D01*
X132235384Y-104058376D01*
X132241275Y-104047408D01*
X132245586Y-104036583D01*
X132247699Y-104030124D01*
X132256372Y-103986303D01*
X132256696Y-103950749D01*
X132255567Y-103937331D01*
X132253418Y-103924178D01*
X132249626Y-103909684D01*
X132243567Y-103892245D01*
X132234618Y-103870257D01*
X132222156Y-103842116D01*
X132205557Y-103806216D01*
X132184196Y-103760954D01*
X132177237Y-103746300D01*
X132130072Y-103645667D01*
X132088230Y-103553180D01*
X132050575Y-103466047D01*
X132015969Y-103381479D01*
X131983274Y-103296688D01*
X131951355Y-103208884D01*
X131919072Y-103115277D01*
X131914941Y-103102988D01*
X131900619Y-103060797D01*
X131889177Y-103028691D01*
X131879698Y-103004638D01*
X131871268Y-102986605D01*
X131862971Y-102972557D01*
X131853891Y-102960461D01*
X131847458Y-102953038D01*
X131821977Y-102929592D01*
X131793467Y-102910866D01*
X131786499Y-102907451D01*
X131776919Y-102903329D01*
X131767467Y-102900003D01*
X131756651Y-102897360D01*
X131742984Y-102895285D01*
X131724973Y-102893664D01*
X131701131Y-102892383D01*
X131669966Y-102891327D01*
X131629989Y-102890383D01*
X131579710Y-102889436D01*
X131543425Y-102888809D01*
X131483605Y-102887754D01*
X131434883Y-102886678D01*
X131395657Y-102885343D01*
X131364326Y-102883513D01*
X131339288Y-102880952D01*
X131318943Y-102877421D01*
X131301689Y-102872685D01*
X131285925Y-102866507D01*
X131270051Y-102858651D01*
X131252464Y-102848879D01*
X131245181Y-102844717D01*
X131216789Y-102824841D01*
X131186500Y-102797739D01*
X131158359Y-102767409D01*
X131136408Y-102737852D01*
X131135277Y-102736028D01*
X131125682Y-102717948D01*
X131114538Y-102693499D01*
X131105353Y-102670795D01*
X131089399Y-102628410D01*
X131089468Y-101607792D01*
X131089468Y-101606350D01*
X132421095Y-101606350D01*
X132422132Y-101723157D01*
X132424988Y-101830178D01*
X132429865Y-101930224D01*
X132436967Y-102026103D01*
X132446495Y-102120628D01*
X132458652Y-102216607D01*
X132471105Y-102300805D01*
X132504753Y-102489872D01*
X132545587Y-102671263D01*
X132594442Y-102847746D01*
X132652150Y-103022093D01*
X132719544Y-103197071D01*
X132788436Y-103355775D01*
X132809367Y-103400597D01*
X132832782Y-103448861D01*
X132857906Y-103499134D01*
X132883968Y-103549982D01*
X132910192Y-103599971D01*
X132935807Y-103647669D01*
X132960039Y-103691640D01*
X132982114Y-103730453D01*
X133001259Y-103762674D01*
X133016701Y-103786869D01*
X133027666Y-103801604D01*
X133030458Y-103804392D01*
X133032788Y-103805397D01*
X133037493Y-103806356D01*
X133044858Y-103807272D01*
X133055166Y-103808146D01*
X133068702Y-103808978D01*
X133085749Y-103809770D01*
X133106593Y-103810524D01*
X133131516Y-103811239D01*
X133160803Y-103811919D01*
X133194738Y-103812562D01*
X133233606Y-103813172D01*
X133277691Y-103813749D01*
X133327276Y-103814294D01*
X133382645Y-103814809D01*
X133444084Y-103815294D01*
X133511875Y-103815751D01*
X133586304Y-103816181D01*
X133667654Y-103816585D01*
X133756210Y-103816965D01*
X133852255Y-103817321D01*
X133956073Y-103817655D01*
X134067950Y-103817968D01*
X134188168Y-103818261D01*
X134317012Y-103818536D01*
X134454767Y-103818793D01*
X134601716Y-103819034D01*
X134758144Y-103819259D01*
X134924334Y-103819471D01*
X135100570Y-103819670D01*
X135287138Y-103819857D01*
X135484321Y-103820034D01*
X135692403Y-103820202D01*
X135911668Y-103820362D01*
X136142400Y-103820516D01*
X136384884Y-103820663D01*
X136639404Y-103820806D01*
X136906243Y-103820946D01*
X136999308Y-103820993D01*
X140023141Y-103822500D01*
X140038987Y-103808212D01*
X140049724Y-103795370D01*
X140065157Y-103772461D01*
X140084537Y-103740890D01*
X140107115Y-103702063D01*
X140132140Y-103657386D01*
X140158864Y-103608265D01*
X140186538Y-103556106D01*
X140214412Y-103502314D01*
X140241737Y-103448296D01*
X140267764Y-103395458D01*
X140291743Y-103345205D01*
X140312925Y-103298942D01*
X140324429Y-103272636D01*
X140373070Y-103152030D01*
X140419746Y-103022934D01*
X140463611Y-102888303D01*
X140503816Y-102751090D01*
X140539514Y-102614250D01*
X140569856Y-102480737D01*
X140593995Y-102353506D01*
X140601274Y-102308025D01*
X140617636Y-102193333D01*
X140630509Y-102087790D01*
X140640105Y-101988395D01*
X140646636Y-101892146D01*
X140650314Y-101796043D01*
X140651352Y-101697086D01*
X140650401Y-101612700D01*
X140646035Y-101471575D01*
X140638485Y-101338923D01*
X140627399Y-101210834D01*
X140612427Y-101083403D01*
X140593217Y-100952719D01*
X140588483Y-100923725D01*
X140549848Y-100726644D01*
X140499381Y-100528314D01*
X140437671Y-100330144D01*
X140365306Y-100133541D01*
X140282874Y-99939913D01*
X140190961Y-99750670D01*
X140090157Y-99567218D01*
X139981049Y-99390967D01*
X139898018Y-99269788D01*
X139760725Y-99088308D01*
X139614557Y-98915249D01*
X139459981Y-98750936D01*
X139297462Y-98595697D01*
X139127465Y-98449860D01*
X138950458Y-98313751D01*
X138766904Y-98187697D01*
X138577270Y-98072026D01*
X138382022Y-97967064D01*
X138181626Y-97873139D01*
X137976547Y-97790578D01*
X137767251Y-97719708D01*
X137637570Y-97682320D01*
X137519342Y-97651462D01*
X137410134Y-97625213D01*
X137307313Y-97603135D01*
X137208246Y-97584788D01*
X137110300Y-97569735D01*
X137010841Y-97557536D01*
X136907237Y-97547753D01*
X136796854Y-97539947D01*
X136775576Y-97538690D01*
X136682920Y-97534201D01*
X136594718Y-97531786D01*
X136507741Y-97531482D01*
X136418757Y-97533327D01*
X136324538Y-97537358D01*
X136221852Y-97543615D01*
X136194800Y-97545509D01*
X136134659Y-97550098D01*
X136079761Y-97554998D01*
X136027905Y-97560535D01*
X135976892Y-97567037D01*
X135924520Y-97574831D01*
X135868590Y-97584245D01*
X135806901Y-97595606D01*
X135737254Y-97609241D01*
X135657507Y-97625467D01*
X135446973Y-97675293D01*
X135238496Y-97737455D01*
X135032656Y-97811674D01*
X134830034Y-97897672D01*
X134631211Y-97995170D01*
X134436769Y-98103890D01*
X134247287Y-98223553D01*
X134063348Y-98353882D01*
X133943725Y-98446847D01*
X133772428Y-98593003D01*
X133609908Y-98748111D01*
X133456452Y-98911680D01*
X133312347Y-99083217D01*
X133177879Y-99262231D01*
X133053335Y-99448229D01*
X132939002Y-99640718D01*
X132835166Y-99839208D01*
X132742114Y-100043205D01*
X132660133Y-100252219D01*
X132589508Y-100465756D01*
X132530528Y-100683325D01*
X132483478Y-100904433D01*
X132471210Y-100974525D01*
X132454059Y-101086095D01*
X132440837Y-101191906D01*
X132431242Y-101295767D01*
X132424972Y-101401487D01*
X132421724Y-101512875D01*
X132421095Y-101606350D01*
X131089468Y-101606350D01*
X131089468Y-101473036D01*
X131089460Y-101350376D01*
X131089466Y-101239206D01*
X131089505Y-101138922D01*
X131089597Y-101048919D01*
X131089761Y-100968593D01*
X131090019Y-100897339D01*
X131090388Y-100834552D01*
X131090891Y-100779627D01*
X131091546Y-100731960D01*
X131092373Y-100690947D01*
X131093392Y-100655981D01*
X131094624Y-100626460D01*
X131096088Y-100601778D01*
X131097803Y-100581330D01*
X131099791Y-100564511D01*
X131102070Y-100550718D01*
X131104661Y-100539345D01*
X131107583Y-100529788D01*
X131110857Y-100521441D01*
X131114502Y-100513701D01*
X131118538Y-100505963D01*
X131122986Y-100497621D01*
X131126214Y-100491379D01*
X131158118Y-100440336D01*
X131197957Y-100398376D01*
X131246692Y-100364681D01*
X131305288Y-100338433D01*
X131306800Y-100337896D01*
X131320120Y-100333340D01*
X131332564Y-100329685D01*
X131345755Y-100326797D01*
X131361319Y-100324543D01*
X131380879Y-100322789D01*
X131406059Y-100321403D01*
X131438483Y-100320252D01*
X131479776Y-100319201D01*
X131531562Y-100318118D01*
X131552950Y-100317697D01*
X131752975Y-100313789D01*
X131785127Y-100296987D01*
X131815592Y-100276734D01*
X131844223Y-100250105D01*
X131866658Y-100221384D01*
X131872397Y-100211316D01*
X131878176Y-100197769D01*
X131886484Y-100175644D01*
X131896025Y-100148472D01*
X131902211Y-100129975D01*
X131972848Y-99928098D01*
X132051307Y-99729382D01*
X132136289Y-99536966D01*
X132209283Y-99387357D01*
X132260975Y-99286090D01*
X132260823Y-99234957D01*
X132259567Y-99202516D01*
X132255633Y-99179054D01*
X132248752Y-99161600D01*
X132241409Y-99151627D01*
X132226291Y-99133967D01*
X132204597Y-99109920D01*
X132177526Y-99080785D01*
X132146276Y-99047861D01*
X132112046Y-99012449D01*
X132096434Y-98996500D01*
X132054711Y-98953811D01*
X132021102Y-98918839D01*
X131994611Y-98890448D01*
X131974243Y-98867504D01*
X131959003Y-98848873D01*
X131947895Y-98833420D01*
X131939924Y-98820012D01*
X131937659Y-98815525D01*
X131917257Y-98765964D01*
X131905909Y-98719006D01*
X131902430Y-98669740D01*
X131902430Y-98669475D01*
X131904829Y-98624237D01*
X131912777Y-98584262D01*
X131927667Y-98543517D01*
X131935423Y-98526600D01*
X131938516Y-98520664D01*
X131942611Y-98513984D01*
X131948128Y-98506125D01*
X131955489Y-98496655D01*
X131965111Y-98485141D01*
X131977417Y-98471149D01*
X131992825Y-98454247D01*
X132011756Y-98434000D01*
X132034629Y-98409976D01*
X132061865Y-98381743D01*
X132093884Y-98348865D01*
X132131105Y-98310911D01*
X132173950Y-98267448D01*
X132222837Y-98218041D01*
X132278186Y-98162258D01*
X132340419Y-98099666D01*
X132409954Y-98029832D01*
X132487212Y-97952322D01*
X132572613Y-97866703D01*
X132666577Y-97772543D01*
X132666875Y-97772244D01*
X132746558Y-97692473D01*
X132824131Y-97614947D01*
X132899088Y-97540164D01*
X132970926Y-97468621D01*
X133039140Y-97400817D01*
X133103227Y-97337249D01*
X133162681Y-97278416D01*
X133216998Y-97224815D01*
X133265674Y-97176944D01*
X133308206Y-97135302D01*
X133344088Y-97100386D01*
X133372816Y-97072694D01*
X133393887Y-97052724D01*
X133406795Y-97040974D01*
X133410325Y-97038134D01*
X133452931Y-97013493D01*
X133494621Y-96997713D01*
X133539861Y-96989472D01*
X133581775Y-96987418D01*
X133617368Y-96988118D01*
X133649226Y-96991224D01*
X133678751Y-96997545D01*
X133707347Y-97007893D01*
X133736416Y-97023077D01*
X133767362Y-97043908D01*
X133801588Y-97071196D01*
X133840498Y-97105752D01*
X133885495Y-97148386D01*
X133921500Y-97183602D01*
X133959021Y-97220116D01*
X133993557Y-97252754D01*
X134023844Y-97280378D01*
X134048620Y-97301855D01*
X134066624Y-97316048D01*
X134073900Y-97320727D01*
X134091569Y-97328649D01*
X134109938Y-97333276D01*
X134133358Y-97335403D01*
X134156695Y-97335835D01*
X134210916Y-97335975D01*
X134369420Y-97258732D01*
X134457376Y-97216378D01*
X134537614Y-97178946D01*
X134613129Y-97145184D01*
X134686918Y-97113843D01*
X134761980Y-97083672D01*
X134841311Y-97053421D01*
X134927908Y-97021840D01*
X134990312Y-96999726D01*
X135038697Y-96982429D01*
X135076803Y-96967938D01*
X135106488Y-96955326D01*
X135129611Y-96943663D01*
X135148031Y-96932019D01*
X135163605Y-96919467D01*
X135176887Y-96906454D01*
X135191845Y-96888572D01*
X135204139Y-96868404D01*
X135214007Y-96844600D01*
X135221690Y-96815806D01*
X135227426Y-96780673D01*
X135231454Y-96737847D01*
X135234014Y-96685977D01*
X135235346Y-96623711D01*
X135235673Y-96574380D01*
X135236389Y-96518480D01*
X135238494Y-96472937D01*
X135242346Y-96435448D01*
X135248307Y-96403711D01*
X135256735Y-96375425D01*
X135267991Y-96348288D01*
X135272471Y-96339025D01*
X135303256Y-96290485D01*
X135343682Y-96246987D01*
X135391089Y-96210796D01*
X135442815Y-96184178D01*
X135462679Y-96177158D01*
X135468283Y-96175490D01*
X135474185Y-96173973D01*
X135480987Y-96172602D01*
X135489294Y-96171368D01*
X135499709Y-96170265D01*
X135512834Y-96169285D01*
X135529273Y-96168421D01*
X135549630Y-96167666D01*
X135574507Y-96167012D01*
X135604509Y-96166452D01*
X135640238Y-96165980D01*
X135682297Y-96165587D01*
X135731291Y-96165267D01*
X135787822Y-96165012D01*
X135852493Y-96164815D01*
X135925909Y-96164669D01*
X136008672Y-96164566D01*
X136101385Y-96164499D01*
X136204652Y-96164462D01*
X136319076Y-96164446D01*
X136445261Y-96164445D01*
X136520906Y-96164448D01*
G37*
X136520906Y-96164448D02*
X136654130Y-96164459D01*
X136775255Y-96164484D01*
X136884882Y-96164528D01*
X136983612Y-96164600D01*
X137072046Y-96164705D01*
X137150784Y-96164850D01*
X137220428Y-96165043D01*
X137281578Y-96165289D01*
X137334835Y-96165595D01*
X137380801Y-96165969D01*
X137420076Y-96166416D01*
X137453261Y-96166944D01*
X137480957Y-96167559D01*
X137503765Y-96168268D01*
X137522286Y-96169077D01*
X137537121Y-96169994D01*
X137548870Y-96171025D01*
X137558135Y-96172177D01*
X137565517Y-96173456D01*
X137571616Y-96174869D01*
X137576402Y-96176230D01*
X137634115Y-96200238D01*
X137685675Y-96234669D01*
X137729727Y-96278186D01*
X137764917Y-96329453D01*
X137789735Y-96386650D01*
X137793674Y-96399988D01*
X137796854Y-96414108D01*
X137799406Y-96430690D01*
X137801459Y-96451411D01*
X137803144Y-96477951D01*
X137804589Y-96511989D01*
X137805925Y-96555202D01*
X137807282Y-96609270D01*
X137807421Y-96615250D01*
X137808747Y-96669687D01*
X137809999Y-96713057D01*
X137811311Y-96746993D01*
X137812819Y-96773126D01*
X137814656Y-96793087D01*
X137816957Y-96808509D01*
X137819856Y-96821024D01*
X137823489Y-96832262D01*
X137825821Y-96838419D01*
X137847286Y-96882610D01*
X137874121Y-96917073D01*
X137908352Y-96943656D01*
X137952006Y-96964204D01*
X137971137Y-96970704D01*
X138092317Y-97010994D01*
X138220462Y-97058101D01*
X138352677Y-97110833D01*
X138486071Y-97167995D01*
X138617750Y-97228398D01*
X138731581Y-97284128D01*
X138770396Y-97303691D01*
X138799952Y-97318252D01*
X138822318Y-97328552D01*
X138839564Y-97335330D01*
X138853759Y-97339326D01*
X138866973Y-97341277D01*
X138881276Y-97341926D01*
X138893550Y-97342000D01*
X138926202Y-97340592D01*
X138950042Y-97335847D01*
X138963400Y-97330221D01*
X138973430Y-97322861D01*
X138991121Y-97307734D01*
X139015154Y-97286056D01*
X139044212Y-97259043D01*
X139076976Y-97227909D01*
X139112128Y-97193870D01*
X139125325Y-97180932D01*
X139165979Y-97141088D01*
X139199002Y-97109163D01*
X139225692Y-97084040D01*
X139247345Y-97064606D01*
X139265257Y-97049745D01*
X139280727Y-97038343D01*
X139295050Y-97029284D01*
X139309524Y-97021454D01*
X139312650Y-97019888D01*
X139373231Y-96996360D01*
X139434388Y-96985515D01*
X139496020Y-96987355D01*
X139558028Y-97001882D01*
X139592832Y-97015538D01*
X139599118Y-97018427D01*
X139605358Y-97021579D01*
X139611992Y-97025420D01*
X139619459Y-97030373D01*
X139628201Y-97036863D01*
X139638659Y-97045315D01*
X139651272Y-97056153D01*
X139666481Y-97069801D01*
X139684727Y-97086684D01*
X139706450Y-97107226D01*
X139732092Y-97131852D01*
X139762091Y-97160985D01*
X139796890Y-97195052D01*
X139836928Y-97234476D01*
X139882646Y-97279681D01*
X139934484Y-97331092D01*
X139992883Y-97389133D01*
X140058284Y-97454229D01*
X140131128Y-97526805D01*
X140211853Y-97607284D01*
X140300902Y-97696092D01*
X140350007Y-97745070D01*
X140453389Y-97848268D01*
X140549534Y-97944414D01*
X140638289Y-98033350D01*
X140719498Y-98114920D01*
X140793008Y-98188967D01*
X140858665Y-98255334D01*
X140916312Y-98313865D01*
X140965797Y-98364402D01*
X141006965Y-98406789D01*
X141039661Y-98440870D01*
X141063731Y-98466487D01*
X141079020Y-98483484D01*
X141084811Y-98490749D01*
X141108985Y-98531212D01*
X141124838Y-98568180D01*
X141133792Y-98606306D01*
X141137268Y-98650245D01*
X141137449Y-98663125D01*
X141136818Y-98698719D01*
X141134067Y-98730236D01*
X141128382Y-98759099D01*
X141118943Y-98786729D01*
X141104933Y-98814550D01*
X141085537Y-98843983D01*
X141059935Y-98876451D01*
X141027312Y-98913376D01*
X140986849Y-98956182D01*
X140943826Y-99000129D01*
X140901521Y-99043176D01*
X140867447Y-99078668D01*
X140840714Y-99107891D01*
X140820436Y-99132130D01*
X140805723Y-99152670D01*
X140795688Y-99170794D01*
X140789441Y-99187790D01*
X140786094Y-99204940D01*
X140784760Y-99223531D01*
X140784606Y-99230412D01*
X140784783Y-99247520D01*
X140786259Y-99263478D01*
X140789678Y-99280043D01*
X140795683Y-99298971D01*
X140804917Y-99322020D01*
X140818022Y-99350947D01*
X140835641Y-99387507D01*
X140858417Y-99433458D01*
X140860276Y-99437182D01*
X140943846Y-99612348D01*
X141018546Y-99785980D01*
X141086424Y-99963033D01*
X141131653Y-100093694D01*
X141148420Y-100143329D01*
X141162642Y-100182514D01*
X141175398Y-100212969D01*
X141187767Y-100236416D01*
X141200828Y-100254576D01*
X141215661Y-100269171D01*
X141233343Y-100281921D01*
X141254955Y-100294549D01*
X141258925Y-100296713D01*
X141290675Y-100313921D01*
X141493875Y-100317908D01*
X141553024Y-100319173D01*
X141600945Y-100320466D01*
X141639105Y-100321881D01*
X141668976Y-100323510D01*
X141692027Y-100325446D01*
X141709728Y-100327782D01*
X141723550Y-100330609D01*
X141731535Y-100332877D01*
X141791092Y-100358266D01*
X141843440Y-100393757D01*
X141887696Y-100438440D01*
X141922974Y-100491405D01*
X141948389Y-100551739D01*
X141950361Y-100558165D01*
X141951714Y-100563601D01*
X141952944Y-100570757D01*
X141954057Y-100580225D01*
X141955058Y-100592598D01*
X141955952Y-100608467D01*
X141956747Y-100628424D01*
X141957447Y-100653063D01*
X141958059Y-100682974D01*
X141958587Y-100718751D01*
X141959039Y-100760986D01*
X141959420Y-100810270D01*
X141959735Y-100867197D01*
X141959990Y-100932357D01*
X141960192Y-101006344D01*
X141960346Y-101089750D01*
X141960457Y-101183167D01*
X141960533Y-101287187D01*
X141960577Y-101402402D01*
X141960597Y-101529406D01*
X141960600Y-101603175D01*
X141960591Y-101736796D01*
X141960560Y-101858310D01*
X141960502Y-101968308D01*
X141960411Y-102067383D01*
X141960281Y-102156127D01*
X141960106Y-102235131D01*
X141959880Y-102304990D01*
X141959598Y-102366294D01*
X141959253Y-102419635D01*
X141958841Y-102465607D01*
X141958354Y-102504801D01*
X141957788Y-102537810D01*
X141957137Y-102565225D01*
X141956394Y-102587640D01*
X141955554Y-102605645D01*
X141954611Y-102619834D01*
X141953560Y-102630799D01*
X141952394Y-102639131D01*
X141951108Y-102645424D01*
X141950361Y-102648184D01*
X141925833Y-102710147D01*
X141891587Y-102763986D01*
X141847917Y-102809388D01*
X141795120Y-102846040D01*
X141739630Y-102871438D01*
X141728800Y-102875084D01*
X141717285Y-102878055D01*
X141703585Y-102880455D01*
X141686200Y-102882387D01*
X141663632Y-102883956D01*
X141634381Y-102885264D01*
X141596948Y-102886417D01*
X141549834Y-102887518D01*
X141491540Y-102888671D01*
X141490700Y-102888686D01*
X141431091Y-102889853D01*
X141382726Y-102891004D01*
X141344151Y-102892327D01*
X141313913Y-102894008D01*
X141290557Y-102896234D01*
X141272629Y-102899195D01*
X141258675Y-102903075D01*
X141247240Y-102908064D01*
X141236872Y-102914347D01*
X141226115Y-102922113D01*
X141225063Y-102922903D01*
X141210723Y-102934808D01*
X141198294Y-102948251D01*
X141186897Y-102964966D01*
X141175649Y-102986686D01*
X141163671Y-103015144D01*
X141150080Y-103052074D01*
X141133997Y-103099210D01*
X141131243Y-103107482D01*
X141069641Y-103283181D01*
X141003270Y-103452857D01*
X140930300Y-103620941D01*
X140848899Y-103791865D01*
X140846299Y-103797100D01*
X140784732Y-103920925D01*
X140787106Y-103968550D01*
X140790887Y-104003637D01*
X140797978Y-104032549D01*
X140801635Y-104041575D01*
X140809566Y-104053271D01*
X140825578Y-104072749D01*
X140848672Y-104098906D01*
X140877855Y-104130640D01*
X140912131Y-104166847D01*
X140950503Y-104206426D01*
X140950746Y-104206675D01*
X140994415Y-104251528D01*
X141029969Y-104288946D01*
X141058438Y-104320304D01*
X141080849Y-104346981D01*
X141098232Y-104370355D01*
X141111616Y-104391805D01*
X141122028Y-104412706D01*
X141130498Y-104434439D01*
X141137669Y-104457065D01*
X141144949Y-104494971D01*
X141147353Y-104538668D01*
X141144833Y-104582197D01*
X141138972Y-104613910D01*
X141136124Y-104624842D01*
X141133444Y-104634884D01*
X141130519Y-104644482D01*
X141126936Y-104654084D01*
X141122285Y-104664134D01*
X141116152Y-104675080D01*
X141108126Y-104687367D01*
X141097793Y-104701441D01*
X141084744Y-104717750D01*
X141068564Y-104736738D01*
X141048842Y-104758853D01*
X141025165Y-104784541D01*
X140997122Y-104814247D01*
X140964301Y-104848418D01*
X140926288Y-104887500D01*
X140882673Y-104931940D01*
X140833043Y-104982183D01*
X140776985Y-105038676D01*
X140714087Y-105101864D01*
X140643939Y-105172195D01*
X140566126Y-105250115D01*
X140480237Y-105336069D01*
X140385861Y-105430504D01*
X140370435Y-105445941D01*
X140275499Y-105540924D01*
X140189099Y-105627320D01*
X140110809Y-105705543D01*
X140040205Y-105776007D01*
X139976861Y-105839125D01*
X139920354Y-105895311D01*
X139870259Y-105944980D01*
X139826151Y-105988544D01*
X139787605Y-106026417D01*
X139754197Y-106059014D01*
X139725502Y-106086748D01*
X139701095Y-106110033D01*
X139680552Y-106129283D01*
X139663447Y-106144910D01*
X139649357Y-106157331D01*
X139637857Y-106166957D01*
X139628521Y-106174202D01*
X139620926Y-106179482D01*
X139614646Y-106183208D01*
X139612731Y-106184197D01*
X139551283Y-106208866D01*
X139491009Y-106221067D01*
X139431190Y-106220893D01*
X139386591Y-106212799D01*
X139361817Y-106205639D01*
X139338791Y-106196871D01*
X139316147Y-106185493D01*
X139292520Y-106170501D01*
X139266545Y-106150892D01*
X139236859Y-106125664D01*
X139202095Y-106093814D01*
X139160889Y-106054337D01*
X139130509Y-106024610D01*
X139087277Y-105982282D01*
X139051635Y-105948125D01*
X139022259Y-105921265D01*
X138997822Y-105900828D01*
X138977001Y-105885940D01*
X138958469Y-105875728D01*
X138940902Y-105869317D01*
X138922974Y-105865834D01*
X138903361Y-105864405D01*
X138887200Y-105864156D01*
X138839575Y-105864025D01*
X138674475Y-105944412D01*
X138592197Y-105984129D01*
X138518649Y-106018787D01*
X138451402Y-106049390D01*
X138388024Y-106076940D01*
X138326087Y-106102443D01*
X138263161Y-106126899D01*
X138196814Y-106151315D01*
X138124619Y-106176691D01*
X138052686Y-106201164D01*
X138011361Y-106215423D01*
X137972773Y-106229421D01*
X137939015Y-106242343D01*
X137912178Y-106253377D01*
X137894355Y-106261711D01*
X137889697Y-106264458D01*
X137873311Y-106280228D01*
X137855522Y-106304306D01*
X137838634Y-106332853D01*
X137824951Y-106362030D01*
X137817499Y-106384725D01*
X137816170Y-106395813D01*
X137814633Y-106417814D01*
X137812973Y-106448944D01*
X137811274Y-106487419D01*
X137809620Y-106531456D01*
X137808096Y-106579270D01*
X137807759Y-106591100D01*
X137805871Y-106652074D01*
X137803891Y-106701480D01*
X137801741Y-106740449D01*
X137799345Y-106770115D01*
X137796625Y-106791607D01*
X137793504Y-106806059D01*
X137793016Y-106807631D01*
X137768280Y-106866163D01*
X137734258Y-106917173D01*
X137709917Y-106944058D01*
X137682195Y-106969623D01*
X137654590Y-106989730D01*
X137623024Y-107006918D01*
X137583420Y-107023722D01*
X137579405Y-107025270D01*
X137544175Y-107038775D01*
X136547225Y-107039633D01*
X136434991Y-107039695D01*
X136325792Y-107039689D01*
X136220345Y-107039617D01*
X136119366Y-107039482D01*
X136023571Y-107039288D01*
X135933676Y-107039038D01*
X135850398Y-107038735D01*
X135774454Y-107038382D01*
X135706559Y-107037982D01*
X135647430Y-107037538D01*
X135597784Y-107037054D01*
X135558336Y-107036532D01*
X135529804Y-107035976D01*
X135512903Y-107035389D01*
X135509077Y-107035090D01*
X135460777Y-107023144D01*
X135411938Y-107001012D01*
X135365444Y-106970740D01*
X135324177Y-106934372D01*
X135291017Y-106893955D01*
X135277158Y-106870500D01*
X135267656Y-106851008D01*
X135259963Y-106832737D01*
X135253837Y-106814000D01*
X135249041Y-106793106D01*
X135245333Y-106768368D01*
X135242474Y-106738095D01*
X135240225Y-106700600D01*
X135238346Y-106654193D01*
X135236597Y-106597185D01*
X135236166Y-106581575D01*
X135234288Y-106519629D01*
X135232196Y-106468855D01*
X135229635Y-106427721D01*
X135226351Y-106394700D01*
X135222091Y-106368261D01*
X135216601Y-106346875D01*
X135209626Y-106329013D01*
X135200914Y-106313146D01*
X135190209Y-106297744D01*
X135188708Y-106295762D01*
X135178705Y-106283944D01*
X135167043Y-106273401D01*
X135152158Y-106263377D01*
X135132487Y-106253110D01*
X135106465Y-106241843D01*
X135072528Y-106228815D01*
X135029113Y-106213267D01*
X134992943Y-106200718D01*
X134911495Y-106172364D01*
X134838877Y-106146290D01*
X134772547Y-106121441D01*
X134709960Y-106096759D01*
X134648573Y-106071190D01*
X134585843Y-106043679D01*
X134519225Y-106013169D01*
X134446177Y-105978606D01*
X134375664Y-105944537D01*
X134327261Y-105921066D01*
X134288663Y-105902615D01*
X134258302Y-105888561D01*
X134234606Y-105878276D01*
X134216007Y-105871137D01*
X134200935Y-105866517D01*
X134187820Y-105863791D01*
X134175092Y-105862333D01*
X134168190Y-105861874D01*
X134147052Y-105861283D01*
X134128038Y-105862619D01*
X134109894Y-105866706D01*
X134091365Y-105874370D01*
X134071196Y-105886438D01*
X134048134Y-105903734D01*
X134020924Y-105927085D01*
X133988312Y-105957317D01*
X133949044Y-105995255D01*
X133915537Y-106028209D01*
X133870630Y-106072226D01*
X133833136Y-106108055D01*
X133801717Y-106136713D01*
X133775036Y-106159215D01*
X133751755Y-106176579D01*
X133730536Y-106189821D01*
X133710043Y-106199957D01*
X133688937Y-106208003D01*
X133672087Y-106213225D01*
X133638732Y-106219828D01*
X133599195Y-106223130D01*
X133558733Y-106223030D01*
X133522606Y-106219428D01*
X133508115Y-106216363D01*
X133488312Y-106209646D01*
X133462760Y-106199048D01*
X133436838Y-106186807D01*
X133435725Y-106186241D01*
X133429394Y-106182785D01*
X133422404Y-106178408D01*
X133414321Y-106172686D01*
X133404708Y-106165198D01*
X133393129Y-106155520D01*
X133379151Y-106143229D01*
X133362336Y-106127903D01*
X133342249Y-106109119D01*
X133318455Y-106086454D01*
X133290519Y-106059485D01*
X133258004Y-106027789D01*
X133220475Y-105990944D01*
X133177497Y-105948527D01*
X133128635Y-105900115D01*
X133073452Y-105845285D01*
X133011513Y-105783614D01*
X132942383Y-105714680D01*
X132865626Y-105638059D01*
X132780806Y-105553329D01*
X132687489Y-105460067D01*
X132679235Y-105451817D01*
X132583557Y-105356187D01*
X132496435Y-105269101D01*
X132417454Y-105190108D01*
X132346203Y-105118760D01*
X132282267Y-105054606D01*
X132225234Y-104997198D01*
X132174691Y-104946086D01*
X132130225Y-104900821D01*
X132091423Y-104860952D01*
X132057872Y-104826032D01*
X132033313Y-104800011D01*
X133883400Y-104800011D01*
X133888454Y-104807070D01*
X133902826Y-104820396D01*
X133925328Y-104839117D01*
X133954773Y-104862361D01*
X133989975Y-104889256D01*
X134029745Y-104918933D01*
X134072897Y-104950518D01*
X134118244Y-104983141D01*
X134164598Y-105015930D01*
X134210773Y-105048015D01*
X134255581Y-105078522D01*
X134297835Y-105106582D01*
X134324725Y-105123961D01*
X134521998Y-105242563D01*
X134723223Y-105349349D01*
X134928110Y-105444217D01*
X135136372Y-105527067D01*
X135347722Y-105597799D01*
X135561870Y-105656311D01*
X135778530Y-105702504D01*
X135997413Y-105736277D01*
X136115425Y-105749220D01*
X136152963Y-105752734D01*
X136185301Y-105755640D01*
X136214126Y-105757987D01*
X136241130Y-105759824D01*
X136268001Y-105761202D01*
X136296429Y-105762169D01*
X136328104Y-105762774D01*
X136364715Y-105763068D01*
X136407953Y-105763100D01*
X136459506Y-105762919D01*
X136521065Y-105762574D01*
X136563100Y-105762311D01*
X136631817Y-105761804D01*
X136689839Y-105761168D01*
X136739168Y-105760314D01*
X136781809Y-105759156D01*
X136819766Y-105757605D01*
X136855041Y-105755574D01*
X136889640Y-105752974D01*
X136925565Y-105749718D01*
X136964821Y-105745718D01*
X136980843Y-105744005D01*
X137204561Y-105714435D01*
X137421131Y-105674669D01*
X137631304Y-105624452D01*
X137835834Y-105563530D01*
X138035473Y-105491651D01*
X138230975Y-105408559D01*
X138423090Y-105314001D01*
X138612573Y-105207724D01*
X138664950Y-105176022D01*
X138726182Y-105137712D01*
X138784569Y-105099716D01*
X138841848Y-105060771D01*
X138899756Y-105019615D01*
X138960031Y-104974986D01*
X139024410Y-104925622D01*
X139094630Y-104870261D01*
X139172428Y-104807642D01*
X139175310Y-104805303D01*
X139175995Y-104804398D01*
X139175522Y-104803544D01*
X139173535Y-104802740D01*
X139169680Y-104801983D01*
X139163600Y-104801273D01*
X139154941Y-104800608D01*
X139143349Y-104799986D01*
X139128467Y-104799407D01*
X139109942Y-104798868D01*
X139087418Y-104798368D01*
X139060539Y-104797905D01*
X139028952Y-104797478D01*
X138992301Y-104797087D01*
X138950231Y-104796728D01*
X138902387Y-104796400D01*
X138848414Y-104796103D01*
X138787956Y-104795834D01*
X138720660Y-104795592D01*
X138646170Y-104795376D01*
X138564131Y-104795184D01*
X138474188Y-104795015D01*
X138375985Y-104794866D01*
X138269169Y-104794737D01*
X138153383Y-104794627D01*
X138028274Y-104794532D01*
X137893485Y-104794453D01*
X137748662Y-104794388D01*
X137593451Y-104794335D01*
X137427495Y-104794292D01*
X137250439Y-104794258D01*
X137061930Y-104794232D01*
X136861612Y-104794212D01*
X136649129Y-104794197D01*
X136536112Y-104794191D01*
X136313055Y-104794193D01*
X136098372Y-104794224D01*
X135892269Y-104794283D01*
X135694955Y-104794369D01*
X135506639Y-104794483D01*
X135327529Y-104794623D01*
X135157833Y-104794790D01*
X134997759Y-104794982D01*
X134847516Y-104795200D01*
X134707312Y-104795442D01*
X134577356Y-104795709D01*
X134457854Y-104796000D01*
X134349017Y-104796314D01*
X134251052Y-104796652D01*
X134164167Y-104797012D01*
X134088571Y-104797394D01*
X134024471Y-104797798D01*
X133972077Y-104798223D01*
X133931596Y-104798668D01*
X133903237Y-104799134D01*
X133887209Y-104799620D01*
X133883400Y-104800011D01*
X132033313Y-104800011D01*
X132029159Y-104795610D01*
X132004870Y-104769236D01*
X131984594Y-104746463D01*
X131967916Y-104726839D01*
X131954424Y-104709916D01*
X131943705Y-104695244D01*
X131935346Y-104682374D01*
X131928934Y-104670857D01*
X131924056Y-104660243D01*
X131920298Y-104650082D01*
X131917248Y-104639925D01*
X131914493Y-104629323D01*
X131911620Y-104617827D01*
X131911162Y-104616032D01*
X131904420Y-104573883D01*
X131903487Y-104526840D01*
X131908105Y-104480123D01*
X131918012Y-104438949D01*
X131920283Y-104432669D01*
X131929312Y-104411444D01*
X131940269Y-104390615D01*
X131950303Y-104374950D01*
X133450532Y-104374950D01*
X133469852Y-104398762D01*
X133481118Y-104411808D01*
X133499102Y-104431664D01*
X133521682Y-104456027D01*
X133546733Y-104482591D01*
X133557698Y-104494077D01*
X133626225Y-104565580D01*
X139449175Y-104565568D01*
X139515850Y-104497104D01*
X139541361Y-104470561D01*
X139565510Y-104444814D01*
X139586017Y-104422334D01*
X139600604Y-104405593D01*
X139603696Y-104401794D01*
X139624867Y-104374949D01*
X136537700Y-104374950D01*
X133450532Y-104374950D01*
X131950303Y-104374950D01*
X131954184Y-104368892D01*
X131972090Y-104344984D01*
X131995018Y-104317601D01*
X132023999Y-104285453D01*
X132060065Y-104247249D01*
X132104247Y-104201699D01*
X132107830Y-104198040D01*
X132145337Y-104159642D01*
X132174939Y-104128980D01*
X132197691Y-104104788D01*
X132214646Y-104085800D01*
X132226859Y-104070751D01*
X132235384Y-104058376D01*
X132241275Y-104047408D01*
X132245586Y-104036583D01*
X132247699Y-104030124D01*
X132256372Y-103986303D01*
X132256696Y-103950749D01*
X132255567Y-103937331D01*
X132253418Y-103924178D01*
X132249626Y-103909684D01*
X132243567Y-103892245D01*
X132234618Y-103870257D01*
X132222156Y-103842116D01*
X132205557Y-103806216D01*
X132184196Y-103760954D01*
X132177237Y-103746300D01*
X132130072Y-103645667D01*
X132088230Y-103553180D01*
X132050575Y-103466047D01*
X132015969Y-103381479D01*
X131983274Y-103296688D01*
X131951355Y-103208884D01*
X131919072Y-103115277D01*
X131914941Y-103102988D01*
X131900619Y-103060797D01*
X131889177Y-103028691D01*
X131879698Y-103004638D01*
X131871268Y-102986605D01*
X131862971Y-102972557D01*
X131853891Y-102960461D01*
X131847458Y-102953038D01*
X131821977Y-102929592D01*
X131793467Y-102910866D01*
X131786499Y-102907451D01*
X131776919Y-102903329D01*
X131767467Y-102900003D01*
X131756651Y-102897360D01*
X131742984Y-102895285D01*
X131724973Y-102893664D01*
X131701131Y-102892383D01*
X131669966Y-102891327D01*
X131629989Y-102890383D01*
X131579710Y-102889436D01*
X131543425Y-102888809D01*
X131483605Y-102887754D01*
X131434883Y-102886678D01*
X131395657Y-102885343D01*
X131364326Y-102883513D01*
X131339288Y-102880952D01*
X131318943Y-102877421D01*
X131301689Y-102872685D01*
X131285925Y-102866507D01*
X131270051Y-102858651D01*
X131252464Y-102848879D01*
X131245181Y-102844717D01*
X131216789Y-102824841D01*
X131186500Y-102797739D01*
X131158359Y-102767409D01*
X131136408Y-102737852D01*
X131135277Y-102736028D01*
X131125682Y-102717948D01*
X131114538Y-102693499D01*
X131105353Y-102670795D01*
X131089399Y-102628410D01*
X131089468Y-101607792D01*
X131089468Y-101606350D01*
X132421095Y-101606350D01*
X132422132Y-101723157D01*
X132424988Y-101830178D01*
X132429865Y-101930224D01*
X132436967Y-102026103D01*
X132446495Y-102120628D01*
X132458652Y-102216607D01*
X132471105Y-102300805D01*
X132504753Y-102489872D01*
X132545587Y-102671263D01*
X132594442Y-102847746D01*
X132652150Y-103022093D01*
X132719544Y-103197071D01*
X132788436Y-103355775D01*
X132809367Y-103400597D01*
X132832782Y-103448861D01*
X132857906Y-103499134D01*
X132883968Y-103549982D01*
X132910192Y-103599971D01*
X132935807Y-103647669D01*
X132960039Y-103691640D01*
X132982114Y-103730453D01*
X133001259Y-103762674D01*
X133016701Y-103786869D01*
X133027666Y-103801604D01*
X133030458Y-103804392D01*
X133032788Y-103805397D01*
X133037493Y-103806356D01*
X133044858Y-103807272D01*
X133055166Y-103808146D01*
X133068702Y-103808978D01*
X133085749Y-103809770D01*
X133106593Y-103810524D01*
X133131516Y-103811239D01*
X133160803Y-103811919D01*
X133194738Y-103812562D01*
X133233606Y-103813172D01*
X133277691Y-103813749D01*
X133327276Y-103814294D01*
X133382645Y-103814809D01*
X133444084Y-103815294D01*
X133511875Y-103815751D01*
X133586304Y-103816181D01*
X133667654Y-103816585D01*
X133756210Y-103816965D01*
X133852255Y-103817321D01*
X133956073Y-103817655D01*
X134067950Y-103817968D01*
X134188168Y-103818261D01*
X134317012Y-103818536D01*
X134454767Y-103818793D01*
X134601716Y-103819034D01*
X134758144Y-103819259D01*
X134924334Y-103819471D01*
X135100570Y-103819670D01*
X135287138Y-103819857D01*
X135484321Y-103820034D01*
X135692403Y-103820202D01*
X135911668Y-103820362D01*
X136142400Y-103820516D01*
X136384884Y-103820663D01*
X136639404Y-103820806D01*
X136906243Y-103820946D01*
X136999308Y-103820993D01*
X140023141Y-103822500D01*
X140038987Y-103808212D01*
X140049724Y-103795370D01*
X140065157Y-103772461D01*
X140084537Y-103740890D01*
X140107115Y-103702063D01*
X140132140Y-103657386D01*
X140158864Y-103608265D01*
X140186538Y-103556106D01*
X140214412Y-103502314D01*
X140241737Y-103448296D01*
X140267764Y-103395458D01*
X140291743Y-103345205D01*
X140312925Y-103298942D01*
X140324429Y-103272636D01*
X140373070Y-103152030D01*
X140419746Y-103022934D01*
X140463611Y-102888303D01*
X140503816Y-102751090D01*
X140539514Y-102614250D01*
X140569856Y-102480737D01*
X140593995Y-102353506D01*
X140601274Y-102308025D01*
X140617636Y-102193333D01*
X140630509Y-102087790D01*
X140640105Y-101988395D01*
X140646636Y-101892146D01*
X140650314Y-101796043D01*
X140651352Y-101697086D01*
X140650401Y-101612700D01*
X140646035Y-101471575D01*
X140638485Y-101338923D01*
X140627399Y-101210834D01*
X140612427Y-101083403D01*
X140593217Y-100952719D01*
X140588483Y-100923725D01*
X140549848Y-100726644D01*
X140499381Y-100528314D01*
X140437671Y-100330144D01*
X140365306Y-100133541D01*
X140282874Y-99939913D01*
X140190961Y-99750670D01*
X140090157Y-99567218D01*
X139981049Y-99390967D01*
X139898018Y-99269788D01*
X139760725Y-99088308D01*
X139614557Y-98915249D01*
X139459981Y-98750936D01*
X139297462Y-98595697D01*
X139127465Y-98449860D01*
X138950458Y-98313751D01*
X138766904Y-98187697D01*
X138577270Y-98072026D01*
X138382022Y-97967064D01*
X138181626Y-97873139D01*
X137976547Y-97790578D01*
X137767251Y-97719708D01*
X137637570Y-97682320D01*
X137519342Y-97651462D01*
X137410134Y-97625213D01*
X137307313Y-97603135D01*
X137208246Y-97584788D01*
X137110300Y-97569735D01*
X137010841Y-97557536D01*
X136907237Y-97547753D01*
X136796854Y-97539947D01*
X136775576Y-97538690D01*
X136682920Y-97534201D01*
X136594718Y-97531786D01*
X136507741Y-97531482D01*
X136418757Y-97533327D01*
X136324538Y-97537358D01*
X136221852Y-97543615D01*
X136194800Y-97545509D01*
X136134659Y-97550098D01*
X136079761Y-97554998D01*
X136027905Y-97560535D01*
X135976892Y-97567037D01*
X135924520Y-97574831D01*
X135868590Y-97584245D01*
X135806901Y-97595606D01*
X135737254Y-97609241D01*
X135657507Y-97625467D01*
X135446973Y-97675293D01*
X135238496Y-97737455D01*
X135032656Y-97811674D01*
X134830034Y-97897672D01*
X134631211Y-97995170D01*
X134436769Y-98103890D01*
X134247287Y-98223553D01*
X134063348Y-98353882D01*
X133943725Y-98446847D01*
X133772428Y-98593003D01*
X133609908Y-98748111D01*
X133456452Y-98911680D01*
X133312347Y-99083217D01*
X133177879Y-99262231D01*
X133053335Y-99448229D01*
X132939002Y-99640718D01*
X132835166Y-99839208D01*
X132742114Y-100043205D01*
X132660133Y-100252219D01*
X132589508Y-100465756D01*
X132530528Y-100683325D01*
X132483478Y-100904433D01*
X132471210Y-100974525D01*
X132454059Y-101086095D01*
X132440837Y-101191906D01*
X132431242Y-101295767D01*
X132424972Y-101401487D01*
X132421724Y-101512875D01*
X132421095Y-101606350D01*
X131089468Y-101606350D01*
X131089468Y-101473036D01*
X131089460Y-101350376D01*
X131089466Y-101239206D01*
X131089505Y-101138922D01*
X131089597Y-101048919D01*
X131089761Y-100968593D01*
X131090019Y-100897339D01*
X131090388Y-100834552D01*
X131090891Y-100779627D01*
X131091546Y-100731960D01*
X131092373Y-100690947D01*
X131093392Y-100655981D01*
X131094624Y-100626460D01*
X131096088Y-100601778D01*
X131097803Y-100581330D01*
X131099791Y-100564511D01*
X131102070Y-100550718D01*
X131104661Y-100539345D01*
X131107583Y-100529788D01*
X131110857Y-100521441D01*
X131114502Y-100513701D01*
X131118538Y-100505963D01*
X131122986Y-100497621D01*
X131126214Y-100491379D01*
X131158118Y-100440336D01*
X131197957Y-100398376D01*
X131246692Y-100364681D01*
X131305288Y-100338433D01*
X131306800Y-100337896D01*
X131320120Y-100333340D01*
X131332564Y-100329685D01*
X131345755Y-100326797D01*
X131361319Y-100324543D01*
X131380879Y-100322789D01*
X131406059Y-100321403D01*
X131438483Y-100320252D01*
X131479776Y-100319201D01*
X131531562Y-100318118D01*
X131552950Y-100317697D01*
X131752975Y-100313789D01*
X131785127Y-100296987D01*
X131815592Y-100276734D01*
X131844223Y-100250105D01*
X131866658Y-100221384D01*
X131872397Y-100211316D01*
X131878176Y-100197769D01*
X131886484Y-100175644D01*
X131896025Y-100148472D01*
X131902211Y-100129975D01*
X131972848Y-99928098D01*
X132051307Y-99729382D01*
X132136289Y-99536966D01*
X132209283Y-99387357D01*
X132260975Y-99286090D01*
X132260823Y-99234957D01*
X132259567Y-99202516D01*
X132255633Y-99179054D01*
X132248752Y-99161600D01*
X132241409Y-99151627D01*
X132226291Y-99133967D01*
X132204597Y-99109920D01*
X132177526Y-99080785D01*
X132146276Y-99047861D01*
X132112046Y-99012449D01*
X132096434Y-98996500D01*
X132054711Y-98953811D01*
X132021102Y-98918839D01*
X131994611Y-98890448D01*
X131974243Y-98867504D01*
X131959003Y-98848873D01*
X131947895Y-98833420D01*
X131939924Y-98820012D01*
X131937659Y-98815525D01*
X131917257Y-98765964D01*
X131905909Y-98719006D01*
X131902430Y-98669740D01*
X131902430Y-98669475D01*
X131904829Y-98624237D01*
X131912777Y-98584262D01*
X131927667Y-98543517D01*
X131935423Y-98526600D01*
X131938516Y-98520664D01*
X131942611Y-98513984D01*
X131948128Y-98506125D01*
X131955489Y-98496655D01*
X131965111Y-98485141D01*
X131977417Y-98471149D01*
X131992825Y-98454247D01*
X132011756Y-98434000D01*
X132034629Y-98409976D01*
X132061865Y-98381743D01*
X132093884Y-98348865D01*
X132131105Y-98310911D01*
X132173950Y-98267448D01*
X132222837Y-98218041D01*
X132278186Y-98162258D01*
X132340419Y-98099666D01*
X132409954Y-98029832D01*
X132487212Y-97952322D01*
X132572613Y-97866703D01*
X132666577Y-97772543D01*
X132666875Y-97772244D01*
X132746558Y-97692473D01*
X132824131Y-97614947D01*
X132899088Y-97540164D01*
X132970926Y-97468621D01*
X133039140Y-97400817D01*
X133103227Y-97337249D01*
X133162681Y-97278416D01*
X133216998Y-97224815D01*
X133265674Y-97176944D01*
X133308206Y-97135302D01*
X133344088Y-97100386D01*
X133372816Y-97072694D01*
X133393887Y-97052724D01*
X133406795Y-97040974D01*
X133410325Y-97038134D01*
X133452931Y-97013493D01*
X133494621Y-96997713D01*
X133539861Y-96989472D01*
X133581775Y-96987418D01*
X133617368Y-96988118D01*
X133649226Y-96991224D01*
X133678751Y-96997545D01*
X133707347Y-97007893D01*
X133736416Y-97023077D01*
X133767362Y-97043908D01*
X133801588Y-97071196D01*
X133840498Y-97105752D01*
X133885495Y-97148386D01*
X133921500Y-97183602D01*
X133959021Y-97220116D01*
X133993557Y-97252754D01*
X134023844Y-97280378D01*
X134048620Y-97301855D01*
X134066624Y-97316048D01*
X134073900Y-97320727D01*
X134091569Y-97328649D01*
X134109938Y-97333276D01*
X134133358Y-97335403D01*
X134156695Y-97335835D01*
X134210916Y-97335975D01*
X134369420Y-97258732D01*
X134457376Y-97216378D01*
X134537614Y-97178946D01*
X134613129Y-97145184D01*
X134686918Y-97113843D01*
X134761980Y-97083672D01*
X134841311Y-97053421D01*
X134927908Y-97021840D01*
X134990312Y-96999726D01*
X135038697Y-96982429D01*
X135076803Y-96967938D01*
X135106488Y-96955326D01*
X135129611Y-96943663D01*
X135148031Y-96932019D01*
X135163605Y-96919467D01*
X135176887Y-96906454D01*
X135191845Y-96888572D01*
X135204139Y-96868404D01*
X135214007Y-96844600D01*
X135221690Y-96815806D01*
X135227426Y-96780673D01*
X135231454Y-96737847D01*
X135234014Y-96685977D01*
X135235346Y-96623711D01*
X135235673Y-96574380D01*
X135236389Y-96518480D01*
X135238494Y-96472937D01*
X135242346Y-96435448D01*
X135248307Y-96403711D01*
X135256735Y-96375425D01*
X135267991Y-96348288D01*
X135272471Y-96339025D01*
X135303256Y-96290485D01*
X135343682Y-96246987D01*
X135391089Y-96210796D01*
X135442815Y-96184178D01*
X135462679Y-96177158D01*
X135468283Y-96175490D01*
X135474185Y-96173973D01*
X135480987Y-96172602D01*
X135489294Y-96171368D01*
X135499709Y-96170265D01*
X135512834Y-96169285D01*
X135529273Y-96168421D01*
X135549630Y-96167666D01*
X135574507Y-96167012D01*
X135604509Y-96166452D01*
X135640238Y-96165980D01*
X135682297Y-96165587D01*
X135731291Y-96165267D01*
X135787822Y-96165012D01*
X135852493Y-96164815D01*
X135925909Y-96164669D01*
X136008672Y-96164566D01*
X136101385Y-96164499D01*
X136204652Y-96164462D01*
X136319076Y-96164446D01*
X136445261Y-96164445D01*
X136520906Y-96164448D01*
G36*
X135557533Y-100318609D02*
G01*
X135682241Y-100318688D01*
X135818396Y-100318843D01*
X135966222Y-100319075D01*
X136125943Y-100319383D01*
X136297785Y-100319768D01*
X136481971Y-100320227D01*
X136594850Y-100320529D01*
X136765650Y-100320999D01*
X136924220Y-100321443D01*
X137071027Y-100321864D01*
X137206541Y-100322268D01*
X137331229Y-100322660D01*
X137445562Y-100323043D01*
X137550006Y-100323423D01*
X137645033Y-100323804D01*
X137731109Y-100324190D01*
X137808705Y-100324586D01*
X137878288Y-100324998D01*
X137940327Y-100325428D01*
X137995291Y-100325883D01*
X138043650Y-100326365D01*
X138085871Y-100326881D01*
X138122423Y-100327435D01*
X138153776Y-100328030D01*
X138180398Y-100328672D01*
X138202757Y-100329366D01*
X138221323Y-100330115D01*
X138236564Y-100330925D01*
X138248949Y-100331800D01*
X138258947Y-100332745D01*
X138267026Y-100333763D01*
X138273656Y-100334861D01*
X138279304Y-100336041D01*
X138283234Y-100336998D01*
X138337379Y-100354254D01*
X138384760Y-100377454D01*
X138429202Y-100408787D01*
X138465155Y-100441125D01*
X138516789Y-100499433D01*
X138558510Y-100563385D01*
X138589000Y-100630945D01*
X138590259Y-100634534D01*
X138604625Y-100676075D01*
X138604625Y-101720650D01*
X138604633Y-101857239D01*
X138604646Y-101981726D01*
X138604644Y-102094708D01*
X138604610Y-102196782D01*
X138604524Y-102288544D01*
X138604366Y-102370593D01*
X138604120Y-102443525D01*
X138603765Y-102507939D01*
X138603283Y-102564430D01*
X138602656Y-102613597D01*
X138601863Y-102656036D01*
X138600888Y-102692346D01*
X138599710Y-102723122D01*
X138598311Y-102748963D01*
X138596673Y-102770466D01*
X138594776Y-102788227D01*
X138592602Y-102802845D01*
X138590132Y-102814916D01*
X138587347Y-102825038D01*
X138584228Y-102833808D01*
X138580757Y-102841823D01*
X138576915Y-102849680D01*
X138572683Y-102857978D01*
X138568605Y-102866151D01*
X138531185Y-102928825D01*
X138483807Y-102984733D01*
X138427996Y-103032541D01*
X138365273Y-103070918D01*
X138306686Y-103095455D01*
X138281942Y-103102154D01*
X138249731Y-103108615D01*
X138213486Y-103114394D01*
X138176643Y-103119045D01*
X138142633Y-103122121D01*
X138114893Y-103123177D01*
X138099800Y-103122309D01*
X138092697Y-103122175D01*
X138073427Y-103122019D01*
X138042522Y-103121843D01*
X138000514Y-103121648D01*
X137947935Y-103121436D01*
X137885318Y-103121208D01*
X137813195Y-103120966D01*
X137732098Y-103120711D01*
X137642560Y-103120445D01*
X137545113Y-103120169D01*
X137440290Y-103119885D01*
X137328622Y-103119595D01*
X137210643Y-103119299D01*
X137086884Y-103119000D01*
X136957877Y-103118699D01*
X136824156Y-103118397D01*
X136686252Y-103118096D01*
X136544698Y-103117797D01*
X136445625Y-103117595D01*
X136274210Y-103117244D01*
X136115034Y-103116908D01*
X135967634Y-103116584D01*
X135831548Y-103116266D01*
X135706315Y-103115951D01*
X135591472Y-103115636D01*
X135486558Y-103115316D01*
X135391110Y-103114988D01*
X135304667Y-103114647D01*
X135226768Y-103114290D01*
X135156949Y-103113912D01*
X135094749Y-103113511D01*
X135039707Y-103113081D01*
X134991360Y-103112619D01*
X134949246Y-103112122D01*
X134912904Y-103111585D01*
X134881872Y-103111004D01*
X134855687Y-103110376D01*
X134833889Y-103109697D01*
X134816014Y-103108962D01*
X134801601Y-103108168D01*
X134790189Y-103107311D01*
X134781314Y-103106387D01*
X134774517Y-103105392D01*
X134769333Y-103104322D01*
X134766098Y-103103428D01*
X134699900Y-103076363D01*
X134638621Y-103038493D01*
X134583578Y-102991195D01*
X134536091Y-102935844D01*
X134497475Y-102873813D01*
X134469050Y-102806479D01*
X134463260Y-102787450D01*
X134461756Y-102781600D01*
X134460389Y-102774916D01*
X134459151Y-102766800D01*
X134458037Y-102756653D01*
X134457040Y-102743877D01*
X134456153Y-102727874D01*
X134455370Y-102708044D01*
X134454685Y-102683791D01*
X134454091Y-102654515D01*
X134453582Y-102619619D01*
X134453151Y-102578504D01*
X134452792Y-102530571D01*
X134452498Y-102475222D01*
X134452263Y-102411860D01*
X134452080Y-102339885D01*
X134451943Y-102258699D01*
X134451846Y-102167704D01*
X134451782Y-102066302D01*
X134451745Y-101953894D01*
X134451728Y-101829882D01*
X134451725Y-101717475D01*
X134451725Y-101716974D01*
X134962900Y-101716974D01*
X134968161Y-101782307D01*
X134984108Y-101841028D01*
X135010980Y-101893753D01*
X135049021Y-101941096D01*
X135052167Y-101944283D01*
X135098759Y-101982124D01*
X135152073Y-102010049D01*
X135210370Y-102027609D01*
X135271908Y-102034359D01*
X135334949Y-102029850D01*
X135362950Y-102024126D01*
X135418491Y-102004082D01*
X135469001Y-101973368D01*
X135512910Y-101933532D01*
X135548649Y-101886124D01*
X135574649Y-101832691D01*
X135582722Y-101807210D01*
X135588335Y-101775156D01*
X135590942Y-101735864D01*
X135590772Y-101717909D01*
X137445798Y-101717909D01*
X137450303Y-101780623D01*
X137464437Y-101836267D01*
X137488954Y-101886860D01*
X137524613Y-101934419D01*
X137528608Y-101938854D01*
X137571306Y-101976422D01*
X137621607Y-102005063D01*
X137677604Y-102024262D01*
X137737390Y-102033507D01*
X137799058Y-102032286D01*
X137845800Y-102024094D01*
X137902290Y-102003885D01*
X137952986Y-101973006D01*
X137996698Y-101932623D01*
X138032236Y-101883902D01*
X138058411Y-101828009D01*
X138064269Y-101809984D01*
X138072649Y-101765549D01*
X138074499Y-101715258D01*
X138070194Y-101663407D01*
X138060113Y-101614291D01*
X138044631Y-101572206D01*
X138043135Y-101569202D01*
X138011638Y-101520930D01*
X137971048Y-101479862D01*
X137923222Y-101446760D01*
X137870015Y-101422390D01*
X137813283Y-101407517D01*
X137754881Y-101402904D01*
X137696663Y-101409316D01*
X137671175Y-101415954D01*
X137608959Y-101440952D01*
X137556364Y-101474112D01*
X137513654Y-101515079D01*
X137481092Y-101563501D01*
X137458941Y-101619025D01*
X137447464Y-101681299D01*
X137445798Y-101717909D01*
X135590772Y-101717909D01*
X135590548Y-101694435D01*
X135587160Y-101655970D01*
X135582494Y-101631496D01*
X135561636Y-101575377D01*
X135530908Y-101525815D01*
X135491739Y-101483569D01*
X135445560Y-101449403D01*
X135393802Y-101424076D01*
X135337896Y-101408351D01*
X135279270Y-101402989D01*
X135219357Y-101408750D01*
X135181975Y-101418313D01*
X135121888Y-101443604D01*
X135070573Y-101477769D01*
X135028580Y-101520060D01*
X134996455Y-101569730D01*
X134974749Y-101626029D01*
X134964009Y-101688211D01*
X134962900Y-101716974D01*
X134451725Y-101716974D01*
X134451730Y-101583283D01*
X134451751Y-101461194D01*
X134451795Y-101350609D01*
X134451866Y-101250931D01*
X134451973Y-101161562D01*
X134452120Y-101081904D01*
X134452315Y-101011360D01*
X134452563Y-100949331D01*
X134452871Y-100895219D01*
X134453246Y-100848428D01*
X134453694Y-100808360D01*
X134454220Y-100774416D01*
X134454833Y-100745998D01*
X134455536Y-100722510D01*
X134456339Y-100703352D01*
X134457245Y-100687929D01*
X134458263Y-100675641D01*
X134459397Y-100665890D01*
X134460656Y-100658080D01*
X134462044Y-100651613D01*
X134463089Y-100647591D01*
X134488100Y-100580294D01*
X134524009Y-100518163D01*
X134569654Y-100462395D01*
X134623869Y-100414185D01*
X134685491Y-100374728D01*
X134753354Y-100345221D01*
X134759515Y-100343164D01*
X134783012Y-100337087D01*
X134814635Y-100331063D01*
X134849834Y-100325875D01*
X134876990Y-100322902D01*
X134890607Y-100322115D01*
X134913201Y-100321409D01*
X134944995Y-100320782D01*
X134986215Y-100320235D01*
X135037085Y-100319767D01*
X135097830Y-100319379D01*
X135168674Y-100319068D01*
X135249842Y-100318837D01*
X135341558Y-100318683D01*
X135444047Y-100318607D01*
X135557533Y-100318609D01*
G37*
X135557533Y-100318609D02*
X135682241Y-100318688D01*
X135818396Y-100318843D01*
X135966222Y-100319075D01*
X136125943Y-100319383D01*
X136297785Y-100319768D01*
X136481971Y-100320227D01*
X136594850Y-100320529D01*
X136765650Y-100320999D01*
X136924220Y-100321443D01*
X137071027Y-100321864D01*
X137206541Y-100322268D01*
X137331229Y-100322660D01*
X137445562Y-100323043D01*
X137550006Y-100323423D01*
X137645033Y-100323804D01*
X137731109Y-100324190D01*
X137808705Y-100324586D01*
X137878288Y-100324998D01*
X137940327Y-100325428D01*
X137995291Y-100325883D01*
X138043650Y-100326365D01*
X138085871Y-100326881D01*
X138122423Y-100327435D01*
X138153776Y-100328030D01*
X138180398Y-100328672D01*
X138202757Y-100329366D01*
X138221323Y-100330115D01*
X138236564Y-100330925D01*
X138248949Y-100331800D01*
X138258947Y-100332745D01*
X138267026Y-100333763D01*
X138273656Y-100334861D01*
X138279304Y-100336041D01*
X138283234Y-100336998D01*
X138337379Y-100354254D01*
X138384760Y-100377454D01*
X138429202Y-100408787D01*
X138465155Y-100441125D01*
X138516789Y-100499433D01*
X138558510Y-100563385D01*
X138589000Y-100630945D01*
X138590259Y-100634534D01*
X138604625Y-100676075D01*
X138604625Y-101720650D01*
X138604633Y-101857239D01*
X138604646Y-101981726D01*
X138604644Y-102094708D01*
X138604610Y-102196782D01*
X138604524Y-102288544D01*
X138604366Y-102370593D01*
X138604120Y-102443525D01*
X138603765Y-102507939D01*
X138603283Y-102564430D01*
X138602656Y-102613597D01*
X138601863Y-102656036D01*
X138600888Y-102692346D01*
X138599710Y-102723122D01*
X138598311Y-102748963D01*
X138596673Y-102770466D01*
X138594776Y-102788227D01*
X138592602Y-102802845D01*
X138590132Y-102814916D01*
X138587347Y-102825038D01*
X138584228Y-102833808D01*
X138580757Y-102841823D01*
X138576915Y-102849680D01*
X138572683Y-102857978D01*
X138568605Y-102866151D01*
X138531185Y-102928825D01*
X138483807Y-102984733D01*
X138427996Y-103032541D01*
X138365273Y-103070918D01*
X138306686Y-103095455D01*
X138281942Y-103102154D01*
X138249731Y-103108615D01*
X138213486Y-103114394D01*
X138176643Y-103119045D01*
X138142633Y-103122121D01*
X138114893Y-103123177D01*
X138099800Y-103122309D01*
X138092697Y-103122175D01*
X138073427Y-103122019D01*
X138042522Y-103121843D01*
X138000514Y-103121648D01*
X137947935Y-103121436D01*
X137885318Y-103121208D01*
X137813195Y-103120966D01*
X137732098Y-103120711D01*
X137642560Y-103120445D01*
X137545113Y-103120169D01*
X137440290Y-103119885D01*
X137328622Y-103119595D01*
X137210643Y-103119299D01*
X137086884Y-103119000D01*
X136957877Y-103118699D01*
X136824156Y-103118397D01*
X136686252Y-103118096D01*
X136544698Y-103117797D01*
X136445625Y-103117595D01*
X136274210Y-103117244D01*
X136115034Y-103116908D01*
X135967634Y-103116584D01*
X135831548Y-103116266D01*
X135706315Y-103115951D01*
X135591472Y-103115636D01*
X135486558Y-103115316D01*
X135391110Y-103114988D01*
X135304667Y-103114647D01*
X135226768Y-103114290D01*
X135156949Y-103113912D01*
X135094749Y-103113511D01*
X135039707Y-103113081D01*
X134991360Y-103112619D01*
X134949246Y-103112122D01*
X134912904Y-103111585D01*
X134881872Y-103111004D01*
X134855687Y-103110376D01*
X134833889Y-103109697D01*
X134816014Y-103108962D01*
X134801601Y-103108168D01*
X134790189Y-103107311D01*
X134781314Y-103106387D01*
X134774517Y-103105392D01*
X134769333Y-103104322D01*
X134766098Y-103103428D01*
X134699900Y-103076363D01*
X134638621Y-103038493D01*
X134583578Y-102991195D01*
X134536091Y-102935844D01*
X134497475Y-102873813D01*
X134469050Y-102806479D01*
X134463260Y-102787450D01*
X134461756Y-102781600D01*
X134460389Y-102774916D01*
X134459151Y-102766800D01*
X134458037Y-102756653D01*
X134457040Y-102743877D01*
X134456153Y-102727874D01*
X134455370Y-102708044D01*
X134454685Y-102683791D01*
X134454091Y-102654515D01*
X134453582Y-102619619D01*
X134453151Y-102578504D01*
X134452792Y-102530571D01*
X134452498Y-102475222D01*
X134452263Y-102411860D01*
X134452080Y-102339885D01*
X134451943Y-102258699D01*
X134451846Y-102167704D01*
X134451782Y-102066302D01*
X134451745Y-101953894D01*
X134451728Y-101829882D01*
X134451725Y-101717475D01*
X134451725Y-101716974D01*
X134962900Y-101716974D01*
X134968161Y-101782307D01*
X134984108Y-101841028D01*
X135010980Y-101893753D01*
X135049021Y-101941096D01*
X135052167Y-101944283D01*
X135098759Y-101982124D01*
X135152073Y-102010049D01*
X135210370Y-102027609D01*
X135271908Y-102034359D01*
X135334949Y-102029850D01*
X135362950Y-102024126D01*
X135418491Y-102004082D01*
X135469001Y-101973368D01*
X135512910Y-101933532D01*
X135548649Y-101886124D01*
X135574649Y-101832691D01*
X135582722Y-101807210D01*
X135588335Y-101775156D01*
X135590942Y-101735864D01*
X135590772Y-101717909D01*
X137445798Y-101717909D01*
X137450303Y-101780623D01*
X137464437Y-101836267D01*
X137488954Y-101886860D01*
X137524613Y-101934419D01*
X137528608Y-101938854D01*
X137571306Y-101976422D01*
X137621607Y-102005063D01*
X137677604Y-102024262D01*
X137737390Y-102033507D01*
X137799058Y-102032286D01*
X137845800Y-102024094D01*
X137902290Y-102003885D01*
X137952986Y-101973006D01*
X137996698Y-101932623D01*
X138032236Y-101883902D01*
X138058411Y-101828009D01*
X138064269Y-101809984D01*
X138072649Y-101765549D01*
X138074499Y-101715258D01*
X138070194Y-101663407D01*
X138060113Y-101614291D01*
X138044631Y-101572206D01*
X138043135Y-101569202D01*
X138011638Y-101520930D01*
X137971048Y-101479862D01*
X137923222Y-101446760D01*
X137870015Y-101422390D01*
X137813283Y-101407517D01*
X137754881Y-101402904D01*
X137696663Y-101409316D01*
X137671175Y-101415954D01*
X137608959Y-101440952D01*
X137556364Y-101474112D01*
X137513654Y-101515079D01*
X137481092Y-101563501D01*
X137458941Y-101619025D01*
X137447464Y-101681299D01*
X137445798Y-101717909D01*
X135590772Y-101717909D01*
X135590548Y-101694435D01*
X135587160Y-101655970D01*
X135582494Y-101631496D01*
X135561636Y-101575377D01*
X135530908Y-101525815D01*
X135491739Y-101483569D01*
X135445560Y-101449403D01*
X135393802Y-101424076D01*
X135337896Y-101408351D01*
X135279270Y-101402989D01*
X135219357Y-101408750D01*
X135181975Y-101418313D01*
X135121888Y-101443604D01*
X135070573Y-101477769D01*
X135028580Y-101520060D01*
X134996455Y-101569730D01*
X134974749Y-101626029D01*
X134964009Y-101688211D01*
X134962900Y-101716974D01*
X134451725Y-101716974D01*
X134451730Y-101583283D01*
X134451751Y-101461194D01*
X134451795Y-101350609D01*
X134451866Y-101250931D01*
X134451973Y-101161562D01*
X134452120Y-101081904D01*
X134452315Y-101011360D01*
X134452563Y-100949331D01*
X134452871Y-100895219D01*
X134453246Y-100848428D01*
X134453694Y-100808360D01*
X134454220Y-100774416D01*
X134454833Y-100745998D01*
X134455536Y-100722510D01*
X134456339Y-100703352D01*
X134457245Y-100687929D01*
X134458263Y-100675641D01*
X134459397Y-100665890D01*
X134460656Y-100658080D01*
X134462044Y-100651613D01*
X134463089Y-100647591D01*
X134488100Y-100580294D01*
X134524009Y-100518163D01*
X134569654Y-100462395D01*
X134623869Y-100414185D01*
X134685491Y-100374728D01*
X134753354Y-100345221D01*
X134759515Y-100343164D01*
X134783012Y-100337087D01*
X134814635Y-100331063D01*
X134849834Y-100325875D01*
X134876990Y-100322902D01*
X134890607Y-100322115D01*
X134913201Y-100321409D01*
X134944995Y-100320782D01*
X134986215Y-100320235D01*
X135037085Y-100319767D01*
X135097830Y-100319379D01*
X135168674Y-100319068D01*
X135249842Y-100318837D01*
X135341558Y-100318683D01*
X135444047Y-100318607D01*
X135557533Y-100318609D01*
G36*
X133912644Y-100883238D02*
G01*
X133930280Y-100883486D01*
X133977221Y-100884230D01*
X134013388Y-100885008D01*
X134040706Y-100886028D01*
X134061100Y-100887497D01*
X134076495Y-100889620D01*
X134088815Y-100892605D01*
X134099987Y-100896658D01*
X134111933Y-100901987D01*
X134114731Y-100903292D01*
X134165248Y-100932710D01*
X134205967Y-100969461D01*
X134228023Y-100998160D01*
X134234914Y-101008394D01*
X134241022Y-101017632D01*
X134246396Y-101026661D01*
X134251081Y-101036271D01*
X134255124Y-101047249D01*
X134258574Y-101060384D01*
X134261477Y-101076463D01*
X134263879Y-101096275D01*
X134265829Y-101120609D01*
X134267373Y-101150252D01*
X134268557Y-101185992D01*
X134269430Y-101228618D01*
X134270038Y-101278918D01*
X134270428Y-101337680D01*
X134270648Y-101405693D01*
X134270743Y-101483744D01*
X134270762Y-101572622D01*
X134270752Y-101673115D01*
X134270750Y-101714118D01*
X134270754Y-101819649D01*
X134270738Y-101913267D01*
X134270656Y-101995756D01*
X134270466Y-102067902D01*
X134270123Y-102130491D01*
X134269583Y-102184309D01*
X134268802Y-102230142D01*
X134267736Y-102268776D01*
X134266340Y-102300995D01*
X134264571Y-102327587D01*
X134262384Y-102349337D01*
X134259736Y-102367030D01*
X134256582Y-102381452D01*
X134252878Y-102393389D01*
X134248581Y-102403628D01*
X134243645Y-102412953D01*
X134238027Y-102422150D01*
X134231683Y-102432006D01*
X134230351Y-102434083D01*
X134195101Y-102477676D01*
X134150359Y-102513933D01*
X134118543Y-102532077D01*
X134083425Y-102549325D01*
X133921500Y-102550684D01*
X133865190Y-102550940D01*
X133820358Y-102550629D01*
X133785788Y-102549706D01*
X133760269Y-102548127D01*
X133742588Y-102545847D01*
X133734175Y-102543793D01*
X133680705Y-102520157D01*
X133635026Y-102486821D01*
X133597976Y-102444512D01*
X133575944Y-102406468D01*
X133556375Y-102365175D01*
X133554698Y-101725889D01*
X133554428Y-101621747D01*
X133554205Y-101529534D01*
X133554043Y-101448477D01*
X133553955Y-101377803D01*
X133553955Y-101316741D01*
X133554056Y-101264519D01*
X133554273Y-101220364D01*
X133554617Y-101183505D01*
X133555103Y-101153170D01*
X133555744Y-101128586D01*
X133556555Y-101108982D01*
X133557547Y-101093585D01*
X133558735Y-101081623D01*
X133560132Y-101072325D01*
X133561751Y-101064917D01*
X133563607Y-101058629D01*
X133565712Y-101052688D01*
X133566489Y-101050606D01*
X133590013Y-101004802D01*
X133623553Y-100963411D01*
X133664612Y-100928676D01*
X133710694Y-100902838D01*
X133743699Y-100891476D01*
X133759563Y-100888039D01*
X133777746Y-100885539D01*
X133800198Y-100883892D01*
X133828866Y-100883015D01*
X133865698Y-100882825D01*
X133912644Y-100883238D01*
G37*
X133912644Y-100883238D02*
X133930280Y-100883486D01*
X133977221Y-100884230D01*
X134013388Y-100885008D01*
X134040706Y-100886028D01*
X134061100Y-100887497D01*
X134076495Y-100889620D01*
X134088815Y-100892605D01*
X134099987Y-100896658D01*
X134111933Y-100901987D01*
X134114731Y-100903292D01*
X134165248Y-100932710D01*
X134205967Y-100969461D01*
X134228023Y-100998160D01*
X134234914Y-101008394D01*
X134241022Y-101017632D01*
X134246396Y-101026661D01*
X134251081Y-101036271D01*
X134255124Y-101047249D01*
X134258574Y-101060384D01*
X134261477Y-101076463D01*
X134263879Y-101096275D01*
X134265829Y-101120609D01*
X134267373Y-101150252D01*
X134268557Y-101185992D01*
X134269430Y-101228618D01*
X134270038Y-101278918D01*
X134270428Y-101337680D01*
X134270648Y-101405693D01*
X134270743Y-101483744D01*
X134270762Y-101572622D01*
X134270752Y-101673115D01*
X134270750Y-101714118D01*
X134270754Y-101819649D01*
X134270738Y-101913267D01*
X134270656Y-101995756D01*
X134270466Y-102067902D01*
X134270123Y-102130491D01*
X134269583Y-102184309D01*
X134268802Y-102230142D01*
X134267736Y-102268776D01*
X134266340Y-102300995D01*
X134264571Y-102327587D01*
X134262384Y-102349337D01*
X134259736Y-102367030D01*
X134256582Y-102381452D01*
X134252878Y-102393389D01*
X134248581Y-102403628D01*
X134243645Y-102412953D01*
X134238027Y-102422150D01*
X134231683Y-102432006D01*
X134230351Y-102434083D01*
X134195101Y-102477676D01*
X134150359Y-102513933D01*
X134118543Y-102532077D01*
X134083425Y-102549325D01*
X133921500Y-102550684D01*
X133865190Y-102550940D01*
X133820358Y-102550629D01*
X133785788Y-102549706D01*
X133760269Y-102548127D01*
X133742588Y-102545847D01*
X133734175Y-102543793D01*
X133680705Y-102520157D01*
X133635026Y-102486821D01*
X133597976Y-102444512D01*
X133575944Y-102406468D01*
X133556375Y-102365175D01*
X133554698Y-101725889D01*
X133554428Y-101621747D01*
X133554205Y-101529534D01*
X133554043Y-101448477D01*
X133553955Y-101377803D01*
X133553955Y-101316741D01*
X133554056Y-101264519D01*
X133554273Y-101220364D01*
X133554617Y-101183505D01*
X133555103Y-101153170D01*
X133555744Y-101128586D01*
X133556555Y-101108982D01*
X133557547Y-101093585D01*
X133558735Y-101081623D01*
X133560132Y-101072325D01*
X133561751Y-101064917D01*
X133563607Y-101058629D01*
X133565712Y-101052688D01*
X133566489Y-101050606D01*
X133590013Y-101004802D01*
X133623553Y-100963411D01*
X133664612Y-100928676D01*
X133710694Y-100902838D01*
X133743699Y-100891476D01*
X133759563Y-100888039D01*
X133777746Y-100885539D01*
X133800198Y-100883892D01*
X133828866Y-100883015D01*
X133865698Y-100882825D01*
X133912644Y-100883238D01*
G36*
X139203702Y-100883202D02*
G01*
X139242289Y-100884316D01*
X139274302Y-100886020D01*
X139296994Y-100888313D01*
X139300521Y-100888908D01*
X139351011Y-100904732D01*
X139397071Y-100931362D01*
X139436918Y-100967181D01*
X139468766Y-101010576D01*
X139490832Y-101059930D01*
X139491413Y-101061773D01*
X139493354Y-101068534D01*
X139495069Y-101076112D01*
X139496572Y-101085293D01*
X139497877Y-101096859D01*
X139498998Y-101111597D01*
X139499948Y-101130289D01*
X139500742Y-101153722D01*
X139501394Y-101182679D01*
X139501917Y-101217945D01*
X139502325Y-101260304D01*
X139502633Y-101310541D01*
X139502854Y-101369441D01*
X139503002Y-101437787D01*
X139503092Y-101516365D01*
X139503136Y-101605959D01*
X139503149Y-101707353D01*
X139503150Y-101723259D01*
X139503135Y-101826960D01*
X139503083Y-101918730D01*
X139502981Y-101999339D01*
X139502816Y-102069554D01*
X139502577Y-102130145D01*
X139502251Y-102181882D01*
X139501825Y-102225532D01*
X139501288Y-102261866D01*
X139500626Y-102291652D01*
X139499827Y-102315659D01*
X139498879Y-102334656D01*
X139497769Y-102349412D01*
X139496486Y-102360696D01*
X139495016Y-102369277D01*
X139493347Y-102375925D01*
X139492582Y-102378331D01*
X139468999Y-102428778D01*
X139435004Y-102472980D01*
X139391987Y-102509388D01*
X139357100Y-102529479D01*
X139315825Y-102549325D01*
X139153900Y-102550684D01*
X139098558Y-102550951D01*
X139054545Y-102550686D01*
X139020497Y-102549836D01*
X138995053Y-102548349D01*
X138976849Y-102546174D01*
X138965216Y-102543484D01*
X138918003Y-102522176D01*
X138874278Y-102490602D01*
X138836748Y-102451173D01*
X138808119Y-102406300D01*
X138805793Y-102401484D01*
X138788775Y-102365175D01*
X138788775Y-101069775D01*
X138805893Y-101033245D01*
X138833876Y-100987322D01*
X138870827Y-100947843D01*
X138914511Y-100916577D01*
X138962696Y-100895296D01*
X138988079Y-100888895D01*
X139008380Y-100886472D01*
X139038601Y-100884638D01*
X139075992Y-100883395D01*
X139117806Y-100882741D01*
X139161292Y-100882676D01*
X139203702Y-100883202D01*
G37*
X139203702Y-100883202D02*
X139242289Y-100884316D01*
X139274302Y-100886020D01*
X139296994Y-100888313D01*
X139300521Y-100888908D01*
X139351011Y-100904732D01*
X139397071Y-100931362D01*
X139436918Y-100967181D01*
X139468766Y-101010576D01*
X139490832Y-101059930D01*
X139491413Y-101061773D01*
X139493354Y-101068534D01*
X139495069Y-101076112D01*
X139496572Y-101085293D01*
X139497877Y-101096859D01*
X139498998Y-101111597D01*
X139499948Y-101130289D01*
X139500742Y-101153722D01*
X139501394Y-101182679D01*
X139501917Y-101217945D01*
X139502325Y-101260304D01*
X139502633Y-101310541D01*
X139502854Y-101369441D01*
X139503002Y-101437787D01*
X139503092Y-101516365D01*
X139503136Y-101605959D01*
X139503149Y-101707353D01*
X139503150Y-101723259D01*
X139503135Y-101826960D01*
X139503083Y-101918730D01*
X139502981Y-101999339D01*
X139502816Y-102069554D01*
X139502577Y-102130145D01*
X139502251Y-102181882D01*
X139501825Y-102225532D01*
X139501288Y-102261866D01*
X139500626Y-102291652D01*
X139499827Y-102315659D01*
X139498879Y-102334656D01*
X139497769Y-102349412D01*
X139496486Y-102360696D01*
X139495016Y-102369277D01*
X139493347Y-102375925D01*
X139492582Y-102378331D01*
X139468999Y-102428778D01*
X139435004Y-102472980D01*
X139391987Y-102509388D01*
X139357100Y-102529479D01*
X139315825Y-102549325D01*
X139153900Y-102550684D01*
X139098558Y-102550951D01*
X139054545Y-102550686D01*
X139020497Y-102549836D01*
X138995053Y-102548349D01*
X138976849Y-102546174D01*
X138965216Y-102543484D01*
X138918003Y-102522176D01*
X138874278Y-102490602D01*
X138836748Y-102451173D01*
X138808119Y-102406300D01*
X138805793Y-102401484D01*
X138788775Y-102365175D01*
X138788775Y-101069775D01*
X138805893Y-101033245D01*
X138833876Y-100987322D01*
X138870827Y-100947843D01*
X138914511Y-100916577D01*
X138962696Y-100895296D01*
X138988079Y-100888895D01*
X139008380Y-100886472D01*
X139038601Y-100884638D01*
X139075992Y-100883395D01*
X139117806Y-100882741D01*
X139161292Y-100882676D01*
X139203702Y-100883202D01*
G36*
X136556985Y-98474587D02*
G01*
X136601616Y-98481066D01*
X136626600Y-98487937D01*
X136689037Y-98516103D01*
X136744836Y-98554272D01*
X136792724Y-98601235D01*
X136831426Y-98655781D01*
X136855422Y-98705335D01*
X136864763Y-98738513D01*
X136870823Y-98779606D01*
X136873388Y-98824207D01*
X136872247Y-98867909D01*
X136867188Y-98906304D01*
X136865441Y-98913950D01*
X136845603Y-98972672D01*
X136816726Y-99024841D01*
X136777148Y-99073339D01*
X136767862Y-99082792D01*
X136747056Y-99104713D01*
X136728979Y-99126142D01*
X136716205Y-99143915D01*
X136712299Y-99151155D01*
X136710328Y-99157375D01*
X136708642Y-99166508D01*
X136707220Y-99179493D01*
X136706040Y-99197264D01*
X136705082Y-99220760D01*
X136704325Y-99250916D01*
X136703747Y-99288670D01*
X136703327Y-99334957D01*
X136703044Y-99390715D01*
X136702878Y-99456881D01*
X136702806Y-99534391D01*
X136702800Y-99572993D01*
X136702794Y-99658447D01*
X136702718Y-99732179D01*
X136702484Y-99795165D01*
X136702003Y-99848383D01*
X136701187Y-99892811D01*
X136699948Y-99929425D01*
X136698196Y-99959204D01*
X136695844Y-99983123D01*
X136692804Y-100002162D01*
X136688986Y-100017297D01*
X136684303Y-100029505D01*
X136678666Y-100039764D01*
X136671987Y-100049052D01*
X136664177Y-100058344D01*
X136658308Y-100065014D01*
X136622999Y-100097027D01*
X136583368Y-100117252D01*
X136538324Y-100126184D01*
X136522165Y-100126737D01*
X136489295Y-100124911D01*
X136462593Y-100118739D01*
X136445625Y-100111825D01*
X136422899Y-100098263D01*
X136399316Y-100079725D01*
X136387312Y-100068040D01*
X136378471Y-100058381D01*
X136370829Y-100049400D01*
X136364298Y-100040139D01*
X136358792Y-100029644D01*
X136354222Y-100016959D01*
X136350503Y-100001128D01*
X136347545Y-99981196D01*
X136345263Y-99956207D01*
X136343568Y-99925205D01*
X136342373Y-99887235D01*
X136341592Y-99841341D01*
X136341136Y-99786567D01*
X136340919Y-99721959D01*
X136340852Y-99646559D01*
X136340850Y-99559608D01*
X136340850Y-99147122D01*
X136317125Y-99127373D01*
X136263977Y-99078101D01*
X136222812Y-99028228D01*
X136192933Y-98976403D01*
X136173646Y-98921275D01*
X136164254Y-98861495D01*
X136163050Y-98828225D01*
X136169092Y-98761444D01*
X136186642Y-98698685D01*
X136214838Y-98641102D01*
X136252817Y-98589848D01*
X136299715Y-98546076D01*
X136354669Y-98510940D01*
X136416816Y-98485593D01*
X136420225Y-98484565D01*
X136461423Y-98476257D01*
X136508632Y-98472957D01*
X136556985Y-98474587D01*
G37*
X136556985Y-98474587D02*
X136601616Y-98481066D01*
X136626600Y-98487937D01*
X136689037Y-98516103D01*
X136744836Y-98554272D01*
X136792724Y-98601235D01*
X136831426Y-98655781D01*
X136855422Y-98705335D01*
X136864763Y-98738513D01*
X136870823Y-98779606D01*
X136873388Y-98824207D01*
X136872247Y-98867909D01*
X136867188Y-98906304D01*
X136865441Y-98913950D01*
X136845603Y-98972672D01*
X136816726Y-99024841D01*
X136777148Y-99073339D01*
X136767862Y-99082792D01*
X136747056Y-99104713D01*
X136728979Y-99126142D01*
X136716205Y-99143915D01*
X136712299Y-99151155D01*
X136710328Y-99157375D01*
X136708642Y-99166508D01*
X136707220Y-99179493D01*
X136706040Y-99197264D01*
X136705082Y-99220760D01*
X136704325Y-99250916D01*
X136703747Y-99288670D01*
X136703327Y-99334957D01*
X136703044Y-99390715D01*
X136702878Y-99456881D01*
X136702806Y-99534391D01*
X136702800Y-99572993D01*
X136702794Y-99658447D01*
X136702718Y-99732179D01*
X136702484Y-99795165D01*
X136702003Y-99848383D01*
X136701187Y-99892811D01*
X136699948Y-99929425D01*
X136698196Y-99959204D01*
X136695844Y-99983123D01*
X136692804Y-100002162D01*
X136688986Y-100017297D01*
X136684303Y-100029505D01*
X136678666Y-100039764D01*
X136671987Y-100049052D01*
X136664177Y-100058344D01*
X136658308Y-100065014D01*
X136622999Y-100097027D01*
X136583368Y-100117252D01*
X136538324Y-100126184D01*
X136522165Y-100126737D01*
X136489295Y-100124911D01*
X136462593Y-100118739D01*
X136445625Y-100111825D01*
X136422899Y-100098263D01*
X136399316Y-100079725D01*
X136387312Y-100068040D01*
X136378471Y-100058381D01*
X136370829Y-100049400D01*
X136364298Y-100040139D01*
X136358792Y-100029644D01*
X136354222Y-100016959D01*
X136350503Y-100001128D01*
X136347545Y-99981196D01*
X136345263Y-99956207D01*
X136343568Y-99925205D01*
X136342373Y-99887235D01*
X136341592Y-99841341D01*
X136341136Y-99786567D01*
X136340919Y-99721959D01*
X136340852Y-99646559D01*
X136340850Y-99559608D01*
X136340850Y-99147122D01*
X136317125Y-99127373D01*
X136263977Y-99078101D01*
X136222812Y-99028228D01*
X136192933Y-98976403D01*
X136173646Y-98921275D01*
X136164254Y-98861495D01*
X136163050Y-98828225D01*
X136169092Y-98761444D01*
X136186642Y-98698685D01*
X136214838Y-98641102D01*
X136252817Y-98589848D01*
X136299715Y-98546076D01*
X136354669Y-98510940D01*
X136416816Y-98485593D01*
X136420225Y-98484565D01*
X136461423Y-98476257D01*
X136508632Y-98472957D01*
X136556985Y-98474587D01*
D11*
X153035000Y-92710000D03*
X155575000Y-92710000D03*
X158115000Y-92710000D03*
X160655000Y-92710000D03*
X150495000Y-92710000D03*
X147955000Y-92710000D03*
X145415000Y-92710000D03*
X160655000Y-90170000D03*
X160655000Y-87630000D03*
X160655000Y-85090000D03*
X160655000Y-82550000D03*
X160655000Y-80010000D03*
X160655000Y-77470000D03*
X160655000Y-74930000D03*
X160655000Y-72390000D03*
X160655000Y-69850000D03*
X160655000Y-67310000D03*
X160655000Y-64770000D03*
X160655000Y-62230000D03*
X160655000Y-59690000D03*
X145415000Y-90170000D03*
X145415000Y-87630000D03*
X145415000Y-85090000D03*
X145415000Y-82550000D03*
X145415000Y-80010000D03*
X145415000Y-77470000D03*
X145415000Y-74930000D03*
X145415000Y-72390000D03*
X145415000Y-69850000D03*
X145415000Y-67310000D03*
X145415000Y-64770000D03*
X145415000Y-62230000D03*
G36*
G01*
X144615000Y-58839200D02*
X146215000Y-58839200D01*
G75*
G02*
X146265800Y-58890000I0J-50800D01*
G01*
X146265800Y-60490000D01*
G75*
G02*
X146215000Y-60540800I-50800J0D01*
G01*
X144615000Y-60540800D01*
G75*
G02*
X144564200Y-60490000I0J50800D01*
G01*
X144564200Y-58890000D01*
G75*
G02*
X144615000Y-58839200I50800J0D01*
G01*
G37*
X120015000Y-92710000D03*
X122555000Y-92710000D03*
X125095000Y-92710000D03*
X127635000Y-92710000D03*
X117475000Y-92710000D03*
X114935000Y-92710000D03*
X112395000Y-92710000D03*
X127635000Y-90170000D03*
X127635000Y-87630000D03*
X127635000Y-85090000D03*
X127635000Y-82550000D03*
X127635000Y-80010000D03*
X127635000Y-77470000D03*
X127635000Y-74930000D03*
X127635000Y-72390000D03*
X127635000Y-69850000D03*
X127635000Y-67310000D03*
X127635000Y-64770000D03*
X127635000Y-62230000D03*
X127635000Y-59690000D03*
X112395000Y-90170000D03*
X112395000Y-87630000D03*
X112395000Y-85090000D03*
X112395000Y-82550000D03*
X112395000Y-80010000D03*
X112395000Y-77470000D03*
X112395000Y-74930000D03*
X112395000Y-72390000D03*
X112395000Y-69850000D03*
X112395000Y-67310000D03*
X112395000Y-64770000D03*
X112395000Y-62230000D03*
G36*
G01*
X111595000Y-58839200D02*
X113195000Y-58839200D01*
G75*
G02*
X113245800Y-58890000I0J-50800D01*
G01*
X113245800Y-60490000D01*
G75*
G02*
X113195000Y-60540800I-50800J0D01*
G01*
X111595000Y-60540800D01*
G75*
G02*
X111544200Y-60490000I0J50800D01*
G01*
X111544200Y-58890000D01*
G75*
G02*
X111595000Y-58839200I50800J0D01*
G01*
G37*
X153035000Y-110490000D03*
X150495000Y-110490000D03*
X147955000Y-110490000D03*
X145415000Y-110490000D03*
X155575000Y-110490000D03*
X158115000Y-110490000D03*
X160655000Y-110490000D03*
X145415000Y-113030000D03*
X145415000Y-115570000D03*
X145415000Y-118110000D03*
X145415000Y-120650000D03*
X145415000Y-123190000D03*
X145415000Y-125730000D03*
X145415000Y-128270000D03*
X145415000Y-130810000D03*
X145415000Y-133350000D03*
X145415000Y-135890000D03*
X145415000Y-138430000D03*
X145415000Y-140970000D03*
X145415000Y-143510000D03*
X160655000Y-113030000D03*
X160655000Y-115570000D03*
X160655000Y-118110000D03*
X160655000Y-120650000D03*
X160655000Y-123190000D03*
X160655000Y-125730000D03*
X160655000Y-128270000D03*
X160655000Y-130810000D03*
X160655000Y-133350000D03*
X160655000Y-135890000D03*
X160655000Y-138430000D03*
X160655000Y-140970000D03*
G36*
G01*
X161455000Y-144360800D02*
X159855000Y-144360800D01*
G75*
G02*
X159804200Y-144310000I0J50800D01*
G01*
X159804200Y-142710000D01*
G75*
G02*
X159855000Y-142659200I50800J0D01*
G01*
X161455000Y-142659200D01*
G75*
G02*
X161505800Y-142710000I0J-50800D01*
G01*
X161505800Y-144310000D01*
G75*
G02*
X161455000Y-144360800I-50800J0D01*
G01*
G37*
X120015000Y-110490000D03*
X117475000Y-110490000D03*
X114935000Y-110490000D03*
X112395000Y-110490000D03*
X122555000Y-110490000D03*
X125095000Y-110490000D03*
X127635000Y-110490000D03*
X112395000Y-113030000D03*
X112395000Y-115570000D03*
X112395000Y-118110000D03*
X112395000Y-120650000D03*
X112395000Y-123190000D03*
X112395000Y-125730000D03*
X112395000Y-128270000D03*
X112395000Y-130810000D03*
X112395000Y-133350000D03*
X112395000Y-135890000D03*
X112395000Y-138430000D03*
X112395000Y-140970000D03*
X112395000Y-143510000D03*
X127635000Y-113030000D03*
X127635000Y-115570000D03*
X127635000Y-118110000D03*
X127635000Y-120650000D03*
X127635000Y-123190000D03*
X127635000Y-125730000D03*
X127635000Y-128270000D03*
X127635000Y-130810000D03*
X127635000Y-133350000D03*
X127635000Y-135890000D03*
X127635000Y-138430000D03*
X127635000Y-140970000D03*
G36*
G01*
X128435000Y-144360800D02*
X126835000Y-144360800D01*
G75*
G02*
X126784200Y-144310000I0J50800D01*
G01*
X126784200Y-142710000D01*
G75*
G02*
X126835000Y-142659200I50800J0D01*
G01*
X128435000Y-142659200D01*
G75*
G02*
X128485800Y-142710000I0J-50800D01*
G01*
X128485800Y-144310000D01*
G75*
G02*
X128435000Y-144360800I-50800J0D01*
G01*
G37*
D12*
X104902000Y-148082000D03*
X104902000Y-54864000D03*
X168148000Y-54864000D03*
X168148000Y-148082000D03*
D13*
X167005000Y-128270000D03*
X167005000Y-130810000D03*
X167005000Y-133350000D03*
G36*
G01*
X167905800Y-135040000D02*
X167905800Y-136740000D01*
G75*
G02*
X167855000Y-136790800I-50800J0D01*
G01*
X166155000Y-136790800D01*
G75*
G02*
X166104200Y-136740000I0J50800D01*
G01*
X166104200Y-135040000D01*
G75*
G02*
X166155000Y-134989200I50800J0D01*
G01*
X167855000Y-134989200D01*
G75*
G02*
X167905800Y-135040000I0J-50800D01*
G01*
G37*
X164465000Y-110490000D03*
X164465000Y-113030000D03*
X164465000Y-115570000D03*
X164465000Y-118110000D03*
X164465000Y-120650000D03*
X164465000Y-123190000D03*
X164465000Y-125730000D03*
X164465000Y-128270000D03*
X164465000Y-130810000D03*
X164465000Y-133350000D03*
X164465000Y-135890000D03*
X164465000Y-138430000D03*
X164465000Y-140970000D03*
G36*
G01*
X165365800Y-142660000D02*
X165365800Y-144360000D01*
G75*
G02*
X165315000Y-144410800I-50800J0D01*
G01*
X163615000Y-144410800D01*
G75*
G02*
X163564200Y-144360000I0J50800D01*
G01*
X163564200Y-142660000D01*
G75*
G02*
X163615000Y-142609200I50800J0D01*
G01*
X165315000Y-142609200D01*
G75*
G02*
X165365800Y-142660000I0J-50800D01*
G01*
G37*
X108585000Y-92710000D03*
X108585000Y-90170000D03*
X108585000Y-87630000D03*
X108585000Y-85090000D03*
X108585000Y-82550000D03*
X108585000Y-80010000D03*
X108585000Y-77470000D03*
X108585000Y-74930000D03*
X108585000Y-72390000D03*
X108585000Y-69850000D03*
X108585000Y-67310000D03*
X108585000Y-64770000D03*
X108585000Y-62230000D03*
G36*
G01*
X107684200Y-60540000D02*
X107684200Y-58840000D01*
G75*
G02*
X107735000Y-58789200I50800J0D01*
G01*
X109435000Y-58789200D01*
G75*
G02*
X109485800Y-58840000I0J-50800D01*
G01*
X109485800Y-60540000D01*
G75*
G02*
X109435000Y-60590800I-50800J0D01*
G01*
X107735000Y-60590800D01*
G75*
G02*
X107684200Y-60540000I0J50800D01*
G01*
G37*
X141605000Y-110490000D03*
X141605000Y-113030000D03*
X141605000Y-115570000D03*
X141605000Y-118110000D03*
X141605000Y-120650000D03*
X141605000Y-123190000D03*
X141605000Y-125730000D03*
X141605000Y-128270000D03*
X141605000Y-130810000D03*
X141605000Y-133350000D03*
X141605000Y-135890000D03*
X141605000Y-138430000D03*
X141605000Y-140970000D03*
G36*
G01*
X142505800Y-142660000D02*
X142505800Y-144360000D01*
G75*
G02*
X142455000Y-144410800I-50800J0D01*
G01*
X140755000Y-144410800D01*
G75*
G02*
X140704200Y-144360000I0J50800D01*
G01*
X140704200Y-142660000D01*
G75*
G02*
X140755000Y-142609200I50800J0D01*
G01*
X142455000Y-142609200D01*
G75*
G02*
X142505800Y-142660000I0J-50800D01*
G01*
G37*
X131445000Y-92710000D03*
X131445000Y-90170000D03*
X131445000Y-87630000D03*
X131445000Y-85090000D03*
X131445000Y-82550000D03*
X131445000Y-80010000D03*
X131445000Y-77470000D03*
X131445000Y-74930000D03*
X131445000Y-72390000D03*
X131445000Y-69850000D03*
X131445000Y-67310000D03*
X131445000Y-64770000D03*
X131445000Y-62230000D03*
G36*
G01*
X130544200Y-60540000D02*
X130544200Y-58840000D01*
G75*
G02*
X130595000Y-58789200I50800J0D01*
G01*
X132295000Y-58789200D01*
G75*
G02*
X132345800Y-58840000I0J-50800D01*
G01*
X132345800Y-60540000D01*
G75*
G02*
X132295000Y-60590800I-50800J0D01*
G01*
X130595000Y-60590800D01*
G75*
G02*
X130544200Y-60540000I0J50800D01*
G01*
G37*
X131445000Y-110490000D03*
X131445000Y-113030000D03*
X131445000Y-115570000D03*
X131445000Y-118110000D03*
X131445000Y-120650000D03*
X131445000Y-123190000D03*
X131445000Y-125730000D03*
X131445000Y-128270000D03*
X131445000Y-130810000D03*
X131445000Y-133350000D03*
X131445000Y-135890000D03*
X131445000Y-138430000D03*
X131445000Y-140970000D03*
G36*
G01*
X132345800Y-142660000D02*
X132345800Y-144360000D01*
G75*
G02*
X132295000Y-144410800I-50800J0D01*
G01*
X130595000Y-144410800D01*
G75*
G02*
X130544200Y-144360000I0J50800D01*
G01*
X130544200Y-142660000D01*
G75*
G02*
X130595000Y-142609200I50800J0D01*
G01*
X132295000Y-142609200D01*
G75*
G02*
X132345800Y-142660000I0J-50800D01*
G01*
G37*
X141605000Y-92710000D03*
X141605000Y-90170000D03*
X141605000Y-87630000D03*
X141605000Y-85090000D03*
X141605000Y-82550000D03*
X141605000Y-80010000D03*
X141605000Y-77470000D03*
X141605000Y-74930000D03*
X141605000Y-72390000D03*
X141605000Y-69850000D03*
X141605000Y-67310000D03*
X141605000Y-64770000D03*
X141605000Y-62230000D03*
G36*
G01*
X140704200Y-60540000D02*
X140704200Y-58840000D01*
G75*
G02*
X140755000Y-58789200I50800J0D01*
G01*
X142455000Y-58789200D01*
G75*
G02*
X142505800Y-58840000I0J-50800D01*
G01*
X142505800Y-60540000D01*
G75*
G02*
X142455000Y-60590800I-50800J0D01*
G01*
X140755000Y-60590800D01*
G75*
G02*
X140704200Y-60540000I0J50800D01*
G01*
G37*
X108585000Y-143510000D03*
X108585000Y-140970000D03*
X108585000Y-138430000D03*
X108585000Y-135890000D03*
X108585000Y-133350000D03*
X108585000Y-130810000D03*
X108585000Y-128270000D03*
X108585000Y-125730000D03*
X108585000Y-123190000D03*
X108585000Y-120650000D03*
X108585000Y-118110000D03*
X108585000Y-115570000D03*
X108585000Y-113030000D03*
G36*
G01*
X107684200Y-111340000D02*
X107684200Y-109640000D01*
G75*
G02*
X107735000Y-109589200I50800J0D01*
G01*
X109435000Y-109589200D01*
G75*
G02*
X109485800Y-109640000I0J-50800D01*
G01*
X109485800Y-111340000D01*
G75*
G02*
X109435000Y-111390800I-50800J0D01*
G01*
X107735000Y-111390800D01*
G75*
G02*
X107684200Y-111340000I0J50800D01*
G01*
G37*
X164465000Y-92710000D03*
X164465000Y-90170000D03*
X164465000Y-87630000D03*
X164465000Y-85090000D03*
X164465000Y-82550000D03*
X164465000Y-80010000D03*
X164465000Y-77470000D03*
X164465000Y-74930000D03*
X164465000Y-72390000D03*
X164465000Y-69850000D03*
X164465000Y-67310000D03*
X164465000Y-64770000D03*
X164465000Y-62230000D03*
G36*
G01*
X163564200Y-60540000D02*
X163564200Y-58840000D01*
G75*
G02*
X163615000Y-58789200I50800J0D01*
G01*
X165315000Y-58789200D01*
G75*
G02*
X165365800Y-58840000I0J-50800D01*
G01*
X165365800Y-60540000D01*
G75*
G02*
X165315000Y-60590800I-50800J0D01*
G01*
X163615000Y-60590800D01*
G75*
G02*
X163564200Y-60540000I0J50800D01*
G01*
G37*
X108585000Y-100330000D03*
G36*
G01*
X109485800Y-102020000D02*
X109485800Y-103720000D01*
G75*
G02*
X109435000Y-103770800I-50800J0D01*
G01*
X107735000Y-103770800D01*
G75*
G02*
X107684200Y-103720000I0J50800D01*
G01*
X107684200Y-102020000D01*
G75*
G02*
X107735000Y-101969200I50800J0D01*
G01*
X109435000Y-101969200D01*
G75*
G02*
X109485800Y-102020000I0J-50800D01*
G01*
G37*
X164465000Y-102870000D03*
G36*
G01*
X163564200Y-101180000D02*
X163564200Y-99480000D01*
G75*
G02*
X163615000Y-99429200I50800J0D01*
G01*
X165315000Y-99429200D01*
G75*
G02*
X165365800Y-99480000I0J-50800D01*
G01*
X165365800Y-101180000D01*
G75*
G02*
X165315000Y-101230800I-50800J0D01*
G01*
X163615000Y-101230800D01*
G75*
G02*
X163564200Y-101180000I0J50800D01*
G01*
G37*
X139065000Y-74930000D03*
X139065000Y-72390000D03*
X139065000Y-69850000D03*
G36*
G01*
X138164200Y-68160000D02*
X138164200Y-66460000D01*
G75*
G02*
X138215000Y-66409200I50800J0D01*
G01*
X139915000Y-66409200D01*
G75*
G02*
X139965800Y-66460000I0J-50800D01*
G01*
X139965800Y-68160000D01*
G75*
G02*
X139915000Y-68210800I-50800J0D01*
G01*
X138215000Y-68210800D01*
G75*
G02*
X138164200Y-68160000I0J50800D01*
G01*
G37*
X133985000Y-128270000D03*
X133985000Y-130810000D03*
X133985000Y-133350000D03*
G36*
G01*
X134885800Y-135040000D02*
X134885800Y-136740000D01*
G75*
G02*
X134835000Y-136790800I-50800J0D01*
G01*
X133135000Y-136790800D01*
G75*
G02*
X133084200Y-136740000I0J50800D01*
G01*
X133084200Y-135040000D01*
G75*
G02*
X133135000Y-134989200I50800J0D01*
G01*
X134835000Y-134989200D01*
G75*
G02*
X134885800Y-135040000I0J-50800D01*
G01*
G37*
X106045000Y-74930000D03*
X106045000Y-72390000D03*
X106045000Y-69850000D03*
G36*
G01*
X105144200Y-68160000D02*
X105144200Y-66460000D01*
G75*
G02*
X105195000Y-66409200I50800J0D01*
G01*
X106895000Y-66409200D01*
G75*
G02*
X106945800Y-66460000I0J-50800D01*
G01*
X106945800Y-68160000D01*
G75*
G02*
X106895000Y-68210800I-50800J0D01*
G01*
X105195000Y-68210800D01*
G75*
G02*
X105144200Y-68160000I0J50800D01*
G01*
G37*
M02*
