G04 #@! TF.GenerationSoftware,KiCad,Pcbnew,(5.1.7-0-10_14)*
G04 #@! TF.CreationDate,2020-11-01T15:18:42-08:00*
G04 #@! TF.ProjectId,TeensyPCB_oshpark,5465656e-7379-4504-9342-5f6f73687061,rev?*
G04 #@! TF.SameCoordinates,Original*
G04 #@! TF.FileFunction,Soldermask,Top*
G04 #@! TF.FilePolarity,Negative*
%FSLAX46Y46*%
G04 Gerber Fmt 4.6, Leading zero omitted, Abs format (unit mm)*
G04 Created by KiCad (PCBNEW (5.1.7-0-10_14)) date 2020-11-01 15:18:42*
%MOMM*%
%LPD*%
G01*
G04 APERTURE LIST*
%ADD10C,1.801600*%
%ADD11C,3.101599*%
%ADD12O,1.801600X1.801600*%
G04 APERTURE END LIST*
D10*
X153035000Y-92710000D03*
X155575000Y-92710000D03*
X158115000Y-92710000D03*
X160655000Y-92710000D03*
X150495000Y-92710000D03*
X147955000Y-92710000D03*
X145415000Y-92710000D03*
X160655000Y-90170000D03*
X160655000Y-87630000D03*
X160655000Y-85090000D03*
X160655000Y-82550000D03*
X160655000Y-80010000D03*
X160655000Y-77470000D03*
X160655000Y-74930000D03*
X160655000Y-72390000D03*
X160655000Y-69850000D03*
X160655000Y-67310000D03*
X160655000Y-64770000D03*
X160655000Y-62230000D03*
X160655000Y-59690000D03*
X145415000Y-90170000D03*
X145415000Y-87630000D03*
X145415000Y-85090000D03*
X145415000Y-82550000D03*
X145415000Y-80010000D03*
X145415000Y-77470000D03*
X145415000Y-74930000D03*
X145415000Y-72390000D03*
X145415000Y-69850000D03*
X145415000Y-67310000D03*
X145415000Y-64770000D03*
X145415000Y-62230000D03*
G36*
G01*
X144615000Y-58839200D02*
X146215000Y-58839200D01*
G75*
G02*
X146265800Y-58890000I0J-50800D01*
G01*
X146265800Y-60490000D01*
G75*
G02*
X146215000Y-60540800I-50800J0D01*
G01*
X144615000Y-60540800D01*
G75*
G02*
X144564200Y-60490000I0J50800D01*
G01*
X144564200Y-58890000D01*
G75*
G02*
X144615000Y-58839200I50800J0D01*
G01*
G37*
X120015000Y-92710000D03*
X122555000Y-92710000D03*
X125095000Y-92710000D03*
X127635000Y-92710000D03*
X117475000Y-92710000D03*
X114935000Y-92710000D03*
X112395000Y-92710000D03*
X127635000Y-90170000D03*
X127635000Y-87630000D03*
X127635000Y-85090000D03*
X127635000Y-82550000D03*
X127635000Y-80010000D03*
X127635000Y-77470000D03*
X127635000Y-74930000D03*
X127635000Y-72390000D03*
X127635000Y-69850000D03*
X127635000Y-67310000D03*
X127635000Y-64770000D03*
X127635000Y-62230000D03*
X127635000Y-59690000D03*
X112395000Y-90170000D03*
X112395000Y-87630000D03*
X112395000Y-85090000D03*
X112395000Y-82550000D03*
X112395000Y-80010000D03*
X112395000Y-77470000D03*
X112395000Y-74930000D03*
X112395000Y-72390000D03*
X112395000Y-69850000D03*
X112395000Y-67310000D03*
X112395000Y-64770000D03*
X112395000Y-62230000D03*
G36*
G01*
X111595000Y-58839200D02*
X113195000Y-58839200D01*
G75*
G02*
X113245800Y-58890000I0J-50800D01*
G01*
X113245800Y-60490000D01*
G75*
G02*
X113195000Y-60540800I-50800J0D01*
G01*
X111595000Y-60540800D01*
G75*
G02*
X111544200Y-60490000I0J50800D01*
G01*
X111544200Y-58890000D01*
G75*
G02*
X111595000Y-58839200I50800J0D01*
G01*
G37*
X153035000Y-110490000D03*
X150495000Y-110490000D03*
X147955000Y-110490000D03*
X145415000Y-110490000D03*
X155575000Y-110490000D03*
X158115000Y-110490000D03*
X160655000Y-110490000D03*
X145415000Y-113030000D03*
X145415000Y-115570000D03*
X145415000Y-118110000D03*
X145415000Y-120650000D03*
X145415000Y-123190000D03*
X145415000Y-125730000D03*
X145415000Y-128270000D03*
X145415000Y-130810000D03*
X145415000Y-133350000D03*
X145415000Y-135890000D03*
X145415000Y-138430000D03*
X145415000Y-140970000D03*
X145415000Y-143510000D03*
X160655000Y-113030000D03*
X160655000Y-115570000D03*
X160655000Y-118110000D03*
X160655000Y-120650000D03*
X160655000Y-123190000D03*
X160655000Y-125730000D03*
X160655000Y-128270000D03*
X160655000Y-130810000D03*
X160655000Y-133350000D03*
X160655000Y-135890000D03*
X160655000Y-138430000D03*
X160655000Y-140970000D03*
G36*
G01*
X161455000Y-144360800D02*
X159855000Y-144360800D01*
G75*
G02*
X159804200Y-144310000I0J50800D01*
G01*
X159804200Y-142710000D01*
G75*
G02*
X159855000Y-142659200I50800J0D01*
G01*
X161455000Y-142659200D01*
G75*
G02*
X161505800Y-142710000I0J-50800D01*
G01*
X161505800Y-144310000D01*
G75*
G02*
X161455000Y-144360800I-50800J0D01*
G01*
G37*
X120015000Y-110490000D03*
X117475000Y-110490000D03*
X114935000Y-110490000D03*
X112395000Y-110490000D03*
X122555000Y-110490000D03*
X125095000Y-110490000D03*
X127635000Y-110490000D03*
X112395000Y-113030000D03*
X112395000Y-115570000D03*
X112395000Y-118110000D03*
X112395000Y-120650000D03*
X112395000Y-123190000D03*
X112395000Y-125730000D03*
X112395000Y-128270000D03*
X112395000Y-130810000D03*
X112395000Y-133350000D03*
X112395000Y-135890000D03*
X112395000Y-138430000D03*
X112395000Y-140970000D03*
X112395000Y-143510000D03*
X127635000Y-113030000D03*
X127635000Y-115570000D03*
X127635000Y-118110000D03*
X127635000Y-120650000D03*
X127635000Y-123190000D03*
X127635000Y-125730000D03*
X127635000Y-128270000D03*
X127635000Y-130810000D03*
X127635000Y-133350000D03*
X127635000Y-135890000D03*
X127635000Y-138430000D03*
X127635000Y-140970000D03*
G36*
G01*
X128435000Y-144360800D02*
X126835000Y-144360800D01*
G75*
G02*
X126784200Y-144310000I0J50800D01*
G01*
X126784200Y-142710000D01*
G75*
G02*
X126835000Y-142659200I50800J0D01*
G01*
X128435000Y-142659200D01*
G75*
G02*
X128485800Y-142710000I0J-50800D01*
G01*
X128485800Y-144310000D01*
G75*
G02*
X128435000Y-144360800I-50800J0D01*
G01*
G37*
D11*
X104902000Y-148082000D03*
X104902000Y-54864000D03*
X168148000Y-54864000D03*
X168148000Y-148082000D03*
D12*
X167005000Y-128270000D03*
X167005000Y-130810000D03*
X167005000Y-133350000D03*
G36*
G01*
X167905800Y-135040000D02*
X167905800Y-136740000D01*
G75*
G02*
X167855000Y-136790800I-50800J0D01*
G01*
X166155000Y-136790800D01*
G75*
G02*
X166104200Y-136740000I0J50800D01*
G01*
X166104200Y-135040000D01*
G75*
G02*
X166155000Y-134989200I50800J0D01*
G01*
X167855000Y-134989200D01*
G75*
G02*
X167905800Y-135040000I0J-50800D01*
G01*
G37*
X164465000Y-110490000D03*
X164465000Y-113030000D03*
X164465000Y-115570000D03*
X164465000Y-118110000D03*
X164465000Y-120650000D03*
X164465000Y-123190000D03*
X164465000Y-125730000D03*
X164465000Y-128270000D03*
X164465000Y-130810000D03*
X164465000Y-133350000D03*
X164465000Y-135890000D03*
X164465000Y-138430000D03*
X164465000Y-140970000D03*
G36*
G01*
X165365800Y-142660000D02*
X165365800Y-144360000D01*
G75*
G02*
X165315000Y-144410800I-50800J0D01*
G01*
X163615000Y-144410800D01*
G75*
G02*
X163564200Y-144360000I0J50800D01*
G01*
X163564200Y-142660000D01*
G75*
G02*
X163615000Y-142609200I50800J0D01*
G01*
X165315000Y-142609200D01*
G75*
G02*
X165365800Y-142660000I0J-50800D01*
G01*
G37*
X108585000Y-92710000D03*
X108585000Y-90170000D03*
X108585000Y-87630000D03*
X108585000Y-85090000D03*
X108585000Y-82550000D03*
X108585000Y-80010000D03*
X108585000Y-77470000D03*
X108585000Y-74930000D03*
X108585000Y-72390000D03*
X108585000Y-69850000D03*
X108585000Y-67310000D03*
X108585000Y-64770000D03*
X108585000Y-62230000D03*
G36*
G01*
X107684200Y-60540000D02*
X107684200Y-58840000D01*
G75*
G02*
X107735000Y-58789200I50800J0D01*
G01*
X109435000Y-58789200D01*
G75*
G02*
X109485800Y-58840000I0J-50800D01*
G01*
X109485800Y-60540000D01*
G75*
G02*
X109435000Y-60590800I-50800J0D01*
G01*
X107735000Y-60590800D01*
G75*
G02*
X107684200Y-60540000I0J50800D01*
G01*
G37*
X141605000Y-110490000D03*
X141605000Y-113030000D03*
X141605000Y-115570000D03*
X141605000Y-118110000D03*
X141605000Y-120650000D03*
X141605000Y-123190000D03*
X141605000Y-125730000D03*
X141605000Y-128270000D03*
X141605000Y-130810000D03*
X141605000Y-133350000D03*
X141605000Y-135890000D03*
X141605000Y-138430000D03*
X141605000Y-140970000D03*
G36*
G01*
X142505800Y-142660000D02*
X142505800Y-144360000D01*
G75*
G02*
X142455000Y-144410800I-50800J0D01*
G01*
X140755000Y-144410800D01*
G75*
G02*
X140704200Y-144360000I0J50800D01*
G01*
X140704200Y-142660000D01*
G75*
G02*
X140755000Y-142609200I50800J0D01*
G01*
X142455000Y-142609200D01*
G75*
G02*
X142505800Y-142660000I0J-50800D01*
G01*
G37*
X131445000Y-92710000D03*
X131445000Y-90170000D03*
X131445000Y-87630000D03*
X131445000Y-85090000D03*
X131445000Y-82550000D03*
X131445000Y-80010000D03*
X131445000Y-77470000D03*
X131445000Y-74930000D03*
X131445000Y-72390000D03*
X131445000Y-69850000D03*
X131445000Y-67310000D03*
X131445000Y-64770000D03*
X131445000Y-62230000D03*
G36*
G01*
X130544200Y-60540000D02*
X130544200Y-58840000D01*
G75*
G02*
X130595000Y-58789200I50800J0D01*
G01*
X132295000Y-58789200D01*
G75*
G02*
X132345800Y-58840000I0J-50800D01*
G01*
X132345800Y-60540000D01*
G75*
G02*
X132295000Y-60590800I-50800J0D01*
G01*
X130595000Y-60590800D01*
G75*
G02*
X130544200Y-60540000I0J50800D01*
G01*
G37*
X131445000Y-110490000D03*
X131445000Y-113030000D03*
X131445000Y-115570000D03*
X131445000Y-118110000D03*
X131445000Y-120650000D03*
X131445000Y-123190000D03*
X131445000Y-125730000D03*
X131445000Y-128270000D03*
X131445000Y-130810000D03*
X131445000Y-133350000D03*
X131445000Y-135890000D03*
X131445000Y-138430000D03*
X131445000Y-140970000D03*
G36*
G01*
X132345800Y-142660000D02*
X132345800Y-144360000D01*
G75*
G02*
X132295000Y-144410800I-50800J0D01*
G01*
X130595000Y-144410800D01*
G75*
G02*
X130544200Y-144360000I0J50800D01*
G01*
X130544200Y-142660000D01*
G75*
G02*
X130595000Y-142609200I50800J0D01*
G01*
X132295000Y-142609200D01*
G75*
G02*
X132345800Y-142660000I0J-50800D01*
G01*
G37*
X141605000Y-92710000D03*
X141605000Y-90170000D03*
X141605000Y-87630000D03*
X141605000Y-85090000D03*
X141605000Y-82550000D03*
X141605000Y-80010000D03*
X141605000Y-77470000D03*
X141605000Y-74930000D03*
X141605000Y-72390000D03*
X141605000Y-69850000D03*
X141605000Y-67310000D03*
X141605000Y-64770000D03*
X141605000Y-62230000D03*
G36*
G01*
X140704200Y-60540000D02*
X140704200Y-58840000D01*
G75*
G02*
X140755000Y-58789200I50800J0D01*
G01*
X142455000Y-58789200D01*
G75*
G02*
X142505800Y-58840000I0J-50800D01*
G01*
X142505800Y-60540000D01*
G75*
G02*
X142455000Y-60590800I-50800J0D01*
G01*
X140755000Y-60590800D01*
G75*
G02*
X140704200Y-60540000I0J50800D01*
G01*
G37*
X108585000Y-143510000D03*
X108585000Y-140970000D03*
X108585000Y-138430000D03*
X108585000Y-135890000D03*
X108585000Y-133350000D03*
X108585000Y-130810000D03*
X108585000Y-128270000D03*
X108585000Y-125730000D03*
X108585000Y-123190000D03*
X108585000Y-120650000D03*
X108585000Y-118110000D03*
X108585000Y-115570000D03*
X108585000Y-113030000D03*
G36*
G01*
X107684200Y-111340000D02*
X107684200Y-109640000D01*
G75*
G02*
X107735000Y-109589200I50800J0D01*
G01*
X109435000Y-109589200D01*
G75*
G02*
X109485800Y-109640000I0J-50800D01*
G01*
X109485800Y-111340000D01*
G75*
G02*
X109435000Y-111390800I-50800J0D01*
G01*
X107735000Y-111390800D01*
G75*
G02*
X107684200Y-111340000I0J50800D01*
G01*
G37*
X164465000Y-92710000D03*
X164465000Y-90170000D03*
X164465000Y-87630000D03*
X164465000Y-85090000D03*
X164465000Y-82550000D03*
X164465000Y-80010000D03*
X164465000Y-77470000D03*
X164465000Y-74930000D03*
X164465000Y-72390000D03*
X164465000Y-69850000D03*
X164465000Y-67310000D03*
X164465000Y-64770000D03*
X164465000Y-62230000D03*
G36*
G01*
X163564200Y-60540000D02*
X163564200Y-58840000D01*
G75*
G02*
X163615000Y-58789200I50800J0D01*
G01*
X165315000Y-58789200D01*
G75*
G02*
X165365800Y-58840000I0J-50800D01*
G01*
X165365800Y-60540000D01*
G75*
G02*
X165315000Y-60590800I-50800J0D01*
G01*
X163615000Y-60590800D01*
G75*
G02*
X163564200Y-60540000I0J50800D01*
G01*
G37*
X108585000Y-100330000D03*
G36*
G01*
X109485800Y-102020000D02*
X109485800Y-103720000D01*
G75*
G02*
X109435000Y-103770800I-50800J0D01*
G01*
X107735000Y-103770800D01*
G75*
G02*
X107684200Y-103720000I0J50800D01*
G01*
X107684200Y-102020000D01*
G75*
G02*
X107735000Y-101969200I50800J0D01*
G01*
X109435000Y-101969200D01*
G75*
G02*
X109485800Y-102020000I0J-50800D01*
G01*
G37*
X164465000Y-102870000D03*
G36*
G01*
X163564200Y-101180000D02*
X163564200Y-99480000D01*
G75*
G02*
X163615000Y-99429200I50800J0D01*
G01*
X165315000Y-99429200D01*
G75*
G02*
X165365800Y-99480000I0J-50800D01*
G01*
X165365800Y-101180000D01*
G75*
G02*
X165315000Y-101230800I-50800J0D01*
G01*
X163615000Y-101230800D01*
G75*
G02*
X163564200Y-101180000I0J50800D01*
G01*
G37*
X139065000Y-74930000D03*
X139065000Y-72390000D03*
X139065000Y-69850000D03*
G36*
G01*
X138164200Y-68160000D02*
X138164200Y-66460000D01*
G75*
G02*
X138215000Y-66409200I50800J0D01*
G01*
X139915000Y-66409200D01*
G75*
G02*
X139965800Y-66460000I0J-50800D01*
G01*
X139965800Y-68160000D01*
G75*
G02*
X139915000Y-68210800I-50800J0D01*
G01*
X138215000Y-68210800D01*
G75*
G02*
X138164200Y-68160000I0J50800D01*
G01*
G37*
X133985000Y-128270000D03*
X133985000Y-130810000D03*
X133985000Y-133350000D03*
G36*
G01*
X134885800Y-135040000D02*
X134885800Y-136740000D01*
G75*
G02*
X134835000Y-136790800I-50800J0D01*
G01*
X133135000Y-136790800D01*
G75*
G02*
X133084200Y-136740000I0J50800D01*
G01*
X133084200Y-135040000D01*
G75*
G02*
X133135000Y-134989200I50800J0D01*
G01*
X134835000Y-134989200D01*
G75*
G02*
X134885800Y-135040000I0J-50800D01*
G01*
G37*
X106045000Y-74930000D03*
X106045000Y-72390000D03*
X106045000Y-69850000D03*
G36*
G01*
X105144200Y-68160000D02*
X105144200Y-66460000D01*
G75*
G02*
X105195000Y-66409200I50800J0D01*
G01*
X106895000Y-66409200D01*
G75*
G02*
X106945800Y-66460000I0J-50800D01*
G01*
X106945800Y-68160000D01*
G75*
G02*
X106895000Y-68210800I-50800J0D01*
G01*
X105195000Y-68210800D01*
G75*
G02*
X105144200Y-68160000I0J50800D01*
G01*
G37*
M02*
