G04 #@! TF.GenerationSoftware,KiCad,Pcbnew,(5.1.7-0-10_14)*
G04 #@! TF.CreationDate,2020-11-01T15:18:42-08:00*
G04 #@! TF.ProjectId,TeensyPCB_oshpark,5465656e-7379-4504-9342-5f6f73687061,rev?*
G04 #@! TF.SameCoordinates,Original*
G04 #@! TF.FileFunction,Legend,Top*
G04 #@! TF.FilePolarity,Positive*
%FSLAX46Y46*%
G04 Gerber Fmt 4.6, Leading zero omitted, Abs format (unit mm)*
G04 Created by KiCad (PCBNEW (5.1.7-0-10_14)) date 2020-11-01 15:18:42*
%MOMM*%
%LPD*%
G01*
G04 APERTURE LIST*
%ADD10C,0.152400*%
%ADD11C,0.279400*%
%ADD12C,0.203200*%
%ADD13C,0.100000*%
%ADD14C,0.150000*%
%ADD15C,0.120000*%
G04 APERTURE END LIST*
D10*
X125047828Y-104208942D02*
X124776895Y-104208942D01*
X124776895Y-104634695D02*
X124776895Y-103821895D01*
X125163942Y-103821895D01*
X125821923Y-104634695D02*
X125821923Y-104208942D01*
X125783219Y-104131533D01*
X125705809Y-104092828D01*
X125550990Y-104092828D01*
X125473580Y-104131533D01*
X125821923Y-104595990D02*
X125744514Y-104634695D01*
X125550990Y-104634695D01*
X125473580Y-104595990D01*
X125434876Y-104518580D01*
X125434876Y-104441171D01*
X125473580Y-104363761D01*
X125550990Y-104325057D01*
X125744514Y-104325057D01*
X125821923Y-104286352D01*
X126208971Y-104634695D02*
X126208971Y-103821895D01*
X126208971Y-104131533D02*
X126286380Y-104092828D01*
X126441200Y-104092828D01*
X126518609Y-104131533D01*
X126557314Y-104170238D01*
X126596019Y-104247647D01*
X126596019Y-104479876D01*
X126557314Y-104557285D01*
X126518609Y-104595990D01*
X126441200Y-104634695D01*
X126286380Y-104634695D01*
X126208971Y-104595990D01*
X127486228Y-104092828D02*
X127679752Y-104634695D01*
X127873276Y-104092828D01*
X128608666Y-104634695D02*
X128144209Y-104634695D01*
X128376438Y-104634695D02*
X128376438Y-103821895D01*
X128299028Y-103938009D01*
X128221619Y-104015419D01*
X128144209Y-104054123D01*
X128957009Y-104557285D02*
X128995714Y-104595990D01*
X128957009Y-104634695D01*
X128918304Y-104595990D01*
X128957009Y-104557285D01*
X128957009Y-104634695D01*
X129498876Y-103821895D02*
X129576285Y-103821895D01*
X129653695Y-103860600D01*
X129692400Y-103899304D01*
X129731104Y-103976714D01*
X129769809Y-104131533D01*
X129769809Y-104325057D01*
X129731104Y-104479876D01*
X129692400Y-104557285D01*
X129653695Y-104595990D01*
X129576285Y-104634695D01*
X129498876Y-104634695D01*
X129421466Y-104595990D01*
X129382761Y-104557285D01*
X129344057Y-104479876D01*
X129305352Y-104325057D01*
X129305352Y-104131533D01*
X129344057Y-103976714D01*
X129382761Y-103899304D01*
X129421466Y-103860600D01*
X129498876Y-103821895D01*
X153859895Y-137866361D02*
X154440466Y-137866361D01*
X154556580Y-137905066D01*
X154633990Y-137982476D01*
X154672695Y-138098590D01*
X154672695Y-138176000D01*
X154672695Y-137092266D02*
X154672695Y-137479314D01*
X153859895Y-137479314D01*
X154595285Y-136356876D02*
X154633990Y-136395580D01*
X154672695Y-136511695D01*
X154672695Y-136589104D01*
X154633990Y-136705219D01*
X154556580Y-136782628D01*
X154479171Y-136821333D01*
X154324352Y-136860038D01*
X154208238Y-136860038D01*
X154053419Y-136821333D01*
X153976009Y-136782628D01*
X153898600Y-136705219D01*
X153859895Y-136589104D01*
X153859895Y-136511695D01*
X153898600Y-136395580D01*
X153937304Y-136356876D01*
X153859895Y-135776304D02*
X154440466Y-135776304D01*
X154556580Y-135815009D01*
X154633990Y-135892419D01*
X154672695Y-136008533D01*
X154672695Y-136085942D01*
X154672695Y-135002209D02*
X154672695Y-135389257D01*
X153859895Y-135389257D01*
X154595285Y-134266819D02*
X154633990Y-134305523D01*
X154672695Y-134421638D01*
X154672695Y-134499047D01*
X154633990Y-134615161D01*
X154556580Y-134692571D01*
X154479171Y-134731276D01*
X154324352Y-134769980D01*
X154208238Y-134769980D01*
X154053419Y-134731276D01*
X153976009Y-134692571D01*
X153898600Y-134615161D01*
X153859895Y-134499047D01*
X153859895Y-134421638D01*
X153898600Y-134305523D01*
X153937304Y-134266819D01*
X153859895Y-133686247D02*
X154440466Y-133686247D01*
X154556580Y-133724952D01*
X154633990Y-133802361D01*
X154672695Y-133918476D01*
X154672695Y-133995885D01*
X154672695Y-132912152D02*
X154672695Y-133299200D01*
X153859895Y-133299200D01*
X154595285Y-132176761D02*
X154633990Y-132215466D01*
X154672695Y-132331580D01*
X154672695Y-132408990D01*
X154633990Y-132525104D01*
X154556580Y-132602514D01*
X154479171Y-132641219D01*
X154324352Y-132679923D01*
X154208238Y-132679923D01*
X154053419Y-132641219D01*
X153976009Y-132602514D01*
X153898600Y-132525104D01*
X153859895Y-132408990D01*
X153859895Y-132331580D01*
X153898600Y-132215466D01*
X153937304Y-132176761D01*
X153859895Y-131596190D02*
X154440466Y-131596190D01*
X154556580Y-131634895D01*
X154633990Y-131712304D01*
X154672695Y-131828419D01*
X154672695Y-131905828D01*
X154672695Y-130822095D02*
X154672695Y-131209142D01*
X153859895Y-131209142D01*
X154595285Y-130086704D02*
X154633990Y-130125409D01*
X154672695Y-130241523D01*
X154672695Y-130318933D01*
X154633990Y-130435047D01*
X154556580Y-130512457D01*
X154479171Y-130551161D01*
X154324352Y-130589866D01*
X154208238Y-130589866D01*
X154053419Y-130551161D01*
X153976009Y-130512457D01*
X153898600Y-130435047D01*
X153859895Y-130318933D01*
X153859895Y-130241523D01*
X153898600Y-130125409D01*
X153937304Y-130086704D01*
D11*
X120819333Y-99153133D02*
X120226666Y-98306466D01*
X119803333Y-99153133D02*
X119803333Y-97375133D01*
X120480666Y-97375133D01*
X120650000Y-97459800D01*
X120734666Y-97544466D01*
X120819333Y-97713800D01*
X120819333Y-97967800D01*
X120734666Y-98137133D01*
X120650000Y-98221800D01*
X120480666Y-98306466D01*
X119803333Y-98306466D01*
X122258666Y-99068466D02*
X122089333Y-99153133D01*
X121750666Y-99153133D01*
X121581333Y-99068466D01*
X121496666Y-98899133D01*
X121496666Y-98221800D01*
X121581333Y-98052466D01*
X121750666Y-97967800D01*
X122089333Y-97967800D01*
X122258666Y-98052466D01*
X122343333Y-98221800D01*
X122343333Y-98391133D01*
X121496666Y-98560466D01*
X123105333Y-99153133D02*
X123105333Y-97967800D01*
X123105333Y-98137133D02*
X123190000Y-98052466D01*
X123359333Y-97967800D01*
X123613333Y-97967800D01*
X123782666Y-98052466D01*
X123867333Y-98221800D01*
X123867333Y-99153133D01*
X123867333Y-98221800D02*
X123952000Y-98052466D01*
X124121333Y-97967800D01*
X124375333Y-97967800D01*
X124544666Y-98052466D01*
X124629333Y-98221800D01*
X124629333Y-99153133D01*
X125730000Y-99153133D02*
X125560666Y-99068466D01*
X125476000Y-98983800D01*
X125391333Y-98814466D01*
X125391333Y-98306466D01*
X125476000Y-98137133D01*
X125560666Y-98052466D01*
X125730000Y-97967800D01*
X125984000Y-97967800D01*
X126153333Y-98052466D01*
X126238000Y-98137133D01*
X126322666Y-98306466D01*
X126322666Y-98814466D01*
X126238000Y-98983800D01*
X126153333Y-99068466D01*
X125984000Y-99153133D01*
X125730000Y-99153133D01*
X126830666Y-97967800D02*
X127508000Y-97967800D01*
X127084666Y-97375133D02*
X127084666Y-98899133D01*
X127169333Y-99068466D01*
X127338666Y-99153133D01*
X127508000Y-99153133D01*
X128778000Y-99068466D02*
X128608666Y-99153133D01*
X128270000Y-99153133D01*
X128100666Y-99068466D01*
X128016000Y-98899133D01*
X128016000Y-98221800D01*
X128100666Y-98052466D01*
X128270000Y-97967800D01*
X128608666Y-97967800D01*
X128778000Y-98052466D01*
X128862666Y-98221800D01*
X128862666Y-98391133D01*
X128016000Y-98560466D01*
X130979333Y-97375133D02*
X130979333Y-98814466D01*
X131064000Y-98983800D01*
X131148666Y-99068466D01*
X131318000Y-99153133D01*
X131656666Y-99153133D01*
X131826000Y-99068466D01*
X131910666Y-98983800D01*
X131995333Y-98814466D01*
X131995333Y-97375133D01*
X132757333Y-99068466D02*
X133011333Y-99153133D01*
X133434666Y-99153133D01*
X133604000Y-99068466D01*
X133688666Y-98983800D01*
X133773333Y-98814466D01*
X133773333Y-98645133D01*
X133688666Y-98475800D01*
X133604000Y-98391133D01*
X133434666Y-98306466D01*
X133096000Y-98221800D01*
X132926666Y-98137133D01*
X132842000Y-98052466D01*
X132757333Y-97883133D01*
X132757333Y-97713800D01*
X132842000Y-97544466D01*
X132926666Y-97459800D01*
X133096000Y-97375133D01*
X133519333Y-97375133D01*
X133773333Y-97459800D01*
X135128000Y-98221800D02*
X135382000Y-98306466D01*
X135466666Y-98391133D01*
X135551333Y-98560466D01*
X135551333Y-98814466D01*
X135466666Y-98983800D01*
X135382000Y-99068466D01*
X135212666Y-99153133D01*
X134535333Y-99153133D01*
X134535333Y-97375133D01*
X135128000Y-97375133D01*
X135297333Y-97459800D01*
X135382000Y-97544466D01*
X135466666Y-97713800D01*
X135466666Y-97883133D01*
X135382000Y-98052466D01*
X135297333Y-98137133D01*
X135128000Y-98221800D01*
X134535333Y-98221800D01*
X113665000Y-100321533D02*
X114681000Y-100321533D01*
X114173000Y-102099533D02*
X114173000Y-100321533D01*
X115951000Y-102014866D02*
X115781666Y-102099533D01*
X115443000Y-102099533D01*
X115273666Y-102014866D01*
X115189000Y-101845533D01*
X115189000Y-101168200D01*
X115273666Y-100998866D01*
X115443000Y-100914200D01*
X115781666Y-100914200D01*
X115951000Y-100998866D01*
X116035666Y-101168200D01*
X116035666Y-101337533D01*
X115189000Y-101506866D01*
X117475000Y-102014866D02*
X117305666Y-102099533D01*
X116967000Y-102099533D01*
X116797666Y-102014866D01*
X116713000Y-101845533D01*
X116713000Y-101168200D01*
X116797666Y-100998866D01*
X116967000Y-100914200D01*
X117305666Y-100914200D01*
X117475000Y-100998866D01*
X117559666Y-101168200D01*
X117559666Y-101337533D01*
X116713000Y-101506866D01*
X118321666Y-100914200D02*
X118321666Y-102099533D01*
X118321666Y-101083533D02*
X118406333Y-100998866D01*
X118575666Y-100914200D01*
X118829666Y-100914200D01*
X118999000Y-100998866D01*
X119083666Y-101168200D01*
X119083666Y-102099533D01*
X119845666Y-102014866D02*
X120015000Y-102099533D01*
X120353666Y-102099533D01*
X120523000Y-102014866D01*
X120607666Y-101845533D01*
X120607666Y-101760866D01*
X120523000Y-101591533D01*
X120353666Y-101506866D01*
X120099666Y-101506866D01*
X119930333Y-101422200D01*
X119845666Y-101252866D01*
X119845666Y-101168200D01*
X119930333Y-100998866D01*
X120099666Y-100914200D01*
X120353666Y-100914200D01*
X120523000Y-100998866D01*
X121200333Y-100914200D02*
X121623666Y-102099533D01*
X122047000Y-100914200D02*
X121623666Y-102099533D01*
X121454333Y-102522866D01*
X121369666Y-102607533D01*
X121200333Y-102692200D01*
X125095000Y-101930200D02*
X125010333Y-102014866D01*
X124756333Y-102099533D01*
X124587000Y-102099533D01*
X124333000Y-102014866D01*
X124163666Y-101845533D01*
X124079000Y-101676200D01*
X123994333Y-101337533D01*
X123994333Y-101083533D01*
X124079000Y-100744866D01*
X124163666Y-100575533D01*
X124333000Y-100406200D01*
X124587000Y-100321533D01*
X124756333Y-100321533D01*
X125010333Y-100406200D01*
X125095000Y-100490866D01*
X126619000Y-102099533D02*
X126619000Y-101168200D01*
X126534333Y-100998866D01*
X126365000Y-100914200D01*
X126026333Y-100914200D01*
X125857000Y-100998866D01*
X126619000Y-102014866D02*
X126449666Y-102099533D01*
X126026333Y-102099533D01*
X125857000Y-102014866D01*
X125772333Y-101845533D01*
X125772333Y-101676200D01*
X125857000Y-101506866D01*
X126026333Y-101422200D01*
X126449666Y-101422200D01*
X126619000Y-101337533D01*
X127465666Y-102099533D02*
X127465666Y-100914200D01*
X127465666Y-101252866D02*
X127550333Y-101083533D01*
X127635000Y-100998866D01*
X127804333Y-100914200D01*
X127973666Y-100914200D01*
X128566333Y-102099533D02*
X128566333Y-100914200D01*
X128566333Y-101252866D02*
X128651000Y-101083533D01*
X128735666Y-100998866D01*
X128905000Y-100914200D01*
X129074333Y-100914200D01*
X129667000Y-102099533D02*
X129667000Y-100914200D01*
X129667000Y-100321533D02*
X129582333Y-100406200D01*
X129667000Y-100490866D01*
X129751666Y-100406200D01*
X129667000Y-100321533D01*
X129667000Y-100490866D01*
X131191000Y-102014866D02*
X131021666Y-102099533D01*
X130683000Y-102099533D01*
X130513666Y-102014866D01*
X130429000Y-101845533D01*
X130429000Y-101168200D01*
X130513666Y-100998866D01*
X130683000Y-100914200D01*
X131021666Y-100914200D01*
X131191000Y-100998866D01*
X131275666Y-101168200D01*
X131275666Y-101337533D01*
X130429000Y-101506866D01*
X132037666Y-102099533D02*
X132037666Y-100914200D01*
X132037666Y-101252866D02*
X132122333Y-101083533D01*
X132207000Y-100998866D01*
X132376333Y-100914200D01*
X132545666Y-100914200D01*
X135085666Y-101168200D02*
X135339666Y-101252866D01*
X135424333Y-101337533D01*
X135509000Y-101506866D01*
X135509000Y-101760866D01*
X135424333Y-101930200D01*
X135339666Y-102014866D01*
X135170333Y-102099533D01*
X134493000Y-102099533D01*
X134493000Y-100321533D01*
X135085666Y-100321533D01*
X135255000Y-100406200D01*
X135339666Y-100490866D01*
X135424333Y-100660200D01*
X135424333Y-100829533D01*
X135339666Y-100998866D01*
X135255000Y-101083533D01*
X135085666Y-101168200D01*
X134493000Y-101168200D01*
X136525000Y-102099533D02*
X136355666Y-102014866D01*
X136271000Y-101930200D01*
X136186333Y-101760866D01*
X136186333Y-101252866D01*
X136271000Y-101083533D01*
X136355666Y-100998866D01*
X136525000Y-100914200D01*
X136779000Y-100914200D01*
X136948333Y-100998866D01*
X137033000Y-101083533D01*
X137117666Y-101252866D01*
X137117666Y-101760866D01*
X137033000Y-101930200D01*
X136948333Y-102014866D01*
X136779000Y-102099533D01*
X136525000Y-102099533D01*
X138641666Y-102099533D02*
X138641666Y-101168200D01*
X138557000Y-100998866D01*
X138387666Y-100914200D01*
X138049000Y-100914200D01*
X137879666Y-100998866D01*
X138641666Y-102014866D02*
X138472333Y-102099533D01*
X138049000Y-102099533D01*
X137879666Y-102014866D01*
X137795000Y-101845533D01*
X137795000Y-101676200D01*
X137879666Y-101506866D01*
X138049000Y-101422200D01*
X138472333Y-101422200D01*
X138641666Y-101337533D01*
X139488333Y-102099533D02*
X139488333Y-100914200D01*
X139488333Y-101252866D02*
X139573000Y-101083533D01*
X139657666Y-100998866D01*
X139827000Y-100914200D01*
X139996333Y-100914200D01*
X141351000Y-102099533D02*
X141351000Y-100321533D01*
X141351000Y-102014866D02*
X141181666Y-102099533D01*
X140843000Y-102099533D01*
X140673666Y-102014866D01*
X140589000Y-101930200D01*
X140504333Y-101760866D01*
X140504333Y-101252866D01*
X140589000Y-101083533D01*
X140673666Y-100998866D01*
X140843000Y-100914200D01*
X141181666Y-100914200D01*
X141351000Y-100998866D01*
D12*
X103559428Y-67056000D02*
X103632000Y-66910857D01*
X103704571Y-66838285D01*
X103849714Y-66765714D01*
X103922285Y-66765714D01*
X104067428Y-66838285D01*
X104140000Y-66910857D01*
X104212571Y-67056000D01*
X104212571Y-67346285D01*
X104140000Y-67491428D01*
X104067428Y-67564000D01*
X103922285Y-67636571D01*
X103849714Y-67636571D01*
X103704571Y-67564000D01*
X103632000Y-67491428D01*
X103559428Y-67346285D01*
X103559428Y-67056000D01*
X103486857Y-66910857D01*
X103414285Y-66838285D01*
X103269142Y-66765714D01*
X102978857Y-66765714D01*
X102833714Y-66838285D01*
X102761142Y-66910857D01*
X102688571Y-67056000D01*
X102688571Y-67346285D01*
X102761142Y-67491428D01*
X102833714Y-67564000D01*
X102978857Y-67636571D01*
X103269142Y-67636571D01*
X103414285Y-67564000D01*
X103486857Y-67491428D01*
X103559428Y-67346285D01*
X103704571Y-70104000D02*
X102688571Y-70104000D01*
X104285142Y-69741142D02*
X103196571Y-69378285D01*
X103196571Y-70321714D01*
X104067428Y-71990857D02*
X104140000Y-72063428D01*
X104212571Y-72208571D01*
X104212571Y-72571428D01*
X104140000Y-72716571D01*
X104067428Y-72789142D01*
X103922285Y-72861714D01*
X103777142Y-72861714D01*
X103559428Y-72789142D01*
X102688571Y-71918285D01*
X102688571Y-72861714D01*
X102688571Y-75474285D02*
X102688571Y-74603428D01*
X102688571Y-75038857D02*
X104212571Y-75038857D01*
X103994857Y-74893714D01*
X103849714Y-74748571D01*
X103777142Y-74603428D01*
X136325428Y-67056000D02*
X136398000Y-66910857D01*
X136470571Y-66838285D01*
X136615714Y-66765714D01*
X136688285Y-66765714D01*
X136833428Y-66838285D01*
X136906000Y-66910857D01*
X136978571Y-67056000D01*
X136978571Y-67346285D01*
X136906000Y-67491428D01*
X136833428Y-67564000D01*
X136688285Y-67636571D01*
X136615714Y-67636571D01*
X136470571Y-67564000D01*
X136398000Y-67491428D01*
X136325428Y-67346285D01*
X136325428Y-67056000D01*
X136252857Y-66910857D01*
X136180285Y-66838285D01*
X136035142Y-66765714D01*
X135744857Y-66765714D01*
X135599714Y-66838285D01*
X135527142Y-66910857D01*
X135454571Y-67056000D01*
X135454571Y-67346285D01*
X135527142Y-67491428D01*
X135599714Y-67564000D01*
X135744857Y-67636571D01*
X136035142Y-67636571D01*
X136180285Y-67564000D01*
X136252857Y-67491428D01*
X136325428Y-67346285D01*
X136470571Y-70104000D02*
X135454571Y-70104000D01*
X137051142Y-69741142D02*
X135962571Y-69378285D01*
X135962571Y-70321714D01*
X136833428Y-71990857D02*
X136906000Y-72063428D01*
X136978571Y-72208571D01*
X136978571Y-72571428D01*
X136906000Y-72716571D01*
X136833428Y-72789142D01*
X136688285Y-72861714D01*
X136543142Y-72861714D01*
X136325428Y-72789142D01*
X135454571Y-71918285D01*
X135454571Y-72861714D01*
X135454571Y-75474285D02*
X135454571Y-74603428D01*
X135454571Y-75038857D02*
X136978571Y-75038857D01*
X136760857Y-74893714D01*
X136615714Y-74748571D01*
X136543142Y-74603428D01*
X169490571Y-136144000D02*
X169418000Y-136289142D01*
X169345428Y-136361714D01*
X169200285Y-136434285D01*
X169127714Y-136434285D01*
X168982571Y-136361714D01*
X168910000Y-136289142D01*
X168837428Y-136144000D01*
X168837428Y-135853714D01*
X168910000Y-135708571D01*
X168982571Y-135636000D01*
X169127714Y-135563428D01*
X169200285Y-135563428D01*
X169345428Y-135636000D01*
X169418000Y-135708571D01*
X169490571Y-135853714D01*
X169490571Y-136144000D01*
X169563142Y-136289142D01*
X169635714Y-136361714D01*
X169780857Y-136434285D01*
X170071142Y-136434285D01*
X170216285Y-136361714D01*
X170288857Y-136289142D01*
X170361428Y-136144000D01*
X170361428Y-135853714D01*
X170288857Y-135708571D01*
X170216285Y-135636000D01*
X170071142Y-135563428D01*
X169780857Y-135563428D01*
X169635714Y-135636000D01*
X169563142Y-135708571D01*
X169490571Y-135853714D01*
X169345428Y-133096000D02*
X170361428Y-133096000D01*
X168764857Y-133458857D02*
X169853428Y-133821714D01*
X169853428Y-132878285D01*
X168982571Y-131209142D02*
X168910000Y-131136571D01*
X168837428Y-130991428D01*
X168837428Y-130628571D01*
X168910000Y-130483428D01*
X168982571Y-130410857D01*
X169127714Y-130338285D01*
X169272857Y-130338285D01*
X169490571Y-130410857D01*
X170361428Y-131281714D01*
X170361428Y-130338285D01*
X170361428Y-127725714D02*
X170361428Y-128596571D01*
X170361428Y-128161142D02*
X168837428Y-128161142D01*
X169055142Y-128306285D01*
X169200285Y-128451428D01*
X169272857Y-128596571D01*
X136470571Y-136144000D02*
X136398000Y-136289142D01*
X136325428Y-136361714D01*
X136180285Y-136434285D01*
X136107714Y-136434285D01*
X135962571Y-136361714D01*
X135890000Y-136289142D01*
X135817428Y-136144000D01*
X135817428Y-135853714D01*
X135890000Y-135708571D01*
X135962571Y-135636000D01*
X136107714Y-135563428D01*
X136180285Y-135563428D01*
X136325428Y-135636000D01*
X136398000Y-135708571D01*
X136470571Y-135853714D01*
X136470571Y-136144000D01*
X136543142Y-136289142D01*
X136615714Y-136361714D01*
X136760857Y-136434285D01*
X137051142Y-136434285D01*
X137196285Y-136361714D01*
X137268857Y-136289142D01*
X137341428Y-136144000D01*
X137341428Y-135853714D01*
X137268857Y-135708571D01*
X137196285Y-135636000D01*
X137051142Y-135563428D01*
X136760857Y-135563428D01*
X136615714Y-135636000D01*
X136543142Y-135708571D01*
X136470571Y-135853714D01*
X136325428Y-133096000D02*
X137341428Y-133096000D01*
X135744857Y-133458857D02*
X136833428Y-133821714D01*
X136833428Y-132878285D01*
X135962571Y-131209142D02*
X135890000Y-131136571D01*
X135817428Y-130991428D01*
X135817428Y-130628571D01*
X135890000Y-130483428D01*
X135962571Y-130410857D01*
X136107714Y-130338285D01*
X136252857Y-130338285D01*
X136470571Y-130410857D01*
X137341428Y-131281714D01*
X137341428Y-130338285D01*
X137341428Y-127725714D02*
X137341428Y-128596571D01*
X137341428Y-128161142D02*
X135817428Y-128161142D01*
X136035142Y-128306285D01*
X136180285Y-128451428D01*
X136252857Y-128596571D01*
D10*
X166878095Y-99830000D02*
X166782857Y-99782380D01*
X166640000Y-99782380D01*
X166497142Y-99830000D01*
X166401904Y-99925238D01*
X166354285Y-100020476D01*
X166306666Y-100210952D01*
X166306666Y-100353809D01*
X166354285Y-100544285D01*
X166401904Y-100639523D01*
X166497142Y-100734761D01*
X166640000Y-100782380D01*
X166735238Y-100782380D01*
X166878095Y-100734761D01*
X166925714Y-100687142D01*
X166925714Y-100353809D01*
X166735238Y-100353809D01*
X167354285Y-100782380D02*
X167354285Y-99782380D01*
X167925714Y-100782380D01*
X167925714Y-99782380D01*
X168401904Y-100782380D02*
X168401904Y-99782380D01*
X168640000Y-99782380D01*
X168782857Y-99830000D01*
X168878095Y-99925238D01*
X168925714Y-100020476D01*
X168973333Y-100210952D01*
X168973333Y-100353809D01*
X168925714Y-100544285D01*
X168878095Y-100639523D01*
X168782857Y-100734761D01*
X168640000Y-100782380D01*
X168401904Y-100782380D01*
X167473333Y-103322380D02*
X167140000Y-102846190D01*
X166901904Y-103322380D02*
X166901904Y-102322380D01*
X167282857Y-102322380D01*
X167378095Y-102370000D01*
X167425714Y-102417619D01*
X167473333Y-102512857D01*
X167473333Y-102655714D01*
X167425714Y-102750952D01*
X167378095Y-102798571D01*
X167282857Y-102846190D01*
X166901904Y-102846190D01*
X167806666Y-102322380D02*
X168473333Y-103322380D01*
X168473333Y-102322380D02*
X167806666Y-103322380D01*
X104648095Y-102370000D02*
X104552857Y-102322380D01*
X104410000Y-102322380D01*
X104267142Y-102370000D01*
X104171904Y-102465238D01*
X104124285Y-102560476D01*
X104076666Y-102750952D01*
X104076666Y-102893809D01*
X104124285Y-103084285D01*
X104171904Y-103179523D01*
X104267142Y-103274761D01*
X104410000Y-103322380D01*
X104505238Y-103322380D01*
X104648095Y-103274761D01*
X104695714Y-103227142D01*
X104695714Y-102893809D01*
X104505238Y-102893809D01*
X105124285Y-103322380D02*
X105124285Y-102322380D01*
X105695714Y-103322380D01*
X105695714Y-102322380D01*
X106171904Y-103322380D02*
X106171904Y-102322380D01*
X106410000Y-102322380D01*
X106552857Y-102370000D01*
X106648095Y-102465238D01*
X106695714Y-102560476D01*
X106743333Y-102750952D01*
X106743333Y-102893809D01*
X106695714Y-103084285D01*
X106648095Y-103179523D01*
X106552857Y-103274761D01*
X106410000Y-103322380D01*
X106171904Y-103322380D01*
X105243333Y-100782380D02*
X104910000Y-100306190D01*
X104671904Y-100782380D02*
X104671904Y-99782380D01*
X105052857Y-99782380D01*
X105148095Y-99830000D01*
X105195714Y-99877619D01*
X105243333Y-99972857D01*
X105243333Y-100115714D01*
X105195714Y-100210952D01*
X105148095Y-100258571D01*
X105052857Y-100306190D01*
X104671904Y-100306190D01*
X105576666Y-99782380D02*
X106243333Y-100782380D01*
X106243333Y-99782380D02*
X105576666Y-100782380D01*
D13*
G36*
X146835000Y-95400000D02*
G01*
X146835000Y-95000000D01*
X146435000Y-95000000D01*
X146435000Y-95400000D01*
X146835000Y-95400000D01*
G37*
G36*
X147235000Y-95400000D02*
G01*
X147235000Y-95000000D01*
X146835000Y-95000000D01*
X146835000Y-95400000D01*
X147235000Y-95400000D01*
G37*
G36*
X147635000Y-95400000D02*
G01*
X147635000Y-95000000D01*
X147235000Y-95000000D01*
X147235000Y-95400000D01*
X147635000Y-95400000D01*
G37*
G36*
X148035000Y-95400000D02*
G01*
X148035000Y-95000000D01*
X147635000Y-95000000D01*
X147635000Y-95400000D01*
X148035000Y-95400000D01*
G37*
G36*
X148435000Y-95400000D02*
G01*
X148435000Y-95000000D01*
X148035000Y-95000000D01*
X148035000Y-95400000D01*
X148435000Y-95400000D01*
G37*
G36*
X148835000Y-95400000D02*
G01*
X148835000Y-95000000D01*
X148435000Y-95000000D01*
X148435000Y-95400000D01*
X148835000Y-95400000D01*
G37*
G36*
X149235000Y-95400000D02*
G01*
X149235000Y-95000000D01*
X148835000Y-95000000D01*
X148835000Y-95400000D01*
X149235000Y-95400000D01*
G37*
G36*
X150435000Y-95400000D02*
G01*
X150435000Y-95000000D01*
X150035000Y-95000000D01*
X150035000Y-95400000D01*
X150435000Y-95400000D01*
G37*
G36*
X151635000Y-95400000D02*
G01*
X151635000Y-95000000D01*
X151235000Y-95000000D01*
X151235000Y-95400000D01*
X151635000Y-95400000D01*
G37*
G36*
X152035000Y-95400000D02*
G01*
X152035000Y-95000000D01*
X151635000Y-95000000D01*
X151635000Y-95400000D01*
X152035000Y-95400000D01*
G37*
G36*
X153235000Y-95400000D02*
G01*
X153235000Y-95000000D01*
X152835000Y-95000000D01*
X152835000Y-95400000D01*
X153235000Y-95400000D01*
G37*
G36*
X153635000Y-95400000D02*
G01*
X153635000Y-95000000D01*
X153235000Y-95000000D01*
X153235000Y-95400000D01*
X153635000Y-95400000D01*
G37*
G36*
X154035000Y-95400000D02*
G01*
X154035000Y-95000000D01*
X153635000Y-95000000D01*
X153635000Y-95400000D01*
X154035000Y-95400000D01*
G37*
G36*
X155635000Y-95400000D02*
G01*
X155635000Y-95000000D01*
X155235000Y-95000000D01*
X155235000Y-95400000D01*
X155635000Y-95400000D01*
G37*
G36*
X157235000Y-95400000D02*
G01*
X157235000Y-95000000D01*
X156835000Y-95000000D01*
X156835000Y-95400000D01*
X157235000Y-95400000D01*
G37*
G36*
X157635000Y-95400000D02*
G01*
X157635000Y-95000000D01*
X157235000Y-95000000D01*
X157235000Y-95400000D01*
X157635000Y-95400000D01*
G37*
G36*
X158035000Y-95400000D02*
G01*
X158035000Y-95000000D01*
X157635000Y-95000000D01*
X157635000Y-95400000D01*
X158035000Y-95400000D01*
G37*
G36*
X158435000Y-95400000D02*
G01*
X158435000Y-95000000D01*
X158035000Y-95000000D01*
X158035000Y-95400000D01*
X158435000Y-95400000D01*
G37*
G36*
X158835000Y-95400000D02*
G01*
X158835000Y-95000000D01*
X158435000Y-95000000D01*
X158435000Y-95400000D01*
X158835000Y-95400000D01*
G37*
G36*
X159235000Y-95400000D02*
G01*
X159235000Y-95000000D01*
X158835000Y-95000000D01*
X158835000Y-95400000D01*
X159235000Y-95400000D01*
G37*
G36*
X159635000Y-95400000D02*
G01*
X159635000Y-95000000D01*
X159235000Y-95000000D01*
X159235000Y-95400000D01*
X159635000Y-95400000D01*
G37*
G36*
X146835000Y-95800000D02*
G01*
X146835000Y-95400000D01*
X146435000Y-95400000D01*
X146435000Y-95800000D01*
X146835000Y-95800000D01*
G37*
G36*
X149235000Y-95800000D02*
G01*
X149235000Y-95400000D01*
X148835000Y-95400000D01*
X148835000Y-95800000D01*
X149235000Y-95800000D01*
G37*
G36*
X150035000Y-95800000D02*
G01*
X150035000Y-95400000D01*
X149635000Y-95400000D01*
X149635000Y-95800000D01*
X150035000Y-95800000D01*
G37*
G36*
X154035000Y-95800000D02*
G01*
X154035000Y-95400000D01*
X153635000Y-95400000D01*
X153635000Y-95800000D01*
X154035000Y-95800000D01*
G37*
G36*
X154835000Y-95800000D02*
G01*
X154835000Y-95400000D01*
X154435000Y-95400000D01*
X154435000Y-95800000D01*
X154835000Y-95800000D01*
G37*
G36*
X155635000Y-95800000D02*
G01*
X155635000Y-95400000D01*
X155235000Y-95400000D01*
X155235000Y-95800000D01*
X155635000Y-95800000D01*
G37*
G36*
X157235000Y-95800000D02*
G01*
X157235000Y-95400000D01*
X156835000Y-95400000D01*
X156835000Y-95800000D01*
X157235000Y-95800000D01*
G37*
G36*
X159635000Y-95800000D02*
G01*
X159635000Y-95400000D01*
X159235000Y-95400000D01*
X159235000Y-95800000D01*
X159635000Y-95800000D01*
G37*
G36*
X146835000Y-96200000D02*
G01*
X146835000Y-95800000D01*
X146435000Y-95800000D01*
X146435000Y-96200000D01*
X146835000Y-96200000D01*
G37*
G36*
X147635000Y-96200000D02*
G01*
X147635000Y-95800000D01*
X147235000Y-95800000D01*
X147235000Y-96200000D01*
X147635000Y-96200000D01*
G37*
G36*
X148035000Y-96200000D02*
G01*
X148035000Y-95800000D01*
X147635000Y-95800000D01*
X147635000Y-96200000D01*
X148035000Y-96200000D01*
G37*
G36*
X148435000Y-96200000D02*
G01*
X148435000Y-95800000D01*
X148035000Y-95800000D01*
X148035000Y-96200000D01*
X148435000Y-96200000D01*
G37*
G36*
X149235000Y-96200000D02*
G01*
X149235000Y-95800000D01*
X148835000Y-95800000D01*
X148835000Y-96200000D01*
X149235000Y-96200000D01*
G37*
G36*
X150035000Y-96200000D02*
G01*
X150035000Y-95800000D01*
X149635000Y-95800000D01*
X149635000Y-96200000D01*
X150035000Y-96200000D01*
G37*
G36*
X150835000Y-96200000D02*
G01*
X150835000Y-95800000D01*
X150435000Y-95800000D01*
X150435000Y-96200000D01*
X150835000Y-96200000D01*
G37*
G36*
X151235000Y-96200000D02*
G01*
X151235000Y-95800000D01*
X150835000Y-95800000D01*
X150835000Y-96200000D01*
X151235000Y-96200000D01*
G37*
G36*
X151635000Y-96200000D02*
G01*
X151635000Y-95800000D01*
X151235000Y-95800000D01*
X151235000Y-96200000D01*
X151635000Y-96200000D01*
G37*
G36*
X152435000Y-96200000D02*
G01*
X152435000Y-95800000D01*
X152035000Y-95800000D01*
X152035000Y-96200000D01*
X152435000Y-96200000D01*
G37*
G36*
X155235000Y-96200000D02*
G01*
X155235000Y-95800000D01*
X154835000Y-95800000D01*
X154835000Y-96200000D01*
X155235000Y-96200000D01*
G37*
G36*
X155635000Y-96200000D02*
G01*
X155635000Y-95800000D01*
X155235000Y-95800000D01*
X155235000Y-96200000D01*
X155635000Y-96200000D01*
G37*
G36*
X157235000Y-96200000D02*
G01*
X157235000Y-95800000D01*
X156835000Y-95800000D01*
X156835000Y-96200000D01*
X157235000Y-96200000D01*
G37*
G36*
X158035000Y-96200000D02*
G01*
X158035000Y-95800000D01*
X157635000Y-95800000D01*
X157635000Y-96200000D01*
X158035000Y-96200000D01*
G37*
G36*
X158435000Y-96200000D02*
G01*
X158435000Y-95800000D01*
X158035000Y-95800000D01*
X158035000Y-96200000D01*
X158435000Y-96200000D01*
G37*
G36*
X158835000Y-96200000D02*
G01*
X158835000Y-95800000D01*
X158435000Y-95800000D01*
X158435000Y-96200000D01*
X158835000Y-96200000D01*
G37*
G36*
X159635000Y-96200000D02*
G01*
X159635000Y-95800000D01*
X159235000Y-95800000D01*
X159235000Y-96200000D01*
X159635000Y-96200000D01*
G37*
G36*
X146835000Y-96600000D02*
G01*
X146835000Y-96200000D01*
X146435000Y-96200000D01*
X146435000Y-96600000D01*
X146835000Y-96600000D01*
G37*
G36*
X147635000Y-96600000D02*
G01*
X147635000Y-96200000D01*
X147235000Y-96200000D01*
X147235000Y-96600000D01*
X147635000Y-96600000D01*
G37*
G36*
X148035000Y-96600000D02*
G01*
X148035000Y-96200000D01*
X147635000Y-96200000D01*
X147635000Y-96600000D01*
X148035000Y-96600000D01*
G37*
G36*
X148435000Y-96600000D02*
G01*
X148435000Y-96200000D01*
X148035000Y-96200000D01*
X148035000Y-96600000D01*
X148435000Y-96600000D01*
G37*
G36*
X149235000Y-96600000D02*
G01*
X149235000Y-96200000D01*
X148835000Y-96200000D01*
X148835000Y-96600000D01*
X149235000Y-96600000D01*
G37*
G36*
X150035000Y-96600000D02*
G01*
X150035000Y-96200000D01*
X149635000Y-96200000D01*
X149635000Y-96600000D01*
X150035000Y-96600000D01*
G37*
G36*
X150435000Y-96600000D02*
G01*
X150435000Y-96200000D01*
X150035000Y-96200000D01*
X150035000Y-96600000D01*
X150435000Y-96600000D01*
G37*
G36*
X150835000Y-96600000D02*
G01*
X150835000Y-96200000D01*
X150435000Y-96200000D01*
X150435000Y-96600000D01*
X150835000Y-96600000D01*
G37*
G36*
X151235000Y-96600000D02*
G01*
X151235000Y-96200000D01*
X150835000Y-96200000D01*
X150835000Y-96600000D01*
X151235000Y-96600000D01*
G37*
G36*
X152435000Y-96600000D02*
G01*
X152435000Y-96200000D01*
X152035000Y-96200000D01*
X152035000Y-96600000D01*
X152435000Y-96600000D01*
G37*
G36*
X153235000Y-96600000D02*
G01*
X153235000Y-96200000D01*
X152835000Y-96200000D01*
X152835000Y-96600000D01*
X153235000Y-96600000D01*
G37*
G36*
X154035000Y-96600000D02*
G01*
X154035000Y-96200000D01*
X153635000Y-96200000D01*
X153635000Y-96600000D01*
X154035000Y-96600000D01*
G37*
G36*
X154435000Y-96600000D02*
G01*
X154435000Y-96200000D01*
X154035000Y-96200000D01*
X154035000Y-96600000D01*
X154435000Y-96600000D01*
G37*
G36*
X154835000Y-96600000D02*
G01*
X154835000Y-96200000D01*
X154435000Y-96200000D01*
X154435000Y-96600000D01*
X154835000Y-96600000D01*
G37*
G36*
X155235000Y-96600000D02*
G01*
X155235000Y-96200000D01*
X154835000Y-96200000D01*
X154835000Y-96600000D01*
X155235000Y-96600000D01*
G37*
G36*
X156435000Y-96600000D02*
G01*
X156435000Y-96200000D01*
X156035000Y-96200000D01*
X156035000Y-96600000D01*
X156435000Y-96600000D01*
G37*
G36*
X157235000Y-96600000D02*
G01*
X157235000Y-96200000D01*
X156835000Y-96200000D01*
X156835000Y-96600000D01*
X157235000Y-96600000D01*
G37*
G36*
X158035000Y-96600000D02*
G01*
X158035000Y-96200000D01*
X157635000Y-96200000D01*
X157635000Y-96600000D01*
X158035000Y-96600000D01*
G37*
G36*
X158435000Y-96600000D02*
G01*
X158435000Y-96200000D01*
X158035000Y-96200000D01*
X158035000Y-96600000D01*
X158435000Y-96600000D01*
G37*
G36*
X158835000Y-96600000D02*
G01*
X158835000Y-96200000D01*
X158435000Y-96200000D01*
X158435000Y-96600000D01*
X158835000Y-96600000D01*
G37*
G36*
X159635000Y-96600000D02*
G01*
X159635000Y-96200000D01*
X159235000Y-96200000D01*
X159235000Y-96600000D01*
X159635000Y-96600000D01*
G37*
G36*
X146835000Y-97000000D02*
G01*
X146835000Y-96600000D01*
X146435000Y-96600000D01*
X146435000Y-97000000D01*
X146835000Y-97000000D01*
G37*
G36*
X147635000Y-97000000D02*
G01*
X147635000Y-96600000D01*
X147235000Y-96600000D01*
X147235000Y-97000000D01*
X147635000Y-97000000D01*
G37*
G36*
X148035000Y-97000000D02*
G01*
X148035000Y-96600000D01*
X147635000Y-96600000D01*
X147635000Y-97000000D01*
X148035000Y-97000000D01*
G37*
G36*
X148435000Y-97000000D02*
G01*
X148435000Y-96600000D01*
X148035000Y-96600000D01*
X148035000Y-97000000D01*
X148435000Y-97000000D01*
G37*
G36*
X149235000Y-97000000D02*
G01*
X149235000Y-96600000D01*
X148835000Y-96600000D01*
X148835000Y-97000000D01*
X149235000Y-97000000D01*
G37*
G36*
X150435000Y-97000000D02*
G01*
X150435000Y-96600000D01*
X150035000Y-96600000D01*
X150035000Y-97000000D01*
X150435000Y-97000000D01*
G37*
G36*
X151235000Y-97000000D02*
G01*
X151235000Y-96600000D01*
X150835000Y-96600000D01*
X150835000Y-97000000D01*
X151235000Y-97000000D01*
G37*
G36*
X151635000Y-97000000D02*
G01*
X151635000Y-96600000D01*
X151235000Y-96600000D01*
X151235000Y-97000000D01*
X151635000Y-97000000D01*
G37*
G36*
X152435000Y-97000000D02*
G01*
X152435000Y-96600000D01*
X152035000Y-96600000D01*
X152035000Y-97000000D01*
X152435000Y-97000000D01*
G37*
G36*
X152835000Y-97000000D02*
G01*
X152835000Y-96600000D01*
X152435000Y-96600000D01*
X152435000Y-97000000D01*
X152835000Y-97000000D01*
G37*
G36*
X153235000Y-97000000D02*
G01*
X153235000Y-96600000D01*
X152835000Y-96600000D01*
X152835000Y-97000000D01*
X153235000Y-97000000D01*
G37*
G36*
X153635000Y-97000000D02*
G01*
X153635000Y-96600000D01*
X153235000Y-96600000D01*
X153235000Y-97000000D01*
X153635000Y-97000000D01*
G37*
G36*
X154835000Y-97000000D02*
G01*
X154835000Y-96600000D01*
X154435000Y-96600000D01*
X154435000Y-97000000D01*
X154835000Y-97000000D01*
G37*
G36*
X155235000Y-97000000D02*
G01*
X155235000Y-96600000D01*
X154835000Y-96600000D01*
X154835000Y-97000000D01*
X155235000Y-97000000D01*
G37*
G36*
X156035000Y-97000000D02*
G01*
X156035000Y-96600000D01*
X155635000Y-96600000D01*
X155635000Y-97000000D01*
X156035000Y-97000000D01*
G37*
G36*
X157235000Y-97000000D02*
G01*
X157235000Y-96600000D01*
X156835000Y-96600000D01*
X156835000Y-97000000D01*
X157235000Y-97000000D01*
G37*
G36*
X158035000Y-97000000D02*
G01*
X158035000Y-96600000D01*
X157635000Y-96600000D01*
X157635000Y-97000000D01*
X158035000Y-97000000D01*
G37*
G36*
X158435000Y-97000000D02*
G01*
X158435000Y-96600000D01*
X158035000Y-96600000D01*
X158035000Y-97000000D01*
X158435000Y-97000000D01*
G37*
G36*
X158835000Y-97000000D02*
G01*
X158835000Y-96600000D01*
X158435000Y-96600000D01*
X158435000Y-97000000D01*
X158835000Y-97000000D01*
G37*
G36*
X159635000Y-97000000D02*
G01*
X159635000Y-96600000D01*
X159235000Y-96600000D01*
X159235000Y-97000000D01*
X159635000Y-97000000D01*
G37*
G36*
X146835000Y-97400000D02*
G01*
X146835000Y-97000000D01*
X146435000Y-97000000D01*
X146435000Y-97400000D01*
X146835000Y-97400000D01*
G37*
G36*
X149235000Y-97400000D02*
G01*
X149235000Y-97000000D01*
X148835000Y-97000000D01*
X148835000Y-97400000D01*
X149235000Y-97400000D01*
G37*
G36*
X150435000Y-97400000D02*
G01*
X150435000Y-97000000D01*
X150035000Y-97000000D01*
X150035000Y-97400000D01*
X150435000Y-97400000D01*
G37*
G36*
X151235000Y-97400000D02*
G01*
X151235000Y-97000000D01*
X150835000Y-97000000D01*
X150835000Y-97400000D01*
X151235000Y-97400000D01*
G37*
G36*
X151635000Y-97400000D02*
G01*
X151635000Y-97000000D01*
X151235000Y-97000000D01*
X151235000Y-97400000D01*
X151635000Y-97400000D01*
G37*
G36*
X152435000Y-97400000D02*
G01*
X152435000Y-97000000D01*
X152035000Y-97000000D01*
X152035000Y-97400000D01*
X152435000Y-97400000D01*
G37*
G36*
X152835000Y-97400000D02*
G01*
X152835000Y-97000000D01*
X152435000Y-97000000D01*
X152435000Y-97400000D01*
X152835000Y-97400000D01*
G37*
G36*
X153635000Y-97400000D02*
G01*
X153635000Y-97000000D01*
X153235000Y-97000000D01*
X153235000Y-97400000D01*
X153635000Y-97400000D01*
G37*
G36*
X154435000Y-97400000D02*
G01*
X154435000Y-97000000D01*
X154035000Y-97000000D01*
X154035000Y-97400000D01*
X154435000Y-97400000D01*
G37*
G36*
X155235000Y-97400000D02*
G01*
X155235000Y-97000000D01*
X154835000Y-97000000D01*
X154835000Y-97400000D01*
X155235000Y-97400000D01*
G37*
G36*
X157235000Y-97400000D02*
G01*
X157235000Y-97000000D01*
X156835000Y-97000000D01*
X156835000Y-97400000D01*
X157235000Y-97400000D01*
G37*
G36*
X159635000Y-97400000D02*
G01*
X159635000Y-97000000D01*
X159235000Y-97000000D01*
X159235000Y-97400000D01*
X159635000Y-97400000D01*
G37*
G36*
X146835000Y-97800000D02*
G01*
X146835000Y-97400000D01*
X146435000Y-97400000D01*
X146435000Y-97800000D01*
X146835000Y-97800000D01*
G37*
G36*
X147235000Y-97800000D02*
G01*
X147235000Y-97400000D01*
X146835000Y-97400000D01*
X146835000Y-97800000D01*
X147235000Y-97800000D01*
G37*
G36*
X147635000Y-97800000D02*
G01*
X147635000Y-97400000D01*
X147235000Y-97400000D01*
X147235000Y-97800000D01*
X147635000Y-97800000D01*
G37*
G36*
X148035000Y-97800000D02*
G01*
X148035000Y-97400000D01*
X147635000Y-97400000D01*
X147635000Y-97800000D01*
X148035000Y-97800000D01*
G37*
G36*
X148435000Y-97800000D02*
G01*
X148435000Y-97400000D01*
X148035000Y-97400000D01*
X148035000Y-97800000D01*
X148435000Y-97800000D01*
G37*
G36*
X148835000Y-97800000D02*
G01*
X148835000Y-97400000D01*
X148435000Y-97400000D01*
X148435000Y-97800000D01*
X148835000Y-97800000D01*
G37*
G36*
X149235000Y-97800000D02*
G01*
X149235000Y-97400000D01*
X148835000Y-97400000D01*
X148835000Y-97800000D01*
X149235000Y-97800000D01*
G37*
G36*
X150035000Y-97800000D02*
G01*
X150035000Y-97400000D01*
X149635000Y-97400000D01*
X149635000Y-97800000D01*
X150035000Y-97800000D01*
G37*
G36*
X150835000Y-97800000D02*
G01*
X150835000Y-97400000D01*
X150435000Y-97400000D01*
X150435000Y-97800000D01*
X150835000Y-97800000D01*
G37*
G36*
X151635000Y-97800000D02*
G01*
X151635000Y-97400000D01*
X151235000Y-97400000D01*
X151235000Y-97800000D01*
X151635000Y-97800000D01*
G37*
G36*
X152435000Y-97800000D02*
G01*
X152435000Y-97400000D01*
X152035000Y-97400000D01*
X152035000Y-97800000D01*
X152435000Y-97800000D01*
G37*
G36*
X153235000Y-97800000D02*
G01*
X153235000Y-97400000D01*
X152835000Y-97400000D01*
X152835000Y-97800000D01*
X153235000Y-97800000D01*
G37*
G36*
X154035000Y-97800000D02*
G01*
X154035000Y-97400000D01*
X153635000Y-97400000D01*
X153635000Y-97800000D01*
X154035000Y-97800000D01*
G37*
G36*
X154835000Y-97800000D02*
G01*
X154835000Y-97400000D01*
X154435000Y-97400000D01*
X154435000Y-97800000D01*
X154835000Y-97800000D01*
G37*
G36*
X155635000Y-97800000D02*
G01*
X155635000Y-97400000D01*
X155235000Y-97400000D01*
X155235000Y-97800000D01*
X155635000Y-97800000D01*
G37*
G36*
X156435000Y-97800000D02*
G01*
X156435000Y-97400000D01*
X156035000Y-97400000D01*
X156035000Y-97800000D01*
X156435000Y-97800000D01*
G37*
G36*
X157235000Y-97800000D02*
G01*
X157235000Y-97400000D01*
X156835000Y-97400000D01*
X156835000Y-97800000D01*
X157235000Y-97800000D01*
G37*
G36*
X157635000Y-97800000D02*
G01*
X157635000Y-97400000D01*
X157235000Y-97400000D01*
X157235000Y-97800000D01*
X157635000Y-97800000D01*
G37*
G36*
X158035000Y-97800000D02*
G01*
X158035000Y-97400000D01*
X157635000Y-97400000D01*
X157635000Y-97800000D01*
X158035000Y-97800000D01*
G37*
G36*
X158435000Y-97800000D02*
G01*
X158435000Y-97400000D01*
X158035000Y-97400000D01*
X158035000Y-97800000D01*
X158435000Y-97800000D01*
G37*
G36*
X158835000Y-97800000D02*
G01*
X158835000Y-97400000D01*
X158435000Y-97400000D01*
X158435000Y-97800000D01*
X158835000Y-97800000D01*
G37*
G36*
X159235000Y-97800000D02*
G01*
X159235000Y-97400000D01*
X158835000Y-97400000D01*
X158835000Y-97800000D01*
X159235000Y-97800000D01*
G37*
G36*
X159635000Y-97800000D02*
G01*
X159635000Y-97400000D01*
X159235000Y-97400000D01*
X159235000Y-97800000D01*
X159635000Y-97800000D01*
G37*
G36*
X150035000Y-98200000D02*
G01*
X150035000Y-97800000D01*
X149635000Y-97800000D01*
X149635000Y-98200000D01*
X150035000Y-98200000D01*
G37*
G36*
X150435000Y-98200000D02*
G01*
X150435000Y-97800000D01*
X150035000Y-97800000D01*
X150035000Y-98200000D01*
X150435000Y-98200000D01*
G37*
G36*
X151235000Y-98200000D02*
G01*
X151235000Y-97800000D01*
X150835000Y-97800000D01*
X150835000Y-98200000D01*
X151235000Y-98200000D01*
G37*
G36*
X151635000Y-98200000D02*
G01*
X151635000Y-97800000D01*
X151235000Y-97800000D01*
X151235000Y-98200000D01*
X151635000Y-98200000D01*
G37*
G36*
X152835000Y-98200000D02*
G01*
X152835000Y-97800000D01*
X152435000Y-97800000D01*
X152435000Y-98200000D01*
X152835000Y-98200000D01*
G37*
G36*
X153235000Y-98200000D02*
G01*
X153235000Y-97800000D01*
X152835000Y-97800000D01*
X152835000Y-98200000D01*
X153235000Y-98200000D01*
G37*
G36*
X154035000Y-98200000D02*
G01*
X154035000Y-97800000D01*
X153635000Y-97800000D01*
X153635000Y-98200000D01*
X154035000Y-98200000D01*
G37*
G36*
X154435000Y-98200000D02*
G01*
X154435000Y-97800000D01*
X154035000Y-97800000D01*
X154035000Y-98200000D01*
X154435000Y-98200000D01*
G37*
G36*
X154835000Y-98200000D02*
G01*
X154835000Y-97800000D01*
X154435000Y-97800000D01*
X154435000Y-98200000D01*
X154835000Y-98200000D01*
G37*
G36*
X156435000Y-98200000D02*
G01*
X156435000Y-97800000D01*
X156035000Y-97800000D01*
X156035000Y-98200000D01*
X156435000Y-98200000D01*
G37*
G36*
X146835000Y-98600000D02*
G01*
X146835000Y-98200000D01*
X146435000Y-98200000D01*
X146435000Y-98600000D01*
X146835000Y-98600000D01*
G37*
G36*
X149235000Y-98600000D02*
G01*
X149235000Y-98200000D01*
X148835000Y-98200000D01*
X148835000Y-98600000D01*
X149235000Y-98600000D01*
G37*
G36*
X150035000Y-98600000D02*
G01*
X150035000Y-98200000D01*
X149635000Y-98200000D01*
X149635000Y-98600000D01*
X150035000Y-98600000D01*
G37*
G36*
X150835000Y-98600000D02*
G01*
X150835000Y-98200000D01*
X150435000Y-98200000D01*
X150435000Y-98600000D01*
X150835000Y-98600000D01*
G37*
G36*
X151235000Y-98600000D02*
G01*
X151235000Y-98200000D01*
X150835000Y-98200000D01*
X150835000Y-98600000D01*
X151235000Y-98600000D01*
G37*
G36*
X152035000Y-98600000D02*
G01*
X152035000Y-98200000D01*
X151635000Y-98200000D01*
X151635000Y-98600000D01*
X152035000Y-98600000D01*
G37*
G36*
X153235000Y-98600000D02*
G01*
X153235000Y-98200000D01*
X152835000Y-98200000D01*
X152835000Y-98600000D01*
X153235000Y-98600000D01*
G37*
G36*
X153635000Y-98600000D02*
G01*
X153635000Y-98200000D01*
X153235000Y-98200000D01*
X153235000Y-98600000D01*
X153635000Y-98600000D01*
G37*
G36*
X154435000Y-98600000D02*
G01*
X154435000Y-98200000D01*
X154035000Y-98200000D01*
X154035000Y-98600000D01*
X154435000Y-98600000D01*
G37*
G36*
X156835000Y-98600000D02*
G01*
X156835000Y-98200000D01*
X156435000Y-98200000D01*
X156435000Y-98600000D01*
X156835000Y-98600000D01*
G37*
G36*
X157235000Y-98600000D02*
G01*
X157235000Y-98200000D01*
X156835000Y-98200000D01*
X156835000Y-98600000D01*
X157235000Y-98600000D01*
G37*
G36*
X158435000Y-98600000D02*
G01*
X158435000Y-98200000D01*
X158035000Y-98200000D01*
X158035000Y-98600000D01*
X158435000Y-98600000D01*
G37*
G36*
X158835000Y-98600000D02*
G01*
X158835000Y-98200000D01*
X158435000Y-98200000D01*
X158435000Y-98600000D01*
X158835000Y-98600000D01*
G37*
G36*
X159235000Y-98600000D02*
G01*
X159235000Y-98200000D01*
X158835000Y-98200000D01*
X158835000Y-98600000D01*
X159235000Y-98600000D01*
G37*
G36*
X148035000Y-99000000D02*
G01*
X148035000Y-98600000D01*
X147635000Y-98600000D01*
X147635000Y-99000000D01*
X148035000Y-99000000D01*
G37*
G36*
X148835000Y-99000000D02*
G01*
X148835000Y-98600000D01*
X148435000Y-98600000D01*
X148435000Y-99000000D01*
X148835000Y-99000000D01*
G37*
G36*
X149635000Y-99000000D02*
G01*
X149635000Y-98600000D01*
X149235000Y-98600000D01*
X149235000Y-99000000D01*
X149635000Y-99000000D01*
G37*
G36*
X150035000Y-99000000D02*
G01*
X150035000Y-98600000D01*
X149635000Y-98600000D01*
X149635000Y-99000000D01*
X150035000Y-99000000D01*
G37*
G36*
X150435000Y-99000000D02*
G01*
X150435000Y-98600000D01*
X150035000Y-98600000D01*
X150035000Y-99000000D01*
X150435000Y-99000000D01*
G37*
G36*
X150835000Y-99000000D02*
G01*
X150835000Y-98600000D01*
X150435000Y-98600000D01*
X150435000Y-99000000D01*
X150835000Y-99000000D01*
G37*
G36*
X151635000Y-99000000D02*
G01*
X151635000Y-98600000D01*
X151235000Y-98600000D01*
X151235000Y-99000000D01*
X151635000Y-99000000D01*
G37*
G36*
X152035000Y-99000000D02*
G01*
X152035000Y-98600000D01*
X151635000Y-98600000D01*
X151635000Y-99000000D01*
X152035000Y-99000000D01*
G37*
G36*
X152835000Y-99000000D02*
G01*
X152835000Y-98600000D01*
X152435000Y-98600000D01*
X152435000Y-99000000D01*
X152835000Y-99000000D01*
G37*
G36*
X153235000Y-99000000D02*
G01*
X153235000Y-98600000D01*
X152835000Y-98600000D01*
X152835000Y-99000000D01*
X153235000Y-99000000D01*
G37*
G36*
X153635000Y-99000000D02*
G01*
X153635000Y-98600000D01*
X153235000Y-98600000D01*
X153235000Y-99000000D01*
X153635000Y-99000000D01*
G37*
G36*
X154035000Y-99000000D02*
G01*
X154035000Y-98600000D01*
X153635000Y-98600000D01*
X153635000Y-99000000D01*
X154035000Y-99000000D01*
G37*
G36*
X154435000Y-99000000D02*
G01*
X154435000Y-98600000D01*
X154035000Y-98600000D01*
X154035000Y-99000000D01*
X154435000Y-99000000D01*
G37*
G36*
X155635000Y-99000000D02*
G01*
X155635000Y-98600000D01*
X155235000Y-98600000D01*
X155235000Y-99000000D01*
X155635000Y-99000000D01*
G37*
G36*
X156035000Y-99000000D02*
G01*
X156035000Y-98600000D01*
X155635000Y-98600000D01*
X155635000Y-99000000D01*
X156035000Y-99000000D01*
G37*
G36*
X158035000Y-99000000D02*
G01*
X158035000Y-98600000D01*
X157635000Y-98600000D01*
X157635000Y-99000000D01*
X158035000Y-99000000D01*
G37*
G36*
X158435000Y-99000000D02*
G01*
X158435000Y-98600000D01*
X158035000Y-98600000D01*
X158035000Y-99000000D01*
X158435000Y-99000000D01*
G37*
G36*
X158835000Y-99000000D02*
G01*
X158835000Y-98600000D01*
X158435000Y-98600000D01*
X158435000Y-99000000D01*
X158835000Y-99000000D01*
G37*
G36*
X159235000Y-99000000D02*
G01*
X159235000Y-98600000D01*
X158835000Y-98600000D01*
X158835000Y-99000000D01*
X159235000Y-99000000D01*
G37*
G36*
X159635000Y-99000000D02*
G01*
X159635000Y-98600000D01*
X159235000Y-98600000D01*
X159235000Y-99000000D01*
X159635000Y-99000000D01*
G37*
G36*
X147635000Y-99400000D02*
G01*
X147635000Y-99000000D01*
X147235000Y-99000000D01*
X147235000Y-99400000D01*
X147635000Y-99400000D01*
G37*
G36*
X148035000Y-99400000D02*
G01*
X148035000Y-99000000D01*
X147635000Y-99000000D01*
X147635000Y-99400000D01*
X148035000Y-99400000D01*
G37*
G36*
X148835000Y-99400000D02*
G01*
X148835000Y-99000000D01*
X148435000Y-99000000D01*
X148435000Y-99400000D01*
X148835000Y-99400000D01*
G37*
G36*
X149235000Y-99400000D02*
G01*
X149235000Y-99000000D01*
X148835000Y-99000000D01*
X148835000Y-99400000D01*
X149235000Y-99400000D01*
G37*
G36*
X149635000Y-99400000D02*
G01*
X149635000Y-99000000D01*
X149235000Y-99000000D01*
X149235000Y-99400000D01*
X149635000Y-99400000D01*
G37*
G36*
X150035000Y-99400000D02*
G01*
X150035000Y-99000000D01*
X149635000Y-99000000D01*
X149635000Y-99400000D01*
X150035000Y-99400000D01*
G37*
G36*
X151235000Y-99400000D02*
G01*
X151235000Y-99000000D01*
X150835000Y-99000000D01*
X150835000Y-99400000D01*
X151235000Y-99400000D01*
G37*
G36*
X152035000Y-99400000D02*
G01*
X152035000Y-99000000D01*
X151635000Y-99000000D01*
X151635000Y-99400000D01*
X152035000Y-99400000D01*
G37*
G36*
X152435000Y-99400000D02*
G01*
X152435000Y-99000000D01*
X152035000Y-99000000D01*
X152035000Y-99400000D01*
X152435000Y-99400000D01*
G37*
G36*
X152835000Y-99400000D02*
G01*
X152835000Y-99000000D01*
X152435000Y-99000000D01*
X152435000Y-99400000D01*
X152835000Y-99400000D01*
G37*
G36*
X153235000Y-99400000D02*
G01*
X153235000Y-99000000D01*
X152835000Y-99000000D01*
X152835000Y-99400000D01*
X153235000Y-99400000D01*
G37*
G36*
X153635000Y-99400000D02*
G01*
X153635000Y-99000000D01*
X153235000Y-99000000D01*
X153235000Y-99400000D01*
X153635000Y-99400000D01*
G37*
G36*
X155235000Y-99400000D02*
G01*
X155235000Y-99000000D01*
X154835000Y-99000000D01*
X154835000Y-99400000D01*
X155235000Y-99400000D01*
G37*
G36*
X155635000Y-99400000D02*
G01*
X155635000Y-99000000D01*
X155235000Y-99000000D01*
X155235000Y-99400000D01*
X155635000Y-99400000D01*
G37*
G36*
X156435000Y-99400000D02*
G01*
X156435000Y-99000000D01*
X156035000Y-99000000D01*
X156035000Y-99400000D01*
X156435000Y-99400000D01*
G37*
G36*
X156835000Y-99400000D02*
G01*
X156835000Y-99000000D01*
X156435000Y-99000000D01*
X156435000Y-99400000D01*
X156835000Y-99400000D01*
G37*
G36*
X158035000Y-99400000D02*
G01*
X158035000Y-99000000D01*
X157635000Y-99000000D01*
X157635000Y-99400000D01*
X158035000Y-99400000D01*
G37*
G36*
X158835000Y-99400000D02*
G01*
X158835000Y-99000000D01*
X158435000Y-99000000D01*
X158435000Y-99400000D01*
X158835000Y-99400000D01*
G37*
G36*
X159235000Y-99400000D02*
G01*
X159235000Y-99000000D01*
X158835000Y-99000000D01*
X158835000Y-99400000D01*
X159235000Y-99400000D01*
G37*
G36*
X146835000Y-99800000D02*
G01*
X146835000Y-99400000D01*
X146435000Y-99400000D01*
X146435000Y-99800000D01*
X146835000Y-99800000D01*
G37*
G36*
X147635000Y-99800000D02*
G01*
X147635000Y-99400000D01*
X147235000Y-99400000D01*
X147235000Y-99800000D01*
X147635000Y-99800000D01*
G37*
G36*
X148035000Y-99800000D02*
G01*
X148035000Y-99400000D01*
X147635000Y-99400000D01*
X147635000Y-99800000D01*
X148035000Y-99800000D01*
G37*
G36*
X148435000Y-99800000D02*
G01*
X148435000Y-99400000D01*
X148035000Y-99400000D01*
X148035000Y-99800000D01*
X148435000Y-99800000D01*
G37*
G36*
X149635000Y-99800000D02*
G01*
X149635000Y-99400000D01*
X149235000Y-99400000D01*
X149235000Y-99800000D01*
X149635000Y-99800000D01*
G37*
G36*
X150835000Y-99800000D02*
G01*
X150835000Y-99400000D01*
X150435000Y-99400000D01*
X150435000Y-99800000D01*
X150835000Y-99800000D01*
G37*
G36*
X151635000Y-99800000D02*
G01*
X151635000Y-99400000D01*
X151235000Y-99400000D01*
X151235000Y-99800000D01*
X151635000Y-99800000D01*
G37*
G36*
X152035000Y-99800000D02*
G01*
X152035000Y-99400000D01*
X151635000Y-99400000D01*
X151635000Y-99800000D01*
X152035000Y-99800000D01*
G37*
G36*
X153235000Y-99800000D02*
G01*
X153235000Y-99400000D01*
X152835000Y-99400000D01*
X152835000Y-99800000D01*
X153235000Y-99800000D01*
G37*
G36*
X153635000Y-99800000D02*
G01*
X153635000Y-99400000D01*
X153235000Y-99400000D01*
X153235000Y-99800000D01*
X153635000Y-99800000D01*
G37*
G36*
X154035000Y-99800000D02*
G01*
X154035000Y-99400000D01*
X153635000Y-99400000D01*
X153635000Y-99800000D01*
X154035000Y-99800000D01*
G37*
G36*
X154835000Y-99800000D02*
G01*
X154835000Y-99400000D01*
X154435000Y-99400000D01*
X154435000Y-99800000D01*
X154835000Y-99800000D01*
G37*
G36*
X155635000Y-99800000D02*
G01*
X155635000Y-99400000D01*
X155235000Y-99400000D01*
X155235000Y-99800000D01*
X155635000Y-99800000D01*
G37*
G36*
X156435000Y-99800000D02*
G01*
X156435000Y-99400000D01*
X156035000Y-99400000D01*
X156035000Y-99800000D01*
X156435000Y-99800000D01*
G37*
G36*
X156835000Y-99800000D02*
G01*
X156835000Y-99400000D01*
X156435000Y-99400000D01*
X156435000Y-99800000D01*
X156835000Y-99800000D01*
G37*
G36*
X157635000Y-99800000D02*
G01*
X157635000Y-99400000D01*
X157235000Y-99400000D01*
X157235000Y-99800000D01*
X157635000Y-99800000D01*
G37*
G36*
X158035000Y-99800000D02*
G01*
X158035000Y-99400000D01*
X157635000Y-99400000D01*
X157635000Y-99800000D01*
X158035000Y-99800000D01*
G37*
G36*
X158435000Y-99800000D02*
G01*
X158435000Y-99400000D01*
X158035000Y-99400000D01*
X158035000Y-99800000D01*
X158435000Y-99800000D01*
G37*
G36*
X158835000Y-99800000D02*
G01*
X158835000Y-99400000D01*
X158435000Y-99400000D01*
X158435000Y-99800000D01*
X158835000Y-99800000D01*
G37*
G36*
X159235000Y-99800000D02*
G01*
X159235000Y-99400000D01*
X158835000Y-99400000D01*
X158835000Y-99800000D01*
X159235000Y-99800000D01*
G37*
G36*
X159635000Y-99800000D02*
G01*
X159635000Y-99400000D01*
X159235000Y-99400000D01*
X159235000Y-99800000D01*
X159635000Y-99800000D01*
G37*
G36*
X146835000Y-100200000D02*
G01*
X146835000Y-99800000D01*
X146435000Y-99800000D01*
X146435000Y-100200000D01*
X146835000Y-100200000D01*
G37*
G36*
X149235000Y-100200000D02*
G01*
X149235000Y-99800000D01*
X148835000Y-99800000D01*
X148835000Y-100200000D01*
X149235000Y-100200000D01*
G37*
G36*
X149635000Y-100200000D02*
G01*
X149635000Y-99800000D01*
X149235000Y-99800000D01*
X149235000Y-100200000D01*
X149635000Y-100200000D01*
G37*
G36*
X150835000Y-100200000D02*
G01*
X150835000Y-99800000D01*
X150435000Y-99800000D01*
X150435000Y-100200000D01*
X150835000Y-100200000D01*
G37*
G36*
X151235000Y-100200000D02*
G01*
X151235000Y-99800000D01*
X150835000Y-99800000D01*
X150835000Y-100200000D01*
X151235000Y-100200000D01*
G37*
G36*
X152035000Y-100200000D02*
G01*
X152035000Y-99800000D01*
X151635000Y-99800000D01*
X151635000Y-100200000D01*
X152035000Y-100200000D01*
G37*
G36*
X153635000Y-100200000D02*
G01*
X153635000Y-99800000D01*
X153235000Y-99800000D01*
X153235000Y-100200000D01*
X153635000Y-100200000D01*
G37*
G36*
X154435000Y-100200000D02*
G01*
X154435000Y-99800000D01*
X154035000Y-99800000D01*
X154035000Y-100200000D01*
X154435000Y-100200000D01*
G37*
G36*
X156435000Y-100200000D02*
G01*
X156435000Y-99800000D01*
X156035000Y-99800000D01*
X156035000Y-100200000D01*
X156435000Y-100200000D01*
G37*
G36*
X157235000Y-100200000D02*
G01*
X157235000Y-99800000D01*
X156835000Y-99800000D01*
X156835000Y-100200000D01*
X157235000Y-100200000D01*
G37*
G36*
X157635000Y-100200000D02*
G01*
X157635000Y-99800000D01*
X157235000Y-99800000D01*
X157235000Y-100200000D01*
X157635000Y-100200000D01*
G37*
G36*
X147635000Y-100600000D02*
G01*
X147635000Y-100200000D01*
X147235000Y-100200000D01*
X147235000Y-100600000D01*
X147635000Y-100600000D01*
G37*
G36*
X148835000Y-100600000D02*
G01*
X148835000Y-100200000D01*
X148435000Y-100200000D01*
X148435000Y-100600000D01*
X148835000Y-100600000D01*
G37*
G36*
X150435000Y-100600000D02*
G01*
X150435000Y-100200000D01*
X150035000Y-100200000D01*
X150035000Y-100600000D01*
X150435000Y-100600000D01*
G37*
G36*
X151635000Y-100600000D02*
G01*
X151635000Y-100200000D01*
X151235000Y-100200000D01*
X151235000Y-100600000D01*
X151635000Y-100600000D01*
G37*
G36*
X153635000Y-100600000D02*
G01*
X153635000Y-100200000D01*
X153235000Y-100200000D01*
X153235000Y-100600000D01*
X153635000Y-100600000D01*
G37*
G36*
X154035000Y-100600000D02*
G01*
X154035000Y-100200000D01*
X153635000Y-100200000D01*
X153635000Y-100600000D01*
X154035000Y-100600000D01*
G37*
G36*
X155235000Y-100600000D02*
G01*
X155235000Y-100200000D01*
X154835000Y-100200000D01*
X154835000Y-100600000D01*
X155235000Y-100600000D01*
G37*
G36*
X155635000Y-100600000D02*
G01*
X155635000Y-100200000D01*
X155235000Y-100200000D01*
X155235000Y-100600000D01*
X155635000Y-100600000D01*
G37*
G36*
X156035000Y-100600000D02*
G01*
X156035000Y-100200000D01*
X155635000Y-100200000D01*
X155635000Y-100600000D01*
X156035000Y-100600000D01*
G37*
G36*
X156835000Y-100600000D02*
G01*
X156835000Y-100200000D01*
X156435000Y-100200000D01*
X156435000Y-100600000D01*
X156835000Y-100600000D01*
G37*
G36*
X157635000Y-100600000D02*
G01*
X157635000Y-100200000D01*
X157235000Y-100200000D01*
X157235000Y-100600000D01*
X157635000Y-100600000D01*
G37*
G36*
X158835000Y-100600000D02*
G01*
X158835000Y-100200000D01*
X158435000Y-100200000D01*
X158435000Y-100600000D01*
X158835000Y-100600000D01*
G37*
G36*
X159235000Y-100600000D02*
G01*
X159235000Y-100200000D01*
X158835000Y-100200000D01*
X158835000Y-100600000D01*
X159235000Y-100600000D01*
G37*
G36*
X159635000Y-100600000D02*
G01*
X159635000Y-100200000D01*
X159235000Y-100200000D01*
X159235000Y-100600000D01*
X159635000Y-100600000D01*
G37*
G36*
X148035000Y-101000000D02*
G01*
X148035000Y-100600000D01*
X147635000Y-100600000D01*
X147635000Y-101000000D01*
X148035000Y-101000000D01*
G37*
G36*
X148835000Y-101000000D02*
G01*
X148835000Y-100600000D01*
X148435000Y-100600000D01*
X148435000Y-101000000D01*
X148835000Y-101000000D01*
G37*
G36*
X149235000Y-101000000D02*
G01*
X149235000Y-100600000D01*
X148835000Y-100600000D01*
X148835000Y-101000000D01*
X149235000Y-101000000D01*
G37*
G36*
X149635000Y-101000000D02*
G01*
X149635000Y-100600000D01*
X149235000Y-100600000D01*
X149235000Y-101000000D01*
X149635000Y-101000000D01*
G37*
G36*
X150035000Y-101000000D02*
G01*
X150035000Y-100600000D01*
X149635000Y-100600000D01*
X149635000Y-101000000D01*
X150035000Y-101000000D01*
G37*
G36*
X150435000Y-101000000D02*
G01*
X150435000Y-100600000D01*
X150035000Y-100600000D01*
X150035000Y-101000000D01*
X150435000Y-101000000D01*
G37*
G36*
X152835000Y-101000000D02*
G01*
X152835000Y-100600000D01*
X152435000Y-100600000D01*
X152435000Y-101000000D01*
X152835000Y-101000000D01*
G37*
G36*
X153235000Y-101000000D02*
G01*
X153235000Y-100600000D01*
X152835000Y-100600000D01*
X152835000Y-101000000D01*
X153235000Y-101000000D01*
G37*
G36*
X153635000Y-101000000D02*
G01*
X153635000Y-100600000D01*
X153235000Y-100600000D01*
X153235000Y-101000000D01*
X153635000Y-101000000D01*
G37*
G36*
X154835000Y-101000000D02*
G01*
X154835000Y-100600000D01*
X154435000Y-100600000D01*
X154435000Y-101000000D01*
X154835000Y-101000000D01*
G37*
G36*
X155635000Y-101000000D02*
G01*
X155635000Y-100600000D01*
X155235000Y-100600000D01*
X155235000Y-101000000D01*
X155635000Y-101000000D01*
G37*
G36*
X156835000Y-101000000D02*
G01*
X156835000Y-100600000D01*
X156435000Y-100600000D01*
X156435000Y-101000000D01*
X156835000Y-101000000D01*
G37*
G36*
X157235000Y-101000000D02*
G01*
X157235000Y-100600000D01*
X156835000Y-100600000D01*
X156835000Y-101000000D01*
X157235000Y-101000000D01*
G37*
G36*
X157635000Y-101000000D02*
G01*
X157635000Y-100600000D01*
X157235000Y-100600000D01*
X157235000Y-101000000D01*
X157635000Y-101000000D01*
G37*
G36*
X159235000Y-101000000D02*
G01*
X159235000Y-100600000D01*
X158835000Y-100600000D01*
X158835000Y-101000000D01*
X159235000Y-101000000D01*
G37*
G36*
X146835000Y-101400000D02*
G01*
X146835000Y-101000000D01*
X146435000Y-101000000D01*
X146435000Y-101400000D01*
X146835000Y-101400000D01*
G37*
G36*
X147635000Y-101400000D02*
G01*
X147635000Y-101000000D01*
X147235000Y-101000000D01*
X147235000Y-101400000D01*
X147635000Y-101400000D01*
G37*
G36*
X148035000Y-101400000D02*
G01*
X148035000Y-101000000D01*
X147635000Y-101000000D01*
X147635000Y-101400000D01*
X148035000Y-101400000D01*
G37*
G36*
X148435000Y-101400000D02*
G01*
X148435000Y-101000000D01*
X148035000Y-101000000D01*
X148035000Y-101400000D01*
X148435000Y-101400000D01*
G37*
G36*
X148835000Y-101400000D02*
G01*
X148835000Y-101000000D01*
X148435000Y-101000000D01*
X148435000Y-101400000D01*
X148835000Y-101400000D01*
G37*
G36*
X150435000Y-101400000D02*
G01*
X150435000Y-101000000D01*
X150035000Y-101000000D01*
X150035000Y-101400000D01*
X150435000Y-101400000D01*
G37*
G36*
X150835000Y-101400000D02*
G01*
X150835000Y-101000000D01*
X150435000Y-101000000D01*
X150435000Y-101400000D01*
X150835000Y-101400000D01*
G37*
G36*
X152035000Y-101400000D02*
G01*
X152035000Y-101000000D01*
X151635000Y-101000000D01*
X151635000Y-101400000D01*
X152035000Y-101400000D01*
G37*
G36*
X152435000Y-101400000D02*
G01*
X152435000Y-101000000D01*
X152035000Y-101000000D01*
X152035000Y-101400000D01*
X152435000Y-101400000D01*
G37*
G36*
X153235000Y-101400000D02*
G01*
X153235000Y-101000000D01*
X152835000Y-101000000D01*
X152835000Y-101400000D01*
X153235000Y-101400000D01*
G37*
G36*
X154835000Y-101400000D02*
G01*
X154835000Y-101000000D01*
X154435000Y-101000000D01*
X154435000Y-101400000D01*
X154835000Y-101400000D01*
G37*
G36*
X155635000Y-101400000D02*
G01*
X155635000Y-101000000D01*
X155235000Y-101000000D01*
X155235000Y-101400000D01*
X155635000Y-101400000D01*
G37*
G36*
X156035000Y-101400000D02*
G01*
X156035000Y-101000000D01*
X155635000Y-101000000D01*
X155635000Y-101400000D01*
X156035000Y-101400000D01*
G37*
G36*
X156835000Y-101400000D02*
G01*
X156835000Y-101000000D01*
X156435000Y-101000000D01*
X156435000Y-101400000D01*
X156835000Y-101400000D01*
G37*
G36*
X157635000Y-101400000D02*
G01*
X157635000Y-101000000D01*
X157235000Y-101000000D01*
X157235000Y-101400000D01*
X157635000Y-101400000D01*
G37*
G36*
X158035000Y-101400000D02*
G01*
X158035000Y-101000000D01*
X157635000Y-101000000D01*
X157635000Y-101400000D01*
X158035000Y-101400000D01*
G37*
G36*
X158435000Y-101400000D02*
G01*
X158435000Y-101000000D01*
X158035000Y-101000000D01*
X158035000Y-101400000D01*
X158435000Y-101400000D01*
G37*
G36*
X158835000Y-101400000D02*
G01*
X158835000Y-101000000D01*
X158435000Y-101000000D01*
X158435000Y-101400000D01*
X158835000Y-101400000D01*
G37*
G36*
X159635000Y-101400000D02*
G01*
X159635000Y-101000000D01*
X159235000Y-101000000D01*
X159235000Y-101400000D01*
X159635000Y-101400000D01*
G37*
G36*
X146835000Y-101800000D02*
G01*
X146835000Y-101400000D01*
X146435000Y-101400000D01*
X146435000Y-101800000D01*
X146835000Y-101800000D01*
G37*
G36*
X147235000Y-101800000D02*
G01*
X147235000Y-101400000D01*
X146835000Y-101400000D01*
X146835000Y-101800000D01*
X147235000Y-101800000D01*
G37*
G36*
X147635000Y-101800000D02*
G01*
X147635000Y-101400000D01*
X147235000Y-101400000D01*
X147235000Y-101800000D01*
X147635000Y-101800000D01*
G37*
G36*
X148035000Y-101800000D02*
G01*
X148035000Y-101400000D01*
X147635000Y-101400000D01*
X147635000Y-101800000D01*
X148035000Y-101800000D01*
G37*
G36*
X148835000Y-101800000D02*
G01*
X148835000Y-101400000D01*
X148435000Y-101400000D01*
X148435000Y-101800000D01*
X148835000Y-101800000D01*
G37*
G36*
X149235000Y-101800000D02*
G01*
X149235000Y-101400000D01*
X148835000Y-101400000D01*
X148835000Y-101800000D01*
X149235000Y-101800000D01*
G37*
G36*
X150835000Y-101800000D02*
G01*
X150835000Y-101400000D01*
X150435000Y-101400000D01*
X150435000Y-101800000D01*
X150835000Y-101800000D01*
G37*
G36*
X151635000Y-101800000D02*
G01*
X151635000Y-101400000D01*
X151235000Y-101400000D01*
X151235000Y-101800000D01*
X151635000Y-101800000D01*
G37*
G36*
X152435000Y-101800000D02*
G01*
X152435000Y-101400000D01*
X152035000Y-101400000D01*
X152035000Y-101800000D01*
X152435000Y-101800000D01*
G37*
G36*
X152835000Y-101800000D02*
G01*
X152835000Y-101400000D01*
X152435000Y-101400000D01*
X152435000Y-101800000D01*
X152835000Y-101800000D01*
G37*
G36*
X153635000Y-101800000D02*
G01*
X153635000Y-101400000D01*
X153235000Y-101400000D01*
X153235000Y-101800000D01*
X153635000Y-101800000D01*
G37*
G36*
X154035000Y-101800000D02*
G01*
X154035000Y-101400000D01*
X153635000Y-101400000D01*
X153635000Y-101800000D01*
X154035000Y-101800000D01*
G37*
G36*
X154835000Y-101800000D02*
G01*
X154835000Y-101400000D01*
X154435000Y-101400000D01*
X154435000Y-101800000D01*
X154835000Y-101800000D01*
G37*
G36*
X155635000Y-101800000D02*
G01*
X155635000Y-101400000D01*
X155235000Y-101400000D01*
X155235000Y-101800000D01*
X155635000Y-101800000D01*
G37*
G36*
X156435000Y-101800000D02*
G01*
X156435000Y-101400000D01*
X156035000Y-101400000D01*
X156035000Y-101800000D01*
X156435000Y-101800000D01*
G37*
G36*
X156835000Y-101800000D02*
G01*
X156835000Y-101400000D01*
X156435000Y-101400000D01*
X156435000Y-101800000D01*
X156835000Y-101800000D01*
G37*
G36*
X157635000Y-101800000D02*
G01*
X157635000Y-101400000D01*
X157235000Y-101400000D01*
X157235000Y-101800000D01*
X157635000Y-101800000D01*
G37*
G36*
X158035000Y-101800000D02*
G01*
X158035000Y-101400000D01*
X157635000Y-101400000D01*
X157635000Y-101800000D01*
X158035000Y-101800000D01*
G37*
G36*
X159635000Y-101800000D02*
G01*
X159635000Y-101400000D01*
X159235000Y-101400000D01*
X159235000Y-101800000D01*
X159635000Y-101800000D01*
G37*
G36*
X147235000Y-102200000D02*
G01*
X147235000Y-101800000D01*
X146835000Y-101800000D01*
X146835000Y-102200000D01*
X147235000Y-102200000D01*
G37*
G36*
X148435000Y-102200000D02*
G01*
X148435000Y-101800000D01*
X148035000Y-101800000D01*
X148035000Y-102200000D01*
X148435000Y-102200000D01*
G37*
G36*
X149635000Y-102200000D02*
G01*
X149635000Y-101800000D01*
X149235000Y-101800000D01*
X149235000Y-102200000D01*
X149635000Y-102200000D01*
G37*
G36*
X150835000Y-102200000D02*
G01*
X150835000Y-101800000D01*
X150435000Y-101800000D01*
X150435000Y-102200000D01*
X150835000Y-102200000D01*
G37*
G36*
X152035000Y-102200000D02*
G01*
X152035000Y-101800000D01*
X151635000Y-101800000D01*
X151635000Y-102200000D01*
X152035000Y-102200000D01*
G37*
G36*
X152835000Y-102200000D02*
G01*
X152835000Y-101800000D01*
X152435000Y-101800000D01*
X152435000Y-102200000D01*
X152835000Y-102200000D01*
G37*
G36*
X154035000Y-102200000D02*
G01*
X154035000Y-101800000D01*
X153635000Y-101800000D01*
X153635000Y-102200000D01*
X154035000Y-102200000D01*
G37*
G36*
X154835000Y-102200000D02*
G01*
X154835000Y-101800000D01*
X154435000Y-101800000D01*
X154435000Y-102200000D01*
X154835000Y-102200000D01*
G37*
G36*
X156035000Y-102200000D02*
G01*
X156035000Y-101800000D01*
X155635000Y-101800000D01*
X155635000Y-102200000D01*
X156035000Y-102200000D01*
G37*
G36*
X157235000Y-102200000D02*
G01*
X157235000Y-101800000D01*
X156835000Y-101800000D01*
X156835000Y-102200000D01*
X157235000Y-102200000D01*
G37*
G36*
X158435000Y-102200000D02*
G01*
X158435000Y-101800000D01*
X158035000Y-101800000D01*
X158035000Y-102200000D01*
X158435000Y-102200000D01*
G37*
G36*
X158835000Y-102200000D02*
G01*
X158835000Y-101800000D01*
X158435000Y-101800000D01*
X158435000Y-102200000D01*
X158835000Y-102200000D01*
G37*
G36*
X159635000Y-102200000D02*
G01*
X159635000Y-101800000D01*
X159235000Y-101800000D01*
X159235000Y-102200000D01*
X159635000Y-102200000D01*
G37*
G36*
X146835000Y-102600000D02*
G01*
X146835000Y-102200000D01*
X146435000Y-102200000D01*
X146435000Y-102600000D01*
X146835000Y-102600000D01*
G37*
G36*
X147235000Y-102600000D02*
G01*
X147235000Y-102200000D01*
X146835000Y-102200000D01*
X146835000Y-102600000D01*
X147235000Y-102600000D01*
G37*
G36*
X148035000Y-102600000D02*
G01*
X148035000Y-102200000D01*
X147635000Y-102200000D01*
X147635000Y-102600000D01*
X148035000Y-102600000D01*
G37*
G36*
X149235000Y-102600000D02*
G01*
X149235000Y-102200000D01*
X148835000Y-102200000D01*
X148835000Y-102600000D01*
X149235000Y-102600000D01*
G37*
G36*
X150035000Y-102600000D02*
G01*
X150035000Y-102200000D01*
X149635000Y-102200000D01*
X149635000Y-102600000D01*
X150035000Y-102600000D01*
G37*
G36*
X150835000Y-102600000D02*
G01*
X150835000Y-102200000D01*
X150435000Y-102200000D01*
X150435000Y-102600000D01*
X150835000Y-102600000D01*
G37*
G36*
X151235000Y-102600000D02*
G01*
X151235000Y-102200000D01*
X150835000Y-102200000D01*
X150835000Y-102600000D01*
X151235000Y-102600000D01*
G37*
G36*
X151635000Y-102600000D02*
G01*
X151635000Y-102200000D01*
X151235000Y-102200000D01*
X151235000Y-102600000D01*
X151635000Y-102600000D01*
G37*
G36*
X152835000Y-102600000D02*
G01*
X152835000Y-102200000D01*
X152435000Y-102200000D01*
X152435000Y-102600000D01*
X152835000Y-102600000D01*
G37*
G36*
X153635000Y-102600000D02*
G01*
X153635000Y-102200000D01*
X153235000Y-102200000D01*
X153235000Y-102600000D01*
X153635000Y-102600000D01*
G37*
G36*
X154035000Y-102600000D02*
G01*
X154035000Y-102200000D01*
X153635000Y-102200000D01*
X153635000Y-102600000D01*
X154035000Y-102600000D01*
G37*
G36*
X154435000Y-102600000D02*
G01*
X154435000Y-102200000D01*
X154035000Y-102200000D01*
X154035000Y-102600000D01*
X154435000Y-102600000D01*
G37*
G36*
X155235000Y-102600000D02*
G01*
X155235000Y-102200000D01*
X154835000Y-102200000D01*
X154835000Y-102600000D01*
X155235000Y-102600000D01*
G37*
G36*
X155635000Y-102600000D02*
G01*
X155635000Y-102200000D01*
X155235000Y-102200000D01*
X155235000Y-102600000D01*
X155635000Y-102600000D01*
G37*
G36*
X156035000Y-102600000D02*
G01*
X156035000Y-102200000D01*
X155635000Y-102200000D01*
X155635000Y-102600000D01*
X156035000Y-102600000D01*
G37*
G36*
X156435000Y-102600000D02*
G01*
X156435000Y-102200000D01*
X156035000Y-102200000D01*
X156035000Y-102600000D01*
X156435000Y-102600000D01*
G37*
G36*
X157235000Y-102600000D02*
G01*
X157235000Y-102200000D01*
X156835000Y-102200000D01*
X156835000Y-102600000D01*
X157235000Y-102600000D01*
G37*
G36*
X157635000Y-102600000D02*
G01*
X157635000Y-102200000D01*
X157235000Y-102200000D01*
X157235000Y-102600000D01*
X157635000Y-102600000D01*
G37*
G36*
X158435000Y-102600000D02*
G01*
X158435000Y-102200000D01*
X158035000Y-102200000D01*
X158035000Y-102600000D01*
X158435000Y-102600000D01*
G37*
G36*
X158835000Y-102600000D02*
G01*
X158835000Y-102200000D01*
X158435000Y-102200000D01*
X158435000Y-102600000D01*
X158835000Y-102600000D01*
G37*
G36*
X159235000Y-102600000D02*
G01*
X159235000Y-102200000D01*
X158835000Y-102200000D01*
X158835000Y-102600000D01*
X159235000Y-102600000D01*
G37*
G36*
X159635000Y-102600000D02*
G01*
X159635000Y-102200000D01*
X159235000Y-102200000D01*
X159235000Y-102600000D01*
X159635000Y-102600000D01*
G37*
G36*
X146835000Y-103000000D02*
G01*
X146835000Y-102600000D01*
X146435000Y-102600000D01*
X146435000Y-103000000D01*
X146835000Y-103000000D01*
G37*
G36*
X147235000Y-103000000D02*
G01*
X147235000Y-102600000D01*
X146835000Y-102600000D01*
X146835000Y-103000000D01*
X147235000Y-103000000D01*
G37*
G36*
X148035000Y-103000000D02*
G01*
X148035000Y-102600000D01*
X147635000Y-102600000D01*
X147635000Y-103000000D01*
X148035000Y-103000000D01*
G37*
G36*
X148835000Y-103000000D02*
G01*
X148835000Y-102600000D01*
X148435000Y-102600000D01*
X148435000Y-103000000D01*
X148835000Y-103000000D01*
G37*
G36*
X150035000Y-103000000D02*
G01*
X150035000Y-102600000D01*
X149635000Y-102600000D01*
X149635000Y-103000000D01*
X150035000Y-103000000D01*
G37*
G36*
X151235000Y-103000000D02*
G01*
X151235000Y-102600000D01*
X150835000Y-102600000D01*
X150835000Y-103000000D01*
X151235000Y-103000000D01*
G37*
G36*
X152835000Y-103000000D02*
G01*
X152835000Y-102600000D01*
X152435000Y-102600000D01*
X152435000Y-103000000D01*
X152835000Y-103000000D01*
G37*
G36*
X154435000Y-103000000D02*
G01*
X154435000Y-102600000D01*
X154035000Y-102600000D01*
X154035000Y-103000000D01*
X154435000Y-103000000D01*
G37*
G36*
X154835000Y-103000000D02*
G01*
X154835000Y-102600000D01*
X154435000Y-102600000D01*
X154435000Y-103000000D01*
X154835000Y-103000000D01*
G37*
G36*
X156835000Y-103000000D02*
G01*
X156835000Y-102600000D01*
X156435000Y-102600000D01*
X156435000Y-103000000D01*
X156835000Y-103000000D01*
G37*
G36*
X158035000Y-103000000D02*
G01*
X158035000Y-102600000D01*
X157635000Y-102600000D01*
X157635000Y-103000000D01*
X158035000Y-103000000D01*
G37*
G36*
X158435000Y-103000000D02*
G01*
X158435000Y-102600000D01*
X158035000Y-102600000D01*
X158035000Y-103000000D01*
X158435000Y-103000000D01*
G37*
G36*
X158835000Y-103000000D02*
G01*
X158835000Y-102600000D01*
X158435000Y-102600000D01*
X158435000Y-103000000D01*
X158835000Y-103000000D01*
G37*
G36*
X159235000Y-103000000D02*
G01*
X159235000Y-102600000D01*
X158835000Y-102600000D01*
X158835000Y-103000000D01*
X159235000Y-103000000D01*
G37*
G36*
X159635000Y-103000000D02*
G01*
X159635000Y-102600000D01*
X159235000Y-102600000D01*
X159235000Y-103000000D01*
X159635000Y-103000000D01*
G37*
G36*
X146835000Y-103400000D02*
G01*
X146835000Y-103000000D01*
X146435000Y-103000000D01*
X146435000Y-103400000D01*
X146835000Y-103400000D01*
G37*
G36*
X148035000Y-103400000D02*
G01*
X148035000Y-103000000D01*
X147635000Y-103000000D01*
X147635000Y-103400000D01*
X148035000Y-103400000D01*
G37*
G36*
X149235000Y-103400000D02*
G01*
X149235000Y-103000000D01*
X148835000Y-103000000D01*
X148835000Y-103400000D01*
X149235000Y-103400000D01*
G37*
G36*
X150835000Y-103400000D02*
G01*
X150835000Y-103000000D01*
X150435000Y-103000000D01*
X150435000Y-103400000D01*
X150835000Y-103400000D01*
G37*
G36*
X152035000Y-103400000D02*
G01*
X152035000Y-103000000D01*
X151635000Y-103000000D01*
X151635000Y-103400000D01*
X152035000Y-103400000D01*
G37*
G36*
X152435000Y-103400000D02*
G01*
X152435000Y-103000000D01*
X152035000Y-103000000D01*
X152035000Y-103400000D01*
X152435000Y-103400000D01*
G37*
G36*
X152835000Y-103400000D02*
G01*
X152835000Y-103000000D01*
X152435000Y-103000000D01*
X152435000Y-103400000D01*
X152835000Y-103400000D01*
G37*
G36*
X154035000Y-103400000D02*
G01*
X154035000Y-103000000D01*
X153635000Y-103000000D01*
X153635000Y-103400000D01*
X154035000Y-103400000D01*
G37*
G36*
X154435000Y-103400000D02*
G01*
X154435000Y-103000000D01*
X154035000Y-103000000D01*
X154035000Y-103400000D01*
X154435000Y-103400000D01*
G37*
G36*
X155635000Y-103400000D02*
G01*
X155635000Y-103000000D01*
X155235000Y-103000000D01*
X155235000Y-103400000D01*
X155635000Y-103400000D01*
G37*
G36*
X156435000Y-103400000D02*
G01*
X156435000Y-103000000D01*
X156035000Y-103000000D01*
X156035000Y-103400000D01*
X156435000Y-103400000D01*
G37*
G36*
X156835000Y-103400000D02*
G01*
X156835000Y-103000000D01*
X156435000Y-103000000D01*
X156435000Y-103400000D01*
X156835000Y-103400000D01*
G37*
G36*
X158035000Y-103400000D02*
G01*
X158035000Y-103000000D01*
X157635000Y-103000000D01*
X157635000Y-103400000D01*
X158035000Y-103400000D01*
G37*
G36*
X158435000Y-103400000D02*
G01*
X158435000Y-103000000D01*
X158035000Y-103000000D01*
X158035000Y-103400000D01*
X158435000Y-103400000D01*
G37*
G36*
X146835000Y-103800000D02*
G01*
X146835000Y-103400000D01*
X146435000Y-103400000D01*
X146435000Y-103800000D01*
X146835000Y-103800000D01*
G37*
G36*
X148035000Y-103800000D02*
G01*
X148035000Y-103400000D01*
X147635000Y-103400000D01*
X147635000Y-103800000D01*
X148035000Y-103800000D01*
G37*
G36*
X148835000Y-103800000D02*
G01*
X148835000Y-103400000D01*
X148435000Y-103400000D01*
X148435000Y-103800000D01*
X148835000Y-103800000D01*
G37*
G36*
X150035000Y-103800000D02*
G01*
X150035000Y-103400000D01*
X149635000Y-103400000D01*
X149635000Y-103800000D01*
X150035000Y-103800000D01*
G37*
G36*
X150835000Y-103800000D02*
G01*
X150835000Y-103400000D01*
X150435000Y-103400000D01*
X150435000Y-103800000D01*
X150835000Y-103800000D01*
G37*
G36*
X151235000Y-103800000D02*
G01*
X151235000Y-103400000D01*
X150835000Y-103400000D01*
X150835000Y-103800000D01*
X151235000Y-103800000D01*
G37*
G36*
X152435000Y-103800000D02*
G01*
X152435000Y-103400000D01*
X152035000Y-103400000D01*
X152035000Y-103800000D01*
X152435000Y-103800000D01*
G37*
G36*
X153635000Y-103800000D02*
G01*
X153635000Y-103400000D01*
X153235000Y-103400000D01*
X153235000Y-103800000D01*
X153635000Y-103800000D01*
G37*
G36*
X155635000Y-103800000D02*
G01*
X155635000Y-103400000D01*
X155235000Y-103400000D01*
X155235000Y-103800000D01*
X155635000Y-103800000D01*
G37*
G36*
X156835000Y-103800000D02*
G01*
X156835000Y-103400000D01*
X156435000Y-103400000D01*
X156435000Y-103800000D01*
X156835000Y-103800000D01*
G37*
G36*
X157235000Y-103800000D02*
G01*
X157235000Y-103400000D01*
X156835000Y-103400000D01*
X156835000Y-103800000D01*
X157235000Y-103800000D01*
G37*
G36*
X157635000Y-103800000D02*
G01*
X157635000Y-103400000D01*
X157235000Y-103400000D01*
X157235000Y-103800000D01*
X157635000Y-103800000D01*
G37*
G36*
X158035000Y-103800000D02*
G01*
X158035000Y-103400000D01*
X157635000Y-103400000D01*
X157635000Y-103800000D01*
X158035000Y-103800000D01*
G37*
G36*
X158435000Y-103800000D02*
G01*
X158435000Y-103400000D01*
X158035000Y-103400000D01*
X158035000Y-103800000D01*
X158435000Y-103800000D01*
G37*
G36*
X158835000Y-103800000D02*
G01*
X158835000Y-103400000D01*
X158435000Y-103400000D01*
X158435000Y-103800000D01*
X158835000Y-103800000D01*
G37*
G36*
X146835000Y-104200000D02*
G01*
X146835000Y-103800000D01*
X146435000Y-103800000D01*
X146435000Y-104200000D01*
X146835000Y-104200000D01*
G37*
G36*
X148835000Y-104200000D02*
G01*
X148835000Y-103800000D01*
X148435000Y-103800000D01*
X148435000Y-104200000D01*
X148835000Y-104200000D01*
G37*
G36*
X149235000Y-104200000D02*
G01*
X149235000Y-103800000D01*
X148835000Y-103800000D01*
X148835000Y-104200000D01*
X149235000Y-104200000D01*
G37*
G36*
X150035000Y-104200000D02*
G01*
X150035000Y-103800000D01*
X149635000Y-103800000D01*
X149635000Y-104200000D01*
X150035000Y-104200000D01*
G37*
G36*
X150435000Y-104200000D02*
G01*
X150435000Y-103800000D01*
X150035000Y-103800000D01*
X150035000Y-104200000D01*
X150435000Y-104200000D01*
G37*
G36*
X154435000Y-104200000D02*
G01*
X154435000Y-103800000D01*
X154035000Y-103800000D01*
X154035000Y-104200000D01*
X154435000Y-104200000D01*
G37*
G36*
X156435000Y-104200000D02*
G01*
X156435000Y-103800000D01*
X156035000Y-103800000D01*
X156035000Y-104200000D01*
X156435000Y-104200000D01*
G37*
G36*
X156835000Y-104200000D02*
G01*
X156835000Y-103800000D01*
X156435000Y-103800000D01*
X156435000Y-104200000D01*
X156835000Y-104200000D01*
G37*
G36*
X158035000Y-104200000D02*
G01*
X158035000Y-103800000D01*
X157635000Y-103800000D01*
X157635000Y-104200000D01*
X158035000Y-104200000D01*
G37*
G36*
X158435000Y-104200000D02*
G01*
X158435000Y-103800000D01*
X158035000Y-103800000D01*
X158035000Y-104200000D01*
X158435000Y-104200000D01*
G37*
G36*
X158835000Y-104200000D02*
G01*
X158835000Y-103800000D01*
X158435000Y-103800000D01*
X158435000Y-104200000D01*
X158835000Y-104200000D01*
G37*
G36*
X159235000Y-104200000D02*
G01*
X159235000Y-103800000D01*
X158835000Y-103800000D01*
X158835000Y-104200000D01*
X159235000Y-104200000D01*
G37*
G36*
X146835000Y-104600000D02*
G01*
X146835000Y-104200000D01*
X146435000Y-104200000D01*
X146435000Y-104600000D01*
X146835000Y-104600000D01*
G37*
G36*
X148035000Y-104600000D02*
G01*
X148035000Y-104200000D01*
X147635000Y-104200000D01*
X147635000Y-104600000D01*
X148035000Y-104600000D01*
G37*
G36*
X148435000Y-104600000D02*
G01*
X148435000Y-104200000D01*
X148035000Y-104200000D01*
X148035000Y-104600000D01*
X148435000Y-104600000D01*
G37*
G36*
X148835000Y-104600000D02*
G01*
X148835000Y-104200000D01*
X148435000Y-104200000D01*
X148435000Y-104600000D01*
X148835000Y-104600000D01*
G37*
G36*
X150435000Y-104600000D02*
G01*
X150435000Y-104200000D01*
X150035000Y-104200000D01*
X150035000Y-104600000D01*
X150435000Y-104600000D01*
G37*
G36*
X150835000Y-104600000D02*
G01*
X150835000Y-104200000D01*
X150435000Y-104200000D01*
X150435000Y-104600000D01*
X150835000Y-104600000D01*
G37*
G36*
X151635000Y-104600000D02*
G01*
X151635000Y-104200000D01*
X151235000Y-104200000D01*
X151235000Y-104600000D01*
X151635000Y-104600000D01*
G37*
G36*
X152035000Y-104600000D02*
G01*
X152035000Y-104200000D01*
X151635000Y-104200000D01*
X151635000Y-104600000D01*
X152035000Y-104600000D01*
G37*
G36*
X152435000Y-104600000D02*
G01*
X152435000Y-104200000D01*
X152035000Y-104200000D01*
X152035000Y-104600000D01*
X152435000Y-104600000D01*
G37*
G36*
X152835000Y-104600000D02*
G01*
X152835000Y-104200000D01*
X152435000Y-104200000D01*
X152435000Y-104600000D01*
X152835000Y-104600000D01*
G37*
G36*
X153235000Y-104600000D02*
G01*
X153235000Y-104200000D01*
X152835000Y-104200000D01*
X152835000Y-104600000D01*
X153235000Y-104600000D01*
G37*
G36*
X154435000Y-104600000D02*
G01*
X154435000Y-104200000D01*
X154035000Y-104200000D01*
X154035000Y-104600000D01*
X154435000Y-104600000D01*
G37*
G36*
X154835000Y-104600000D02*
G01*
X154835000Y-104200000D01*
X154435000Y-104200000D01*
X154435000Y-104600000D01*
X154835000Y-104600000D01*
G37*
G36*
X155635000Y-104600000D02*
G01*
X155635000Y-104200000D01*
X155235000Y-104200000D01*
X155235000Y-104600000D01*
X155635000Y-104600000D01*
G37*
G36*
X156035000Y-104600000D02*
G01*
X156035000Y-104200000D01*
X155635000Y-104200000D01*
X155635000Y-104600000D01*
X156035000Y-104600000D01*
G37*
G36*
X156435000Y-104600000D02*
G01*
X156435000Y-104200000D01*
X156035000Y-104200000D01*
X156035000Y-104600000D01*
X156435000Y-104600000D01*
G37*
G36*
X156835000Y-104600000D02*
G01*
X156835000Y-104200000D01*
X156435000Y-104200000D01*
X156435000Y-104600000D01*
X156835000Y-104600000D01*
G37*
G36*
X157235000Y-104600000D02*
G01*
X157235000Y-104200000D01*
X156835000Y-104200000D01*
X156835000Y-104600000D01*
X157235000Y-104600000D01*
G37*
G36*
X157635000Y-104600000D02*
G01*
X157635000Y-104200000D01*
X157235000Y-104200000D01*
X157235000Y-104600000D01*
X157635000Y-104600000D01*
G37*
G36*
X158035000Y-104600000D02*
G01*
X158035000Y-104200000D01*
X157635000Y-104200000D01*
X157635000Y-104600000D01*
X158035000Y-104600000D01*
G37*
G36*
X158435000Y-104600000D02*
G01*
X158435000Y-104200000D01*
X158035000Y-104200000D01*
X158035000Y-104600000D01*
X158435000Y-104600000D01*
G37*
G36*
X158835000Y-104600000D02*
G01*
X158835000Y-104200000D01*
X158435000Y-104200000D01*
X158435000Y-104600000D01*
X158835000Y-104600000D01*
G37*
G36*
X159235000Y-104600000D02*
G01*
X159235000Y-104200000D01*
X158835000Y-104200000D01*
X158835000Y-104600000D01*
X159235000Y-104600000D01*
G37*
G36*
X146835000Y-105000000D02*
G01*
X146835000Y-104600000D01*
X146435000Y-104600000D01*
X146435000Y-105000000D01*
X146835000Y-105000000D01*
G37*
G36*
X147235000Y-105000000D02*
G01*
X147235000Y-104600000D01*
X146835000Y-104600000D01*
X146835000Y-105000000D01*
X147235000Y-105000000D01*
G37*
G36*
X147635000Y-105000000D02*
G01*
X147635000Y-104600000D01*
X147235000Y-104600000D01*
X147235000Y-105000000D01*
X147635000Y-105000000D01*
G37*
G36*
X149235000Y-105000000D02*
G01*
X149235000Y-104600000D01*
X148835000Y-104600000D01*
X148835000Y-105000000D01*
X149235000Y-105000000D01*
G37*
G36*
X150435000Y-105000000D02*
G01*
X150435000Y-104600000D01*
X150035000Y-104600000D01*
X150035000Y-105000000D01*
X150435000Y-105000000D01*
G37*
G36*
X150835000Y-105000000D02*
G01*
X150835000Y-104600000D01*
X150435000Y-104600000D01*
X150435000Y-105000000D01*
X150835000Y-105000000D01*
G37*
G36*
X151635000Y-105000000D02*
G01*
X151635000Y-104600000D01*
X151235000Y-104600000D01*
X151235000Y-105000000D01*
X151635000Y-105000000D01*
G37*
G36*
X152435000Y-105000000D02*
G01*
X152435000Y-104600000D01*
X152035000Y-104600000D01*
X152035000Y-105000000D01*
X152435000Y-105000000D01*
G37*
G36*
X153235000Y-105000000D02*
G01*
X153235000Y-104600000D01*
X152835000Y-104600000D01*
X152835000Y-105000000D01*
X153235000Y-105000000D01*
G37*
G36*
X153635000Y-105000000D02*
G01*
X153635000Y-104600000D01*
X153235000Y-104600000D01*
X153235000Y-105000000D01*
X153635000Y-105000000D01*
G37*
G36*
X154835000Y-105000000D02*
G01*
X154835000Y-104600000D01*
X154435000Y-104600000D01*
X154435000Y-105000000D01*
X154835000Y-105000000D01*
G37*
G36*
X156035000Y-105000000D02*
G01*
X156035000Y-104600000D01*
X155635000Y-104600000D01*
X155635000Y-105000000D01*
X156035000Y-105000000D01*
G37*
G36*
X156435000Y-105000000D02*
G01*
X156435000Y-104600000D01*
X156035000Y-104600000D01*
X156035000Y-105000000D01*
X156435000Y-105000000D01*
G37*
G36*
X156835000Y-105000000D02*
G01*
X156835000Y-104600000D01*
X156435000Y-104600000D01*
X156435000Y-105000000D01*
X156835000Y-105000000D01*
G37*
G36*
X157235000Y-105000000D02*
G01*
X157235000Y-104600000D01*
X156835000Y-104600000D01*
X156835000Y-105000000D01*
X157235000Y-105000000D01*
G37*
G36*
X157635000Y-105000000D02*
G01*
X157635000Y-104600000D01*
X157235000Y-104600000D01*
X157235000Y-105000000D01*
X157635000Y-105000000D01*
G37*
G36*
X158035000Y-105000000D02*
G01*
X158035000Y-104600000D01*
X157635000Y-104600000D01*
X157635000Y-105000000D01*
X158035000Y-105000000D01*
G37*
G36*
X158435000Y-105000000D02*
G01*
X158435000Y-104600000D01*
X158035000Y-104600000D01*
X158035000Y-105000000D01*
X158435000Y-105000000D01*
G37*
G36*
X159235000Y-105000000D02*
G01*
X159235000Y-104600000D01*
X158835000Y-104600000D01*
X158835000Y-105000000D01*
X159235000Y-105000000D01*
G37*
G36*
X159635000Y-105000000D02*
G01*
X159635000Y-104600000D01*
X159235000Y-104600000D01*
X159235000Y-105000000D01*
X159635000Y-105000000D01*
G37*
G36*
X150035000Y-105400000D02*
G01*
X150035000Y-105000000D01*
X149635000Y-105000000D01*
X149635000Y-105400000D01*
X150035000Y-105400000D01*
G37*
G36*
X150435000Y-105400000D02*
G01*
X150435000Y-105000000D01*
X150035000Y-105000000D01*
X150035000Y-105400000D01*
X150435000Y-105400000D01*
G37*
G36*
X151635000Y-105400000D02*
G01*
X151635000Y-105000000D01*
X151235000Y-105000000D01*
X151235000Y-105400000D01*
X151635000Y-105400000D01*
G37*
G36*
X152035000Y-105400000D02*
G01*
X152035000Y-105000000D01*
X151635000Y-105000000D01*
X151635000Y-105400000D01*
X152035000Y-105400000D01*
G37*
G36*
X152435000Y-105400000D02*
G01*
X152435000Y-105000000D01*
X152035000Y-105000000D01*
X152035000Y-105400000D01*
X152435000Y-105400000D01*
G37*
G36*
X153235000Y-105400000D02*
G01*
X153235000Y-105000000D01*
X152835000Y-105000000D01*
X152835000Y-105400000D01*
X153235000Y-105400000D01*
G37*
G36*
X153635000Y-105400000D02*
G01*
X153635000Y-105000000D01*
X153235000Y-105000000D01*
X153235000Y-105400000D01*
X153635000Y-105400000D01*
G37*
G36*
X154035000Y-105400000D02*
G01*
X154035000Y-105000000D01*
X153635000Y-105000000D01*
X153635000Y-105400000D01*
X154035000Y-105400000D01*
G37*
G36*
X154435000Y-105400000D02*
G01*
X154435000Y-105000000D01*
X154035000Y-105000000D01*
X154035000Y-105400000D01*
X154435000Y-105400000D01*
G37*
G36*
X156035000Y-105400000D02*
G01*
X156035000Y-105000000D01*
X155635000Y-105000000D01*
X155635000Y-105400000D01*
X156035000Y-105400000D01*
G37*
G36*
X156435000Y-105400000D02*
G01*
X156435000Y-105000000D01*
X156035000Y-105000000D01*
X156035000Y-105400000D01*
X156435000Y-105400000D01*
G37*
G36*
X158035000Y-105400000D02*
G01*
X158035000Y-105000000D01*
X157635000Y-105000000D01*
X157635000Y-105400000D01*
X158035000Y-105400000D01*
G37*
G36*
X158835000Y-105400000D02*
G01*
X158835000Y-105000000D01*
X158435000Y-105000000D01*
X158435000Y-105400000D01*
X158835000Y-105400000D01*
G37*
G36*
X159235000Y-105400000D02*
G01*
X159235000Y-105000000D01*
X158835000Y-105000000D01*
X158835000Y-105400000D01*
X159235000Y-105400000D01*
G37*
G36*
X159635000Y-105400000D02*
G01*
X159635000Y-105000000D01*
X159235000Y-105000000D01*
X159235000Y-105400000D01*
X159635000Y-105400000D01*
G37*
G36*
X146835000Y-105800000D02*
G01*
X146835000Y-105400000D01*
X146435000Y-105400000D01*
X146435000Y-105800000D01*
X146835000Y-105800000D01*
G37*
G36*
X147235000Y-105800000D02*
G01*
X147235000Y-105400000D01*
X146835000Y-105400000D01*
X146835000Y-105800000D01*
X147235000Y-105800000D01*
G37*
G36*
X147635000Y-105800000D02*
G01*
X147635000Y-105400000D01*
X147235000Y-105400000D01*
X147235000Y-105800000D01*
X147635000Y-105800000D01*
G37*
G36*
X148035000Y-105800000D02*
G01*
X148035000Y-105400000D01*
X147635000Y-105400000D01*
X147635000Y-105800000D01*
X148035000Y-105800000D01*
G37*
G36*
X148435000Y-105800000D02*
G01*
X148435000Y-105400000D01*
X148035000Y-105400000D01*
X148035000Y-105800000D01*
X148435000Y-105800000D01*
G37*
G36*
X148835000Y-105800000D02*
G01*
X148835000Y-105400000D01*
X148435000Y-105400000D01*
X148435000Y-105800000D01*
X148835000Y-105800000D01*
G37*
G36*
X149235000Y-105800000D02*
G01*
X149235000Y-105400000D01*
X148835000Y-105400000D01*
X148835000Y-105800000D01*
X149235000Y-105800000D01*
G37*
G36*
X150435000Y-105800000D02*
G01*
X150435000Y-105400000D01*
X150035000Y-105400000D01*
X150035000Y-105800000D01*
X150435000Y-105800000D01*
G37*
G36*
X150835000Y-105800000D02*
G01*
X150835000Y-105400000D01*
X150435000Y-105400000D01*
X150435000Y-105800000D01*
X150835000Y-105800000D01*
G37*
G36*
X151635000Y-105800000D02*
G01*
X151635000Y-105400000D01*
X151235000Y-105400000D01*
X151235000Y-105800000D01*
X151635000Y-105800000D01*
G37*
G36*
X152435000Y-105800000D02*
G01*
X152435000Y-105400000D01*
X152035000Y-105400000D01*
X152035000Y-105800000D01*
X152435000Y-105800000D01*
G37*
G36*
X152835000Y-105800000D02*
G01*
X152835000Y-105400000D01*
X152435000Y-105400000D01*
X152435000Y-105800000D01*
X152835000Y-105800000D01*
G37*
G36*
X153635000Y-105800000D02*
G01*
X153635000Y-105400000D01*
X153235000Y-105400000D01*
X153235000Y-105800000D01*
X153635000Y-105800000D01*
G37*
G36*
X154835000Y-105800000D02*
G01*
X154835000Y-105400000D01*
X154435000Y-105400000D01*
X154435000Y-105800000D01*
X154835000Y-105800000D01*
G37*
G36*
X155235000Y-105800000D02*
G01*
X155235000Y-105400000D01*
X154835000Y-105400000D01*
X154835000Y-105800000D01*
X155235000Y-105800000D01*
G37*
G36*
X156035000Y-105800000D02*
G01*
X156035000Y-105400000D01*
X155635000Y-105400000D01*
X155635000Y-105800000D01*
X156035000Y-105800000D01*
G37*
G36*
X156435000Y-105800000D02*
G01*
X156435000Y-105400000D01*
X156035000Y-105400000D01*
X156035000Y-105800000D01*
X156435000Y-105800000D01*
G37*
G36*
X157235000Y-105800000D02*
G01*
X157235000Y-105400000D01*
X156835000Y-105400000D01*
X156835000Y-105800000D01*
X157235000Y-105800000D01*
G37*
G36*
X158035000Y-105800000D02*
G01*
X158035000Y-105400000D01*
X157635000Y-105400000D01*
X157635000Y-105800000D01*
X158035000Y-105800000D01*
G37*
G36*
X158835000Y-105800000D02*
G01*
X158835000Y-105400000D01*
X158435000Y-105400000D01*
X158435000Y-105800000D01*
X158835000Y-105800000D01*
G37*
G36*
X146835000Y-106200000D02*
G01*
X146835000Y-105800000D01*
X146435000Y-105800000D01*
X146435000Y-106200000D01*
X146835000Y-106200000D01*
G37*
G36*
X149235000Y-106200000D02*
G01*
X149235000Y-105800000D01*
X148835000Y-105800000D01*
X148835000Y-106200000D01*
X149235000Y-106200000D01*
G37*
G36*
X150435000Y-106200000D02*
G01*
X150435000Y-105800000D01*
X150035000Y-105800000D01*
X150035000Y-106200000D01*
X150435000Y-106200000D01*
G37*
G36*
X150835000Y-106200000D02*
G01*
X150835000Y-105800000D01*
X150435000Y-105800000D01*
X150435000Y-106200000D01*
X150835000Y-106200000D01*
G37*
G36*
X151235000Y-106200000D02*
G01*
X151235000Y-105800000D01*
X150835000Y-105800000D01*
X150835000Y-106200000D01*
X151235000Y-106200000D01*
G37*
G36*
X151635000Y-106200000D02*
G01*
X151635000Y-105800000D01*
X151235000Y-105800000D01*
X151235000Y-106200000D01*
X151635000Y-106200000D01*
G37*
G36*
X152835000Y-106200000D02*
G01*
X152835000Y-105800000D01*
X152435000Y-105800000D01*
X152435000Y-106200000D01*
X152835000Y-106200000D01*
G37*
G36*
X153235000Y-106200000D02*
G01*
X153235000Y-105800000D01*
X152835000Y-105800000D01*
X152835000Y-106200000D01*
X153235000Y-106200000D01*
G37*
G36*
X153635000Y-106200000D02*
G01*
X153635000Y-105800000D01*
X153235000Y-105800000D01*
X153235000Y-106200000D01*
X153635000Y-106200000D01*
G37*
G36*
X154035000Y-106200000D02*
G01*
X154035000Y-105800000D01*
X153635000Y-105800000D01*
X153635000Y-106200000D01*
X154035000Y-106200000D01*
G37*
G36*
X156035000Y-106200000D02*
G01*
X156035000Y-105800000D01*
X155635000Y-105800000D01*
X155635000Y-106200000D01*
X156035000Y-106200000D01*
G37*
G36*
X156435000Y-106200000D02*
G01*
X156435000Y-105800000D01*
X156035000Y-105800000D01*
X156035000Y-106200000D01*
X156435000Y-106200000D01*
G37*
G36*
X158035000Y-106200000D02*
G01*
X158035000Y-105800000D01*
X157635000Y-105800000D01*
X157635000Y-106200000D01*
X158035000Y-106200000D01*
G37*
G36*
X158435000Y-106200000D02*
G01*
X158435000Y-105800000D01*
X158035000Y-105800000D01*
X158035000Y-106200000D01*
X158435000Y-106200000D01*
G37*
G36*
X158835000Y-106200000D02*
G01*
X158835000Y-105800000D01*
X158435000Y-105800000D01*
X158435000Y-106200000D01*
X158835000Y-106200000D01*
G37*
G36*
X159235000Y-106200000D02*
G01*
X159235000Y-105800000D01*
X158835000Y-105800000D01*
X158835000Y-106200000D01*
X159235000Y-106200000D01*
G37*
G36*
X146835000Y-106600000D02*
G01*
X146835000Y-106200000D01*
X146435000Y-106200000D01*
X146435000Y-106600000D01*
X146835000Y-106600000D01*
G37*
G36*
X147635000Y-106600000D02*
G01*
X147635000Y-106200000D01*
X147235000Y-106200000D01*
X147235000Y-106600000D01*
X147635000Y-106600000D01*
G37*
G36*
X148035000Y-106600000D02*
G01*
X148035000Y-106200000D01*
X147635000Y-106200000D01*
X147635000Y-106600000D01*
X148035000Y-106600000D01*
G37*
G36*
X148435000Y-106600000D02*
G01*
X148435000Y-106200000D01*
X148035000Y-106200000D01*
X148035000Y-106600000D01*
X148435000Y-106600000D01*
G37*
G36*
X149235000Y-106600000D02*
G01*
X149235000Y-106200000D01*
X148835000Y-106200000D01*
X148835000Y-106600000D01*
X149235000Y-106600000D01*
G37*
G36*
X150435000Y-106600000D02*
G01*
X150435000Y-106200000D01*
X150035000Y-106200000D01*
X150035000Y-106600000D01*
X150435000Y-106600000D01*
G37*
G36*
X150835000Y-106600000D02*
G01*
X150835000Y-106200000D01*
X150435000Y-106200000D01*
X150435000Y-106600000D01*
X150835000Y-106600000D01*
G37*
G36*
X151235000Y-106600000D02*
G01*
X151235000Y-106200000D01*
X150835000Y-106200000D01*
X150835000Y-106600000D01*
X151235000Y-106600000D01*
G37*
G36*
X151635000Y-106600000D02*
G01*
X151635000Y-106200000D01*
X151235000Y-106200000D01*
X151235000Y-106600000D01*
X151635000Y-106600000D01*
G37*
G36*
X152035000Y-106600000D02*
G01*
X152035000Y-106200000D01*
X151635000Y-106200000D01*
X151635000Y-106600000D01*
X152035000Y-106600000D01*
G37*
G36*
X152435000Y-106600000D02*
G01*
X152435000Y-106200000D01*
X152035000Y-106200000D01*
X152035000Y-106600000D01*
X152435000Y-106600000D01*
G37*
G36*
X152835000Y-106600000D02*
G01*
X152835000Y-106200000D01*
X152435000Y-106200000D01*
X152435000Y-106600000D01*
X152835000Y-106600000D01*
G37*
G36*
X153235000Y-106600000D02*
G01*
X153235000Y-106200000D01*
X152835000Y-106200000D01*
X152835000Y-106600000D01*
X153235000Y-106600000D01*
G37*
G36*
X154435000Y-106600000D02*
G01*
X154435000Y-106200000D01*
X154035000Y-106200000D01*
X154035000Y-106600000D01*
X154435000Y-106600000D01*
G37*
G36*
X155635000Y-106600000D02*
G01*
X155635000Y-106200000D01*
X155235000Y-106200000D01*
X155235000Y-106600000D01*
X155635000Y-106600000D01*
G37*
G36*
X156435000Y-106600000D02*
G01*
X156435000Y-106200000D01*
X156035000Y-106200000D01*
X156035000Y-106600000D01*
X156435000Y-106600000D01*
G37*
G36*
X156835000Y-106600000D02*
G01*
X156835000Y-106200000D01*
X156435000Y-106200000D01*
X156435000Y-106600000D01*
X156835000Y-106600000D01*
G37*
G36*
X157235000Y-106600000D02*
G01*
X157235000Y-106200000D01*
X156835000Y-106200000D01*
X156835000Y-106600000D01*
X157235000Y-106600000D01*
G37*
G36*
X157635000Y-106600000D02*
G01*
X157635000Y-106200000D01*
X157235000Y-106200000D01*
X157235000Y-106600000D01*
X157635000Y-106600000D01*
G37*
G36*
X158035000Y-106600000D02*
G01*
X158035000Y-106200000D01*
X157635000Y-106200000D01*
X157635000Y-106600000D01*
X158035000Y-106600000D01*
G37*
G36*
X158435000Y-106600000D02*
G01*
X158435000Y-106200000D01*
X158035000Y-106200000D01*
X158035000Y-106600000D01*
X158435000Y-106600000D01*
G37*
G36*
X159235000Y-106600000D02*
G01*
X159235000Y-106200000D01*
X158835000Y-106200000D01*
X158835000Y-106600000D01*
X159235000Y-106600000D01*
G37*
G36*
X146835000Y-107000000D02*
G01*
X146835000Y-106600000D01*
X146435000Y-106600000D01*
X146435000Y-107000000D01*
X146835000Y-107000000D01*
G37*
G36*
X147635000Y-107000000D02*
G01*
X147635000Y-106600000D01*
X147235000Y-106600000D01*
X147235000Y-107000000D01*
X147635000Y-107000000D01*
G37*
G36*
X148035000Y-107000000D02*
G01*
X148035000Y-106600000D01*
X147635000Y-106600000D01*
X147635000Y-107000000D01*
X148035000Y-107000000D01*
G37*
G36*
X148435000Y-107000000D02*
G01*
X148435000Y-106600000D01*
X148035000Y-106600000D01*
X148035000Y-107000000D01*
X148435000Y-107000000D01*
G37*
G36*
X149235000Y-107000000D02*
G01*
X149235000Y-106600000D01*
X148835000Y-106600000D01*
X148835000Y-107000000D01*
X149235000Y-107000000D01*
G37*
G36*
X150435000Y-107000000D02*
G01*
X150435000Y-106600000D01*
X150035000Y-106600000D01*
X150035000Y-107000000D01*
X150435000Y-107000000D01*
G37*
G36*
X151235000Y-107000000D02*
G01*
X151235000Y-106600000D01*
X150835000Y-106600000D01*
X150835000Y-107000000D01*
X151235000Y-107000000D01*
G37*
G36*
X152435000Y-107000000D02*
G01*
X152435000Y-106600000D01*
X152035000Y-106600000D01*
X152035000Y-107000000D01*
X152435000Y-107000000D01*
G37*
G36*
X154035000Y-107000000D02*
G01*
X154035000Y-106600000D01*
X153635000Y-106600000D01*
X153635000Y-107000000D01*
X154035000Y-107000000D01*
G37*
G36*
X155235000Y-107000000D02*
G01*
X155235000Y-106600000D01*
X154835000Y-106600000D01*
X154835000Y-107000000D01*
X155235000Y-107000000D01*
G37*
G36*
X156035000Y-107000000D02*
G01*
X156035000Y-106600000D01*
X155635000Y-106600000D01*
X155635000Y-107000000D01*
X156035000Y-107000000D01*
G37*
G36*
X156435000Y-107000000D02*
G01*
X156435000Y-106600000D01*
X156035000Y-106600000D01*
X156035000Y-107000000D01*
X156435000Y-107000000D01*
G37*
G36*
X156835000Y-107000000D02*
G01*
X156835000Y-106600000D01*
X156435000Y-106600000D01*
X156435000Y-107000000D01*
X156835000Y-107000000D01*
G37*
G36*
X157635000Y-107000000D02*
G01*
X157635000Y-106600000D01*
X157235000Y-106600000D01*
X157235000Y-107000000D01*
X157635000Y-107000000D01*
G37*
G36*
X158035000Y-107000000D02*
G01*
X158035000Y-106600000D01*
X157635000Y-106600000D01*
X157635000Y-107000000D01*
X158035000Y-107000000D01*
G37*
G36*
X158435000Y-107000000D02*
G01*
X158435000Y-106600000D01*
X158035000Y-106600000D01*
X158035000Y-107000000D01*
X158435000Y-107000000D01*
G37*
G36*
X159235000Y-107000000D02*
G01*
X159235000Y-106600000D01*
X158835000Y-106600000D01*
X158835000Y-107000000D01*
X159235000Y-107000000D01*
G37*
G36*
X159635000Y-107000000D02*
G01*
X159635000Y-106600000D01*
X159235000Y-106600000D01*
X159235000Y-107000000D01*
X159635000Y-107000000D01*
G37*
G36*
X146835000Y-107400000D02*
G01*
X146835000Y-107000000D01*
X146435000Y-107000000D01*
X146435000Y-107400000D01*
X146835000Y-107400000D01*
G37*
G36*
X147635000Y-107400000D02*
G01*
X147635000Y-107000000D01*
X147235000Y-107000000D01*
X147235000Y-107400000D01*
X147635000Y-107400000D01*
G37*
G36*
X148035000Y-107400000D02*
G01*
X148035000Y-107000000D01*
X147635000Y-107000000D01*
X147635000Y-107400000D01*
X148035000Y-107400000D01*
G37*
G36*
X148435000Y-107400000D02*
G01*
X148435000Y-107000000D01*
X148035000Y-107000000D01*
X148035000Y-107400000D01*
X148435000Y-107400000D01*
G37*
G36*
X149235000Y-107400000D02*
G01*
X149235000Y-107000000D01*
X148835000Y-107000000D01*
X148835000Y-107400000D01*
X149235000Y-107400000D01*
G37*
G36*
X151235000Y-107400000D02*
G01*
X151235000Y-107000000D01*
X150835000Y-107000000D01*
X150835000Y-107400000D01*
X151235000Y-107400000D01*
G37*
G36*
X151635000Y-107400000D02*
G01*
X151635000Y-107000000D01*
X151235000Y-107000000D01*
X151235000Y-107400000D01*
X151635000Y-107400000D01*
G37*
G36*
X152035000Y-107400000D02*
G01*
X152035000Y-107000000D01*
X151635000Y-107000000D01*
X151635000Y-107400000D01*
X152035000Y-107400000D01*
G37*
G36*
X152435000Y-107400000D02*
G01*
X152435000Y-107000000D01*
X152035000Y-107000000D01*
X152035000Y-107400000D01*
X152435000Y-107400000D01*
G37*
G36*
X152835000Y-107400000D02*
G01*
X152835000Y-107000000D01*
X152435000Y-107000000D01*
X152435000Y-107400000D01*
X152835000Y-107400000D01*
G37*
G36*
X154435000Y-107400000D02*
G01*
X154435000Y-107000000D01*
X154035000Y-107000000D01*
X154035000Y-107400000D01*
X154435000Y-107400000D01*
G37*
G36*
X154835000Y-107400000D02*
G01*
X154835000Y-107000000D01*
X154435000Y-107000000D01*
X154435000Y-107400000D01*
X154835000Y-107400000D01*
G37*
G36*
X156035000Y-107400000D02*
G01*
X156035000Y-107000000D01*
X155635000Y-107000000D01*
X155635000Y-107400000D01*
X156035000Y-107400000D01*
G37*
G36*
X156835000Y-107400000D02*
G01*
X156835000Y-107000000D01*
X156435000Y-107000000D01*
X156435000Y-107400000D01*
X156835000Y-107400000D01*
G37*
G36*
X157635000Y-107400000D02*
G01*
X157635000Y-107000000D01*
X157235000Y-107000000D01*
X157235000Y-107400000D01*
X157635000Y-107400000D01*
G37*
G36*
X158035000Y-107400000D02*
G01*
X158035000Y-107000000D01*
X157635000Y-107000000D01*
X157635000Y-107400000D01*
X158035000Y-107400000D01*
G37*
G36*
X158835000Y-107400000D02*
G01*
X158835000Y-107000000D01*
X158435000Y-107000000D01*
X158435000Y-107400000D01*
X158835000Y-107400000D01*
G37*
G36*
X159235000Y-107400000D02*
G01*
X159235000Y-107000000D01*
X158835000Y-107000000D01*
X158835000Y-107400000D01*
X159235000Y-107400000D01*
G37*
G36*
X159635000Y-107400000D02*
G01*
X159635000Y-107000000D01*
X159235000Y-107000000D01*
X159235000Y-107400000D01*
X159635000Y-107400000D01*
G37*
G36*
X146835000Y-107800000D02*
G01*
X146835000Y-107400000D01*
X146435000Y-107400000D01*
X146435000Y-107800000D01*
X146835000Y-107800000D01*
G37*
G36*
X149235000Y-107800000D02*
G01*
X149235000Y-107400000D01*
X148835000Y-107400000D01*
X148835000Y-107800000D01*
X149235000Y-107800000D01*
G37*
G36*
X150835000Y-107800000D02*
G01*
X150835000Y-107400000D01*
X150435000Y-107400000D01*
X150435000Y-107800000D01*
X150835000Y-107800000D01*
G37*
G36*
X151235000Y-107800000D02*
G01*
X151235000Y-107400000D01*
X150835000Y-107400000D01*
X150835000Y-107800000D01*
X151235000Y-107800000D01*
G37*
G36*
X151635000Y-107800000D02*
G01*
X151635000Y-107400000D01*
X151235000Y-107400000D01*
X151235000Y-107800000D01*
X151635000Y-107800000D01*
G37*
G36*
X152035000Y-107800000D02*
G01*
X152035000Y-107400000D01*
X151635000Y-107400000D01*
X151635000Y-107800000D01*
X152035000Y-107800000D01*
G37*
G36*
X154035000Y-107800000D02*
G01*
X154035000Y-107400000D01*
X153635000Y-107400000D01*
X153635000Y-107800000D01*
X154035000Y-107800000D01*
G37*
G36*
X154835000Y-107800000D02*
G01*
X154835000Y-107400000D01*
X154435000Y-107400000D01*
X154435000Y-107800000D01*
X154835000Y-107800000D01*
G37*
G36*
X155635000Y-107800000D02*
G01*
X155635000Y-107400000D01*
X155235000Y-107400000D01*
X155235000Y-107800000D01*
X155635000Y-107800000D01*
G37*
G36*
X156435000Y-107800000D02*
G01*
X156435000Y-107400000D01*
X156035000Y-107400000D01*
X156035000Y-107800000D01*
X156435000Y-107800000D01*
G37*
G36*
X157635000Y-107800000D02*
G01*
X157635000Y-107400000D01*
X157235000Y-107400000D01*
X157235000Y-107800000D01*
X157635000Y-107800000D01*
G37*
G36*
X158035000Y-107800000D02*
G01*
X158035000Y-107400000D01*
X157635000Y-107400000D01*
X157635000Y-107800000D01*
X158035000Y-107800000D01*
G37*
G36*
X158435000Y-107800000D02*
G01*
X158435000Y-107400000D01*
X158035000Y-107400000D01*
X158035000Y-107800000D01*
X158435000Y-107800000D01*
G37*
G36*
X158835000Y-107800000D02*
G01*
X158835000Y-107400000D01*
X158435000Y-107400000D01*
X158435000Y-107800000D01*
X158835000Y-107800000D01*
G37*
G36*
X146835000Y-108200000D02*
G01*
X146835000Y-107800000D01*
X146435000Y-107800000D01*
X146435000Y-108200000D01*
X146835000Y-108200000D01*
G37*
G36*
X147235000Y-108200000D02*
G01*
X147235000Y-107800000D01*
X146835000Y-107800000D01*
X146835000Y-108200000D01*
X147235000Y-108200000D01*
G37*
G36*
X147635000Y-108200000D02*
G01*
X147635000Y-107800000D01*
X147235000Y-107800000D01*
X147235000Y-108200000D01*
X147635000Y-108200000D01*
G37*
G36*
X148035000Y-108200000D02*
G01*
X148035000Y-107800000D01*
X147635000Y-107800000D01*
X147635000Y-108200000D01*
X148035000Y-108200000D01*
G37*
G36*
X148435000Y-108200000D02*
G01*
X148435000Y-107800000D01*
X148035000Y-107800000D01*
X148035000Y-108200000D01*
X148435000Y-108200000D01*
G37*
G36*
X148835000Y-108200000D02*
G01*
X148835000Y-107800000D01*
X148435000Y-107800000D01*
X148435000Y-108200000D01*
X148835000Y-108200000D01*
G37*
G36*
X149235000Y-108200000D02*
G01*
X149235000Y-107800000D01*
X148835000Y-107800000D01*
X148835000Y-108200000D01*
X149235000Y-108200000D01*
G37*
G36*
X150035000Y-108200000D02*
G01*
X150035000Y-107800000D01*
X149635000Y-107800000D01*
X149635000Y-108200000D01*
X150035000Y-108200000D01*
G37*
G36*
X150435000Y-108200000D02*
G01*
X150435000Y-107800000D01*
X150035000Y-107800000D01*
X150035000Y-108200000D01*
X150435000Y-108200000D01*
G37*
G36*
X150835000Y-108200000D02*
G01*
X150835000Y-107800000D01*
X150435000Y-107800000D01*
X150435000Y-108200000D01*
X150835000Y-108200000D01*
G37*
G36*
X151235000Y-108200000D02*
G01*
X151235000Y-107800000D01*
X150835000Y-107800000D01*
X150835000Y-108200000D01*
X151235000Y-108200000D01*
G37*
G36*
X152835000Y-108200000D02*
G01*
X152835000Y-107800000D01*
X152435000Y-107800000D01*
X152435000Y-108200000D01*
X152835000Y-108200000D01*
G37*
G36*
X153235000Y-108200000D02*
G01*
X153235000Y-107800000D01*
X152835000Y-107800000D01*
X152835000Y-108200000D01*
X153235000Y-108200000D01*
G37*
G36*
X155635000Y-108200000D02*
G01*
X155635000Y-107800000D01*
X155235000Y-107800000D01*
X155235000Y-108200000D01*
X155635000Y-108200000D01*
G37*
G36*
X156035000Y-108200000D02*
G01*
X156035000Y-107800000D01*
X155635000Y-107800000D01*
X155635000Y-108200000D01*
X156035000Y-108200000D01*
G37*
G36*
X156435000Y-108200000D02*
G01*
X156435000Y-107800000D01*
X156035000Y-107800000D01*
X156035000Y-108200000D01*
X156435000Y-108200000D01*
G37*
G36*
X156835000Y-108200000D02*
G01*
X156835000Y-107800000D01*
X156435000Y-107800000D01*
X156435000Y-108200000D01*
X156835000Y-108200000D01*
G37*
G36*
X157235000Y-108200000D02*
G01*
X157235000Y-107800000D01*
X156835000Y-107800000D01*
X156835000Y-108200000D01*
X157235000Y-108200000D01*
G37*
G36*
X157635000Y-108200000D02*
G01*
X157635000Y-107800000D01*
X157235000Y-107800000D01*
X157235000Y-108200000D01*
X157635000Y-108200000D01*
G37*
G36*
X159235000Y-108200000D02*
G01*
X159235000Y-107800000D01*
X158835000Y-107800000D01*
X158835000Y-108200000D01*
X159235000Y-108200000D01*
G37*
D14*
X149225000Y-58420000D02*
X149225000Y-57150000D01*
X149225000Y-57150000D02*
X156845000Y-57150000D01*
X156845000Y-57150000D02*
X156845000Y-58420000D01*
X147955000Y-69850000D02*
X147955000Y-73660000D01*
X147955000Y-73660000D02*
X150495000Y-73660000D01*
X150495000Y-73660000D02*
X150495000Y-69850000D01*
X150495000Y-69850000D02*
X147955000Y-69850000D01*
X149225000Y-63500000D02*
X156845000Y-63500000D01*
X156845000Y-63500000D02*
X156845000Y-58420000D01*
X149225000Y-63500000D02*
X149225000Y-58420000D01*
X147955000Y-64770000D02*
X147955000Y-67310000D01*
X147955000Y-67310000D02*
X150495000Y-67310000D01*
X150495000Y-67310000D02*
X150495000Y-64770000D01*
X150495000Y-64770000D02*
X147955000Y-64770000D01*
X155575000Y-91440000D02*
X150495000Y-91440000D01*
X150495000Y-91440000D02*
X150495000Y-88900000D01*
X150495000Y-88900000D02*
X155575000Y-88900000D01*
X155575000Y-88900000D02*
X155575000Y-91440000D01*
X147955000Y-85090000D02*
X158115000Y-85090000D01*
X158115000Y-76200000D02*
X147955000Y-76200000D01*
X158115000Y-85090000D02*
X158115000Y-76200000D01*
X147955000Y-85090000D02*
X147955000Y-76200000D01*
X161925000Y-58420000D02*
X161925000Y-93980000D01*
X161925000Y-93980000D02*
X144145000Y-93980000D01*
X144145000Y-93980000D02*
X144145000Y-58420000D01*
X144145000Y-58420000D02*
X161925000Y-58420000D01*
X116205000Y-58420000D02*
X116205000Y-57150000D01*
X116205000Y-57150000D02*
X123825000Y-57150000D01*
X123825000Y-57150000D02*
X123825000Y-58420000D01*
X114935000Y-69850000D02*
X114935000Y-73660000D01*
X114935000Y-73660000D02*
X117475000Y-73660000D01*
X117475000Y-73660000D02*
X117475000Y-69850000D01*
X117475000Y-69850000D02*
X114935000Y-69850000D01*
X116205000Y-63500000D02*
X123825000Y-63500000D01*
X123825000Y-63500000D02*
X123825000Y-58420000D01*
X116205000Y-63500000D02*
X116205000Y-58420000D01*
X114935000Y-64770000D02*
X114935000Y-67310000D01*
X114935000Y-67310000D02*
X117475000Y-67310000D01*
X117475000Y-67310000D02*
X117475000Y-64770000D01*
X117475000Y-64770000D02*
X114935000Y-64770000D01*
X122555000Y-91440000D02*
X117475000Y-91440000D01*
X117475000Y-91440000D02*
X117475000Y-88900000D01*
X117475000Y-88900000D02*
X122555000Y-88900000D01*
X122555000Y-88900000D02*
X122555000Y-91440000D01*
X114935000Y-85090000D02*
X125095000Y-85090000D01*
X125095000Y-76200000D02*
X114935000Y-76200000D01*
X125095000Y-85090000D02*
X125095000Y-76200000D01*
X114935000Y-85090000D02*
X114935000Y-76200000D01*
X128905000Y-58420000D02*
X128905000Y-93980000D01*
X128905000Y-93980000D02*
X111125000Y-93980000D01*
X111125000Y-93980000D02*
X111125000Y-58420000D01*
X111125000Y-58420000D02*
X128905000Y-58420000D01*
X156845000Y-144780000D02*
X156845000Y-146050000D01*
X156845000Y-146050000D02*
X149225000Y-146050000D01*
X149225000Y-146050000D02*
X149225000Y-144780000D01*
X158115000Y-133350000D02*
X158115000Y-129540000D01*
X158115000Y-129540000D02*
X155575000Y-129540000D01*
X155575000Y-129540000D02*
X155575000Y-133350000D01*
X155575000Y-133350000D02*
X158115000Y-133350000D01*
X156845000Y-139700000D02*
X149225000Y-139700000D01*
X149225000Y-139700000D02*
X149225000Y-144780000D01*
X156845000Y-139700000D02*
X156845000Y-144780000D01*
X158115000Y-138430000D02*
X158115000Y-135890000D01*
X158115000Y-135890000D02*
X155575000Y-135890000D01*
X155575000Y-135890000D02*
X155575000Y-138430000D01*
X155575000Y-138430000D02*
X158115000Y-138430000D01*
X150495000Y-111760000D02*
X155575000Y-111760000D01*
X155575000Y-111760000D02*
X155575000Y-114300000D01*
X155575000Y-114300000D02*
X150495000Y-114300000D01*
X150495000Y-114300000D02*
X150495000Y-111760000D01*
X158115000Y-118110000D02*
X147955000Y-118110000D01*
X147955000Y-127000000D02*
X158115000Y-127000000D01*
X147955000Y-118110000D02*
X147955000Y-127000000D01*
X158115000Y-118110000D02*
X158115000Y-127000000D01*
X144145000Y-144780000D02*
X144145000Y-109220000D01*
X144145000Y-109220000D02*
X161925000Y-109220000D01*
X161925000Y-109220000D02*
X161925000Y-144780000D01*
X161925000Y-144780000D02*
X144145000Y-144780000D01*
X123825000Y-144780000D02*
X123825000Y-146050000D01*
X123825000Y-146050000D02*
X116205000Y-146050000D01*
X116205000Y-146050000D02*
X116205000Y-144780000D01*
X125095000Y-133350000D02*
X125095000Y-129540000D01*
X125095000Y-129540000D02*
X122555000Y-129540000D01*
X122555000Y-129540000D02*
X122555000Y-133350000D01*
X122555000Y-133350000D02*
X125095000Y-133350000D01*
X123825000Y-139700000D02*
X116205000Y-139700000D01*
X116205000Y-139700000D02*
X116205000Y-144780000D01*
X123825000Y-139700000D02*
X123825000Y-144780000D01*
X125095000Y-138430000D02*
X125095000Y-135890000D01*
X125095000Y-135890000D02*
X122555000Y-135890000D01*
X122555000Y-135890000D02*
X122555000Y-138430000D01*
X122555000Y-138430000D02*
X125095000Y-138430000D01*
X117475000Y-111760000D02*
X122555000Y-111760000D01*
X122555000Y-111760000D02*
X122555000Y-114300000D01*
X122555000Y-114300000D02*
X117475000Y-114300000D01*
X117475000Y-114300000D02*
X117475000Y-111760000D01*
X125095000Y-118110000D02*
X114935000Y-118110000D01*
X114935000Y-127000000D02*
X125095000Y-127000000D01*
X114935000Y-118110000D02*
X114935000Y-127000000D01*
X125095000Y-118110000D02*
X125095000Y-127000000D01*
X111125000Y-144780000D02*
X111125000Y-109220000D01*
X111125000Y-109220000D02*
X128905000Y-109220000D01*
X128905000Y-109220000D02*
X128905000Y-144780000D01*
X128905000Y-144780000D02*
X111125000Y-144780000D01*
D15*
X168335000Y-137220000D02*
X167005000Y-137220000D01*
X168335000Y-135890000D02*
X168335000Y-137220000D01*
X168335000Y-134620000D02*
X165675000Y-134620000D01*
X165675000Y-134620000D02*
X165675000Y-126940000D01*
X168335000Y-134620000D02*
X168335000Y-126940000D01*
X168335000Y-126940000D02*
X165675000Y-126940000D01*
X165795000Y-144840000D02*
X164465000Y-144840000D01*
X165795000Y-143510000D02*
X165795000Y-144840000D01*
X165795000Y-142240000D02*
X163135000Y-142240000D01*
X163135000Y-142240000D02*
X163135000Y-109160000D01*
X165795000Y-142240000D02*
X165795000Y-109160000D01*
X165795000Y-109160000D02*
X163135000Y-109160000D01*
X107255000Y-58360000D02*
X108585000Y-58360000D01*
X107255000Y-59690000D02*
X107255000Y-58360000D01*
X107255000Y-60960000D02*
X109915000Y-60960000D01*
X109915000Y-60960000D02*
X109915000Y-94040000D01*
X107255000Y-60960000D02*
X107255000Y-94040000D01*
X107255000Y-94040000D02*
X109915000Y-94040000D01*
X142935000Y-144840000D02*
X141605000Y-144840000D01*
X142935000Y-143510000D02*
X142935000Y-144840000D01*
X142935000Y-142240000D02*
X140275000Y-142240000D01*
X140275000Y-142240000D02*
X140275000Y-109160000D01*
X142935000Y-142240000D02*
X142935000Y-109160000D01*
X142935000Y-109160000D02*
X140275000Y-109160000D01*
X130115000Y-58360000D02*
X131445000Y-58360000D01*
X130115000Y-59690000D02*
X130115000Y-58360000D01*
X130115000Y-60960000D02*
X132775000Y-60960000D01*
X132775000Y-60960000D02*
X132775000Y-94040000D01*
X130115000Y-60960000D02*
X130115000Y-94040000D01*
X130115000Y-94040000D02*
X132775000Y-94040000D01*
X132775000Y-144840000D02*
X131445000Y-144840000D01*
X132775000Y-143510000D02*
X132775000Y-144840000D01*
X132775000Y-142240000D02*
X130115000Y-142240000D01*
X130115000Y-142240000D02*
X130115000Y-109160000D01*
X132775000Y-142240000D02*
X132775000Y-109160000D01*
X132775000Y-109160000D02*
X130115000Y-109160000D01*
X140275000Y-58360000D02*
X141605000Y-58360000D01*
X140275000Y-59690000D02*
X140275000Y-58360000D01*
X140275000Y-60960000D02*
X142935000Y-60960000D01*
X142935000Y-60960000D02*
X142935000Y-94040000D01*
X140275000Y-60960000D02*
X140275000Y-94040000D01*
X140275000Y-94040000D02*
X142935000Y-94040000D01*
X107255000Y-109160000D02*
X108585000Y-109160000D01*
X107255000Y-110490000D02*
X107255000Y-109160000D01*
X107255000Y-111760000D02*
X109915000Y-111760000D01*
X109915000Y-111760000D02*
X109915000Y-144840000D01*
X107255000Y-111760000D02*
X107255000Y-144840000D01*
X107255000Y-144840000D02*
X109915000Y-144840000D01*
X163135000Y-58360000D02*
X164465000Y-58360000D01*
X163135000Y-59690000D02*
X163135000Y-58360000D01*
X163135000Y-60960000D02*
X165795000Y-60960000D01*
X165795000Y-60960000D02*
X165795000Y-94040000D01*
X163135000Y-60960000D02*
X163135000Y-94040000D01*
X163135000Y-94040000D02*
X165795000Y-94040000D01*
X109915000Y-104200000D02*
X108585000Y-104200000D01*
X109915000Y-102870000D02*
X109915000Y-104200000D01*
X109915000Y-101600000D02*
X107255000Y-101600000D01*
X107255000Y-101600000D02*
X107255000Y-99000000D01*
X109915000Y-101600000D02*
X109915000Y-99000000D01*
X109915000Y-99000000D02*
X107255000Y-99000000D01*
X163135000Y-99000000D02*
X164465000Y-99000000D01*
X163135000Y-100330000D02*
X163135000Y-99000000D01*
X163135000Y-101600000D02*
X165795000Y-101600000D01*
X165795000Y-101600000D02*
X165795000Y-104200000D01*
X163135000Y-101600000D02*
X163135000Y-104200000D01*
X163135000Y-104200000D02*
X165795000Y-104200000D01*
X137735000Y-65980000D02*
X139065000Y-65980000D01*
X137735000Y-67310000D02*
X137735000Y-65980000D01*
X137735000Y-68580000D02*
X140395000Y-68580000D01*
X140395000Y-68580000D02*
X140395000Y-76260000D01*
X137735000Y-68580000D02*
X137735000Y-76260000D01*
X137735000Y-76260000D02*
X140395000Y-76260000D01*
X135315000Y-137220000D02*
X133985000Y-137220000D01*
X135315000Y-135890000D02*
X135315000Y-137220000D01*
X135315000Y-134620000D02*
X132655000Y-134620000D01*
X132655000Y-134620000D02*
X132655000Y-126940000D01*
X135315000Y-134620000D02*
X135315000Y-126940000D01*
X135315000Y-126940000D02*
X132655000Y-126940000D01*
X104715000Y-65980000D02*
X106045000Y-65980000D01*
X104715000Y-67310000D02*
X104715000Y-65980000D01*
X104715000Y-68580000D02*
X107375000Y-68580000D01*
X107375000Y-68580000D02*
X107375000Y-76260000D01*
X104715000Y-68580000D02*
X104715000Y-76260000D01*
X104715000Y-76260000D02*
X107375000Y-76260000D01*
D10*
X109742514Y-106539695D02*
X109742514Y-105726895D01*
X110090857Y-106539695D02*
X110090857Y-106113942D01*
X110052152Y-106036533D01*
X109974742Y-105997828D01*
X109858628Y-105997828D01*
X109781219Y-106036533D01*
X109742514Y-106075238D01*
X110361790Y-105997828D02*
X110671428Y-105997828D01*
X110477904Y-105726895D02*
X110477904Y-106423580D01*
X110516609Y-106500990D01*
X110594019Y-106539695D01*
X110671428Y-106539695D01*
X110826247Y-105997828D02*
X111135885Y-105997828D01*
X110942361Y-105726895D02*
X110942361Y-106423580D01*
X110981066Y-106500990D01*
X111058476Y-106539695D01*
X111135885Y-106539695D01*
X111406819Y-105997828D02*
X111406819Y-106810628D01*
X111406819Y-106036533D02*
X111484228Y-105997828D01*
X111639047Y-105997828D01*
X111716457Y-106036533D01*
X111755161Y-106075238D01*
X111793866Y-106152647D01*
X111793866Y-106384876D01*
X111755161Y-106462285D01*
X111716457Y-106500990D01*
X111639047Y-106539695D01*
X111484228Y-106539695D01*
X111406819Y-106500990D01*
X112103504Y-106500990D02*
X112180914Y-106539695D01*
X112335733Y-106539695D01*
X112413142Y-106500990D01*
X112451847Y-106423580D01*
X112451847Y-106384876D01*
X112413142Y-106307466D01*
X112335733Y-106268761D01*
X112219619Y-106268761D01*
X112142209Y-106230057D01*
X112103504Y-106152647D01*
X112103504Y-106113942D01*
X112142209Y-106036533D01*
X112219619Y-105997828D01*
X112335733Y-105997828D01*
X112413142Y-106036533D01*
X112800190Y-106462285D02*
X112838895Y-106500990D01*
X112800190Y-106539695D01*
X112761485Y-106500990D01*
X112800190Y-106462285D01*
X112800190Y-106539695D01*
X112800190Y-106036533D02*
X112838895Y-106075238D01*
X112800190Y-106113942D01*
X112761485Y-106075238D01*
X112800190Y-106036533D01*
X112800190Y-106113942D01*
X113767809Y-105688190D02*
X113071123Y-106733219D01*
X114619314Y-105688190D02*
X113922628Y-106733219D01*
X115238590Y-105997828D02*
X115238590Y-106655809D01*
X115199885Y-106733219D01*
X115161180Y-106771923D01*
X115083771Y-106810628D01*
X114967657Y-106810628D01*
X114890247Y-106771923D01*
X115238590Y-106500990D02*
X115161180Y-106539695D01*
X115006361Y-106539695D01*
X114928952Y-106500990D01*
X114890247Y-106462285D01*
X114851542Y-106384876D01*
X114851542Y-106152647D01*
X114890247Y-106075238D01*
X114928952Y-106036533D01*
X115006361Y-105997828D01*
X115161180Y-105997828D01*
X115238590Y-106036533D01*
X115625638Y-106539695D02*
X115625638Y-105997828D01*
X115625638Y-105726895D02*
X115586933Y-105765600D01*
X115625638Y-105804304D01*
X115664342Y-105765600D01*
X115625638Y-105726895D01*
X115625638Y-105804304D01*
X115896571Y-105997828D02*
X116206209Y-105997828D01*
X116012685Y-105726895D02*
X116012685Y-106423580D01*
X116051390Y-106500990D01*
X116128800Y-106539695D01*
X116206209Y-106539695D01*
X116477142Y-106539695D02*
X116477142Y-105726895D01*
X116825485Y-106539695D02*
X116825485Y-106113942D01*
X116786780Y-106036533D01*
X116709371Y-105997828D01*
X116593257Y-105997828D01*
X116515847Y-106036533D01*
X116477142Y-106075238D01*
X117560876Y-105997828D02*
X117560876Y-106539695D01*
X117212533Y-105997828D02*
X117212533Y-106423580D01*
X117251238Y-106500990D01*
X117328647Y-106539695D01*
X117444761Y-106539695D01*
X117522171Y-106500990D01*
X117560876Y-106462285D01*
X117947923Y-106539695D02*
X117947923Y-105726895D01*
X117947923Y-106036533D02*
X118025333Y-105997828D01*
X118180152Y-105997828D01*
X118257561Y-106036533D01*
X118296266Y-106075238D01*
X118334971Y-106152647D01*
X118334971Y-106384876D01*
X118296266Y-106462285D01*
X118257561Y-106500990D01*
X118180152Y-106539695D01*
X118025333Y-106539695D01*
X117947923Y-106500990D01*
X118683314Y-106462285D02*
X118722019Y-106500990D01*
X118683314Y-106539695D01*
X118644609Y-106500990D01*
X118683314Y-106462285D01*
X118683314Y-106539695D01*
X119418704Y-106500990D02*
X119341295Y-106539695D01*
X119186476Y-106539695D01*
X119109066Y-106500990D01*
X119070361Y-106462285D01*
X119031657Y-106384876D01*
X119031657Y-106152647D01*
X119070361Y-106075238D01*
X119109066Y-106036533D01*
X119186476Y-105997828D01*
X119341295Y-105997828D01*
X119418704Y-106036533D01*
X119883161Y-106539695D02*
X119805752Y-106500990D01*
X119767047Y-106462285D01*
X119728342Y-106384876D01*
X119728342Y-106152647D01*
X119767047Y-106075238D01*
X119805752Y-106036533D01*
X119883161Y-105997828D01*
X119999276Y-105997828D01*
X120076685Y-106036533D01*
X120115390Y-106075238D01*
X120154095Y-106152647D01*
X120154095Y-106384876D01*
X120115390Y-106462285D01*
X120076685Y-106500990D01*
X119999276Y-106539695D01*
X119883161Y-106539695D01*
X120502438Y-106539695D02*
X120502438Y-105997828D01*
X120502438Y-106075238D02*
X120541142Y-106036533D01*
X120618552Y-105997828D01*
X120734666Y-105997828D01*
X120812076Y-106036533D01*
X120850780Y-106113942D01*
X120850780Y-106539695D01*
X120850780Y-106113942D02*
X120889485Y-106036533D01*
X120966895Y-105997828D01*
X121083009Y-105997828D01*
X121160419Y-106036533D01*
X121199123Y-106113942D01*
X121199123Y-106539695D01*
X122166742Y-105688190D02*
X121470057Y-106733219D01*
X122321561Y-105726895D02*
X122786019Y-105726895D01*
X122553790Y-106539695D02*
X122553790Y-105726895D01*
X123056952Y-106539695D02*
X123056952Y-105997828D01*
X123056952Y-105726895D02*
X123018247Y-105765600D01*
X123056952Y-105804304D01*
X123095657Y-105765600D01*
X123056952Y-105726895D01*
X123056952Y-105804304D01*
X123444000Y-105997828D02*
X123444000Y-106539695D01*
X123444000Y-106075238D02*
X123482704Y-106036533D01*
X123560114Y-105997828D01*
X123676228Y-105997828D01*
X123753638Y-106036533D01*
X123792342Y-106113942D01*
X123792342Y-106539695D01*
X124295504Y-106539695D02*
X124218095Y-106500990D01*
X124179390Y-106462285D01*
X124140685Y-106384876D01*
X124140685Y-106152647D01*
X124179390Y-106075238D01*
X124218095Y-106036533D01*
X124295504Y-105997828D01*
X124411619Y-105997828D01*
X124489028Y-106036533D01*
X124527733Y-106075238D01*
X124566438Y-106152647D01*
X124566438Y-106384876D01*
X124527733Y-106462285D01*
X124489028Y-106500990D01*
X124411619Y-106539695D01*
X124295504Y-106539695D01*
X124914780Y-106230057D02*
X125534057Y-106230057D01*
X126192038Y-106113942D02*
X125921104Y-106113942D01*
X125921104Y-106539695D02*
X125921104Y-105726895D01*
X126308152Y-105726895D01*
X127082247Y-106539695D02*
X126811314Y-106152647D01*
X126617790Y-106539695D02*
X126617790Y-105726895D01*
X126927428Y-105726895D01*
X127004838Y-105765600D01*
X127043542Y-105804304D01*
X127082247Y-105881714D01*
X127082247Y-105997828D01*
X127043542Y-106075238D01*
X127004838Y-106113942D01*
X126927428Y-106152647D01*
X126617790Y-106152647D01*
X127895047Y-106462285D02*
X127856342Y-106500990D01*
X127740228Y-106539695D01*
X127662819Y-106539695D01*
X127546704Y-106500990D01*
X127469295Y-106423580D01*
X127430590Y-106346171D01*
X127391885Y-106191352D01*
X127391885Y-106075238D01*
X127430590Y-105920419D01*
X127469295Y-105843009D01*
X127546704Y-105765600D01*
X127662819Y-105726895D01*
X127740228Y-105726895D01*
X127856342Y-105765600D01*
X127895047Y-105804304D01*
X128243390Y-106230057D02*
X128862666Y-106230057D01*
X129211009Y-105804304D02*
X129249714Y-105765600D01*
X129327123Y-105726895D01*
X129520647Y-105726895D01*
X129598057Y-105765600D01*
X129636761Y-105804304D01*
X129675466Y-105881714D01*
X129675466Y-105959123D01*
X129636761Y-106075238D01*
X129172304Y-106539695D01*
X129675466Y-106539695D01*
X130372152Y-105997828D02*
X130372152Y-106539695D01*
X130178628Y-105688190D02*
X129985104Y-106268761D01*
X130488266Y-106268761D01*
X130720495Y-105726895D02*
X131262361Y-105726895D01*
X130914019Y-106539695D01*
X131494590Y-105726895D02*
X131997752Y-105726895D01*
X131726819Y-106036533D01*
X131842933Y-106036533D01*
X131920342Y-106075238D01*
X131959047Y-106113942D01*
X131997752Y-106191352D01*
X131997752Y-106384876D01*
X131959047Y-106462285D01*
X131920342Y-106500990D01*
X131842933Y-106539695D01*
X131610704Y-106539695D01*
X131533295Y-106500990D01*
X131494590Y-106462285D01*
X132926666Y-105688190D02*
X132229980Y-106733219D01*
X133662057Y-106539695D02*
X133391123Y-106152647D01*
X133197600Y-106539695D02*
X133197600Y-105726895D01*
X133507238Y-105726895D01*
X133584647Y-105765600D01*
X133623352Y-105804304D01*
X133662057Y-105881714D01*
X133662057Y-105997828D01*
X133623352Y-106075238D01*
X133584647Y-106113942D01*
X133507238Y-106152647D01*
X133197600Y-106152647D01*
X134320038Y-106500990D02*
X134242628Y-106539695D01*
X134087809Y-106539695D01*
X134010400Y-106500990D01*
X133971695Y-106423580D01*
X133971695Y-106113942D01*
X134010400Y-106036533D01*
X134087809Y-105997828D01*
X134242628Y-105997828D01*
X134320038Y-106036533D01*
X134358742Y-106113942D01*
X134358742Y-106191352D01*
X133971695Y-106268761D01*
X134707085Y-106539695D02*
X134707085Y-105997828D01*
X134707085Y-106075238D02*
X134745790Y-106036533D01*
X134823200Y-105997828D01*
X134939314Y-105997828D01*
X135016723Y-106036533D01*
X135055428Y-106113942D01*
X135055428Y-106539695D01*
X135055428Y-106113942D02*
X135094133Y-106036533D01*
X135171542Y-105997828D01*
X135287657Y-105997828D01*
X135365066Y-106036533D01*
X135403771Y-106113942D01*
X135403771Y-106539695D01*
X135906933Y-106539695D02*
X135829523Y-106500990D01*
X135790819Y-106462285D01*
X135752114Y-106384876D01*
X135752114Y-106152647D01*
X135790819Y-106075238D01*
X135829523Y-106036533D01*
X135906933Y-105997828D01*
X136023047Y-105997828D01*
X136100457Y-106036533D01*
X136139161Y-106075238D01*
X136177866Y-106152647D01*
X136177866Y-106384876D01*
X136139161Y-106462285D01*
X136100457Y-106500990D01*
X136023047Y-106539695D01*
X135906933Y-106539695D01*
X136410095Y-105997828D02*
X136719733Y-105997828D01*
X136526209Y-105726895D02*
X136526209Y-106423580D01*
X136564914Y-106500990D01*
X136642323Y-106539695D01*
X136719733Y-106539695D01*
X137300304Y-106500990D02*
X137222895Y-106539695D01*
X137068076Y-106539695D01*
X136990666Y-106500990D01*
X136951961Y-106423580D01*
X136951961Y-106113942D01*
X136990666Y-106036533D01*
X137068076Y-105997828D01*
X137222895Y-105997828D01*
X137300304Y-106036533D01*
X137339009Y-106113942D01*
X137339009Y-106191352D01*
X136951961Y-106268761D01*
X137687352Y-105726895D02*
X137687352Y-106384876D01*
X137726057Y-106462285D01*
X137764761Y-106500990D01*
X137842171Y-106539695D01*
X137996990Y-106539695D01*
X138074400Y-106500990D01*
X138113104Y-106462285D01*
X138151809Y-106384876D01*
X138151809Y-105726895D01*
X138500152Y-106500990D02*
X138616266Y-106539695D01*
X138809790Y-106539695D01*
X138887200Y-106500990D01*
X138925904Y-106462285D01*
X138964609Y-106384876D01*
X138964609Y-106307466D01*
X138925904Y-106230057D01*
X138887200Y-106191352D01*
X138809790Y-106152647D01*
X138654971Y-106113942D01*
X138577561Y-106075238D01*
X138538857Y-106036533D01*
X138500152Y-105959123D01*
X138500152Y-105881714D01*
X138538857Y-105804304D01*
X138577561Y-105765600D01*
X138654971Y-105726895D01*
X138848495Y-105726895D01*
X138964609Y-105765600D01*
X139583885Y-106113942D02*
X139700000Y-106152647D01*
X139738704Y-106191352D01*
X139777409Y-106268761D01*
X139777409Y-106384876D01*
X139738704Y-106462285D01*
X139700000Y-106500990D01*
X139622590Y-106539695D01*
X139312952Y-106539695D01*
X139312952Y-105726895D01*
X139583885Y-105726895D01*
X139661295Y-105765600D01*
X139700000Y-105804304D01*
X139738704Y-105881714D01*
X139738704Y-105959123D01*
X139700000Y-106036533D01*
X139661295Y-106075238D01*
X139583885Y-106113942D01*
X139312952Y-106113942D01*
X140551504Y-105765600D02*
X140474095Y-105726895D01*
X140357980Y-105726895D01*
X140241866Y-105765600D01*
X140164457Y-105843009D01*
X140125752Y-105920419D01*
X140087047Y-106075238D01*
X140087047Y-106191352D01*
X140125752Y-106346171D01*
X140164457Y-106423580D01*
X140241866Y-106500990D01*
X140357980Y-106539695D01*
X140435390Y-106539695D01*
X140551504Y-106500990D01*
X140590209Y-106462285D01*
X140590209Y-106191352D01*
X140435390Y-106191352D01*
X141286895Y-106539695D02*
X141286895Y-106113942D01*
X141248190Y-106036533D01*
X141170780Y-105997828D01*
X141015961Y-105997828D01*
X140938552Y-106036533D01*
X141286895Y-106500990D02*
X141209485Y-106539695D01*
X141015961Y-106539695D01*
X140938552Y-106500990D01*
X140899847Y-106423580D01*
X140899847Y-106346171D01*
X140938552Y-106268761D01*
X141015961Y-106230057D01*
X141209485Y-106230057D01*
X141286895Y-106191352D01*
X141673942Y-106539695D02*
X141673942Y-105997828D01*
X141673942Y-106075238D02*
X141712647Y-106036533D01*
X141790057Y-105997828D01*
X141906171Y-105997828D01*
X141983580Y-106036533D01*
X142022285Y-106113942D01*
X142022285Y-106539695D01*
X142022285Y-106113942D02*
X142060990Y-106036533D01*
X142138400Y-105997828D01*
X142254514Y-105997828D01*
X142331923Y-106036533D01*
X142370628Y-106113942D01*
X142370628Y-106539695D01*
X143067314Y-106500990D02*
X142989904Y-106539695D01*
X142835085Y-106539695D01*
X142757676Y-106500990D01*
X142718971Y-106423580D01*
X142718971Y-106113942D01*
X142757676Y-106036533D01*
X142835085Y-105997828D01*
X142989904Y-105997828D01*
X143067314Y-106036533D01*
X143106019Y-106113942D01*
X143106019Y-106191352D01*
X142718971Y-106268761D01*
X143454361Y-105997828D02*
X143454361Y-106810628D01*
X143454361Y-106036533D02*
X143531771Y-105997828D01*
X143686590Y-105997828D01*
X143764000Y-106036533D01*
X143802704Y-106075238D01*
X143841409Y-106152647D01*
X143841409Y-106384876D01*
X143802704Y-106462285D01*
X143764000Y-106500990D01*
X143686590Y-106539695D01*
X143531771Y-106539695D01*
X143454361Y-106500990D01*
X144538095Y-106539695D02*
X144538095Y-106113942D01*
X144499390Y-106036533D01*
X144421980Y-105997828D01*
X144267161Y-105997828D01*
X144189752Y-106036533D01*
X144538095Y-106500990D02*
X144460685Y-106539695D01*
X144267161Y-106539695D01*
X144189752Y-106500990D01*
X144151047Y-106423580D01*
X144151047Y-106346171D01*
X144189752Y-106268761D01*
X144267161Y-106230057D01*
X144460685Y-106230057D01*
X144538095Y-106191352D01*
X145273485Y-106539695D02*
X145273485Y-105726895D01*
X145273485Y-106500990D02*
X145196076Y-106539695D01*
X145041257Y-106539695D01*
X144963847Y-106500990D01*
X144925142Y-106462285D01*
X144886438Y-106384876D01*
X144886438Y-106152647D01*
X144925142Y-106075238D01*
X144963847Y-106036533D01*
X145041257Y-105997828D01*
X145196076Y-105997828D01*
X145273485Y-106036533D01*
M02*
